<?xml version="1.0" encoding="utf-8" standalone="no"?>
<!DOCTYPE svg PUBLIC "-//W3C//DTD SVG 1.1//EN"
  "http://www.w3.org/Graphics/SVG/1.1/DTD/svg11.dtd">
<!-- Created with matplotlib (https://matplotlib.org/) -->
<svg height="485.215348pt" version="1.1" viewBox="0 0 756.719062 485.215348" width="756.719062pt" xmlns="http://www.w3.org/2000/svg" xmlns:xlink="http://www.w3.org/1999/xlink">
 <metadata>
  <rdf:RDF xmlns:cc="http://creativecommons.org/ns#" xmlns:dc="http://purl.org/dc/elements/1.1/" xmlns:rdf="http://www.w3.org/1999/02/22-rdf-syntax-ns#">
   <cc:Work>
    <dc:type rdf:resource="http://purl.org/dc/dcmitype/StillImage"/>
    <dc:date>2022-02-14T16:55:16.373238</dc:date>
    <dc:format>image/svg+xml</dc:format>
    <dc:creator>
     <cc:Agent>
      <dc:title>Matplotlib v3.3.3, https://matplotlib.org/</dc:title>
     </cc:Agent>
    </dc:creator>
   </cc:Work>
  </rdf:RDF>
 </metadata>
 <defs>
  <style type="text/css">*{stroke-linecap:butt;stroke-linejoin:round;}</style>
 </defs>
 <g id="figure_1">
  <g id="patch_1">
   <path d="M 0 485.215348 
L 756.719062 485.215348 
L 756.719062 0 
L 0 0 
z
" style="fill:none;"/>
  </g>
  <g id="axes_1">
   <g id="patch_2">
    <path d="M 40.2225 451.491285 
L 709.8225 451.491285 
L 709.8225 7.971285 
L 40.2225 7.971285 
z
" style="fill:none;"/>
   </g>
   <g id="matplotlib.axis_1">
    <g id="xtick_1">
     <g id="line2d_1">
      <defs>
       <path d="M 0 0 
L 0 16 
" id="m80acd9df84" style="stroke:#55efc4;stroke-width:3;"/>
      </defs>
      <g>
       <use style="fill:#55efc4;stroke:#55efc4;stroke-width:3;" x="40.2225" xlink:href="#m80acd9df84" y="451.491285"/>
      </g>
     </g>
    </g>
    <g id="xtick_2">
     <g id="line2d_2">
      <g>
       <use style="fill:#55efc4;stroke:#55efc4;stroke-width:3;" x="709.8225" xlink:href="#m80acd9df84" y="451.491285"/>
      </g>
     </g>
    </g>
    <g id="xtick_3">
     <g id="line2d_3">
      <defs>
       <path d="M 0 0 
L 0 10 
" id="m880ec543c7" style="stroke:#ffffff;stroke-width:3;"/>
      </defs>
      <g>
       <use style="fill:#ffffff;stroke:#ffffff;stroke-width:3;" x="123.9225" xlink:href="#m880ec543c7" y="451.491285"/>
      </g>
     </g>
     <g id="text_1">
      <!-- 03:00 -->
      <g style="fill:#ffffff;" transform="translate(93.662812 480.848004)scale(0.21 -0.21)">
       <defs>
        <path d="M 31.78125 66.40625 
Q 24.171875 66.40625 20.328125 58.90625 
Q 16.5 51.421875 16.5 36.375 
Q 16.5 21.390625 20.328125 13.890625 
Q 24.171875 6.390625 31.78125 6.390625 
Q 39.453125 6.390625 43.28125 13.890625 
Q 47.125 21.390625 47.125 36.375 
Q 47.125 51.421875 43.28125 58.90625 
Q 39.453125 66.40625 31.78125 66.40625 
z
M 31.78125 74.21875 
Q 44.046875 74.21875 50.515625 64.515625 
Q 56.984375 54.828125 56.984375 36.375 
Q 56.984375 17.96875 50.515625 8.265625 
Q 44.046875 -1.421875 31.78125 -1.421875 
Q 19.53125 -1.421875 13.0625 8.265625 
Q 6.59375 17.96875 6.59375 36.375 
Q 6.59375 54.828125 13.0625 64.515625 
Q 19.53125 74.21875 31.78125 74.21875 
z
" id="DejaVuSans-48"/>
        <path d="M 40.578125 39.3125 
Q 47.65625 37.796875 51.625 33 
Q 55.609375 28.21875 55.609375 21.1875 
Q 55.609375 10.40625 48.1875 4.484375 
Q 40.765625 -1.421875 27.09375 -1.421875 
Q 22.515625 -1.421875 17.65625 -0.515625 
Q 12.796875 0.390625 7.625 2.203125 
L 7.625 11.71875 
Q 11.71875 9.328125 16.59375 8.109375 
Q 21.484375 6.890625 26.8125 6.890625 
Q 36.078125 6.890625 40.9375 10.546875 
Q 45.796875 14.203125 45.796875 21.1875 
Q 45.796875 27.640625 41.28125 31.265625 
Q 36.765625 34.90625 28.71875 34.90625 
L 20.21875 34.90625 
L 20.21875 43.015625 
L 29.109375 43.015625 
Q 36.375 43.015625 40.234375 45.921875 
Q 44.09375 48.828125 44.09375 54.296875 
Q 44.09375 59.90625 40.109375 62.90625 
Q 36.140625 65.921875 28.71875 65.921875 
Q 24.65625 65.921875 20.015625 65.03125 
Q 15.375 64.15625 9.8125 62.3125 
L 9.8125 71.09375 
Q 15.4375 72.65625 20.34375 73.4375 
Q 25.25 74.21875 29.59375 74.21875 
Q 40.828125 74.21875 47.359375 69.109375 
Q 53.90625 64.015625 53.90625 55.328125 
Q 53.90625 49.265625 50.4375 45.09375 
Q 46.96875 40.921875 40.578125 39.3125 
z
" id="DejaVuSans-51"/>
        <path d="M 11.71875 12.40625 
L 22.015625 12.40625 
L 22.015625 0 
L 11.71875 0 
z
M 11.71875 51.703125 
L 22.015625 51.703125 
L 22.015625 39.3125 
L 11.71875 39.3125 
z
" id="DejaVuSans-58"/>
       </defs>
       <use xlink:href="#DejaVuSans-48"/>
       <use x="63.623047" xlink:href="#DejaVuSans-51"/>
       <use x="127.246094" xlink:href="#DejaVuSans-58"/>
       <use x="160.9375" xlink:href="#DejaVuSans-48"/>
       <use x="224.560547" xlink:href="#DejaVuSans-48"/>
      </g>
     </g>
    </g>
    <g id="xtick_4">
     <g id="line2d_4">
      <g>
       <use style="fill:#ffffff;stroke:#ffffff;stroke-width:3;" x="249.4725" xlink:href="#m880ec543c7" y="451.491285"/>
      </g>
     </g>
     <g id="text_2">
      <!-- 06:00 -->
      <g style="fill:#ffffff;" transform="translate(219.212812 480.848004)scale(0.21 -0.21)">
       <defs>
        <path d="M 33.015625 40.375 
Q 26.375 40.375 22.484375 35.828125 
Q 18.609375 31.296875 18.609375 23.390625 
Q 18.609375 15.53125 22.484375 10.953125 
Q 26.375 6.390625 33.015625 6.390625 
Q 39.65625 6.390625 43.53125 10.953125 
Q 47.40625 15.53125 47.40625 23.390625 
Q 47.40625 31.296875 43.53125 35.828125 
Q 39.65625 40.375 33.015625 40.375 
z
M 52.59375 71.296875 
L 52.59375 62.3125 
Q 48.875 64.0625 45.09375 64.984375 
Q 41.3125 65.921875 37.59375 65.921875 
Q 27.828125 65.921875 22.671875 59.328125 
Q 17.53125 52.734375 16.796875 39.40625 
Q 19.671875 43.65625 24.015625 45.921875 
Q 28.375 48.1875 33.59375 48.1875 
Q 44.578125 48.1875 50.953125 41.515625 
Q 57.328125 34.859375 57.328125 23.390625 
Q 57.328125 12.15625 50.6875 5.359375 
Q 44.046875 -1.421875 33.015625 -1.421875 
Q 20.359375 -1.421875 13.671875 8.265625 
Q 6.984375 17.96875 6.984375 36.375 
Q 6.984375 53.65625 15.1875 63.9375 
Q 23.390625 74.21875 37.203125 74.21875 
Q 40.921875 74.21875 44.703125 73.484375 
Q 48.484375 72.75 52.59375 71.296875 
z
" id="DejaVuSans-54"/>
       </defs>
       <use xlink:href="#DejaVuSans-48"/>
       <use x="63.623047" xlink:href="#DejaVuSans-54"/>
       <use x="127.246094" xlink:href="#DejaVuSans-58"/>
       <use x="160.9375" xlink:href="#DejaVuSans-48"/>
       <use x="224.560547" xlink:href="#DejaVuSans-48"/>
      </g>
     </g>
    </g>
    <g id="xtick_5">
     <g id="line2d_5">
      <g>
       <use style="fill:#ffffff;stroke:#ffffff;stroke-width:3;" x="375.0225" xlink:href="#m880ec543c7" y="451.491285"/>
      </g>
     </g>
     <g id="text_3">
      <!-- 09:00 -->
      <g style="fill:#ffffff;" transform="translate(344.762812 480.848004)scale(0.21 -0.21)">
       <defs>
        <path d="M 10.984375 1.515625 
L 10.984375 10.5 
Q 14.703125 8.734375 18.5 7.8125 
Q 22.3125 6.890625 25.984375 6.890625 
Q 35.75 6.890625 40.890625 13.453125 
Q 46.046875 20.015625 46.78125 33.40625 
Q 43.953125 29.203125 39.59375 26.953125 
Q 35.25 24.703125 29.984375 24.703125 
Q 19.046875 24.703125 12.671875 31.3125 
Q 6.296875 37.9375 6.296875 49.421875 
Q 6.296875 60.640625 12.9375 67.421875 
Q 19.578125 74.21875 30.609375 74.21875 
Q 43.265625 74.21875 49.921875 64.515625 
Q 56.59375 54.828125 56.59375 36.375 
Q 56.59375 19.140625 48.40625 8.859375 
Q 40.234375 -1.421875 26.421875 -1.421875 
Q 22.703125 -1.421875 18.890625 -0.6875 
Q 15.09375 0.046875 10.984375 1.515625 
z
M 30.609375 32.421875 
Q 37.25 32.421875 41.125 36.953125 
Q 45.015625 41.5 45.015625 49.421875 
Q 45.015625 57.28125 41.125 61.84375 
Q 37.25 66.40625 30.609375 66.40625 
Q 23.96875 66.40625 20.09375 61.84375 
Q 16.21875 57.28125 16.21875 49.421875 
Q 16.21875 41.5 20.09375 36.953125 
Q 23.96875 32.421875 30.609375 32.421875 
z
" id="DejaVuSans-57"/>
       </defs>
       <use xlink:href="#DejaVuSans-48"/>
       <use x="63.623047" xlink:href="#DejaVuSans-57"/>
       <use x="127.246094" xlink:href="#DejaVuSans-58"/>
       <use x="160.9375" xlink:href="#DejaVuSans-48"/>
       <use x="224.560547" xlink:href="#DejaVuSans-48"/>
      </g>
     </g>
    </g>
    <g id="xtick_6">
     <g id="line2d_6">
      <g>
       <use style="fill:#ffffff;stroke:#ffffff;stroke-width:3;" x="500.5725" xlink:href="#m880ec543c7" y="451.491285"/>
      </g>
     </g>
     <g id="text_4">
      <!-- 12:00 -->
      <g style="fill:#ffffff;" transform="translate(470.312812 480.848004)scale(0.21 -0.21)">
       <defs>
        <path d="M 12.40625 8.296875 
L 28.515625 8.296875 
L 28.515625 63.921875 
L 10.984375 60.40625 
L 10.984375 69.390625 
L 28.421875 72.90625 
L 38.28125 72.90625 
L 38.28125 8.296875 
L 54.390625 8.296875 
L 54.390625 0 
L 12.40625 0 
z
" id="DejaVuSans-49"/>
        <path d="M 19.1875 8.296875 
L 53.609375 8.296875 
L 53.609375 0 
L 7.328125 0 
L 7.328125 8.296875 
Q 12.9375 14.109375 22.625 23.890625 
Q 32.328125 33.6875 34.8125 36.53125 
Q 39.546875 41.84375 41.421875 45.53125 
Q 43.3125 49.21875 43.3125 52.78125 
Q 43.3125 58.59375 39.234375 62.25 
Q 35.15625 65.921875 28.609375 65.921875 
Q 23.96875 65.921875 18.8125 64.3125 
Q 13.671875 62.703125 7.8125 59.421875 
L 7.8125 69.390625 
Q 13.765625 71.78125 18.9375 73 
Q 24.125 74.21875 28.421875 74.21875 
Q 39.75 74.21875 46.484375 68.546875 
Q 53.21875 62.890625 53.21875 53.421875 
Q 53.21875 48.921875 51.53125 44.890625 
Q 49.859375 40.875 45.40625 35.40625 
Q 44.1875 33.984375 37.640625 27.21875 
Q 31.109375 20.453125 19.1875 8.296875 
z
" id="DejaVuSans-50"/>
       </defs>
       <use xlink:href="#DejaVuSans-49"/>
       <use x="63.623047" xlink:href="#DejaVuSans-50"/>
       <use x="127.246094" xlink:href="#DejaVuSans-58"/>
       <use x="160.9375" xlink:href="#DejaVuSans-48"/>
       <use x="224.560547" xlink:href="#DejaVuSans-48"/>
      </g>
     </g>
    </g>
    <g id="xtick_7">
     <g id="line2d_7">
      <g>
       <use style="fill:#ffffff;stroke:#ffffff;stroke-width:3;" x="626.1225" xlink:href="#m880ec543c7" y="451.491285"/>
      </g>
     </g>
     <g id="text_5">
      <!-- 15:00 -->
      <g style="fill:#ffffff;" transform="translate(595.862812 480.848004)scale(0.21 -0.21)">
       <defs>
        <path d="M 10.796875 72.90625 
L 49.515625 72.90625 
L 49.515625 64.59375 
L 19.828125 64.59375 
L 19.828125 46.734375 
Q 21.96875 47.46875 24.109375 47.828125 
Q 26.265625 48.1875 28.421875 48.1875 
Q 40.625 48.1875 47.75 41.5 
Q 54.890625 34.8125 54.890625 23.390625 
Q 54.890625 11.625 47.5625 5.09375 
Q 40.234375 -1.421875 26.90625 -1.421875 
Q 22.3125 -1.421875 17.546875 -0.640625 
Q 12.796875 0.140625 7.71875 1.703125 
L 7.71875 11.625 
Q 12.109375 9.234375 16.796875 8.0625 
Q 21.484375 6.890625 26.703125 6.890625 
Q 35.15625 6.890625 40.078125 11.328125 
Q 45.015625 15.765625 45.015625 23.390625 
Q 45.015625 31 40.078125 35.4375 
Q 35.15625 39.890625 26.703125 39.890625 
Q 22.75 39.890625 18.8125 39.015625 
Q 14.890625 38.140625 10.796875 36.28125 
z
" id="DejaVuSans-53"/>
       </defs>
       <use xlink:href="#DejaVuSans-49"/>
       <use x="63.623047" xlink:href="#DejaVuSans-53"/>
       <use x="127.246094" xlink:href="#DejaVuSans-58"/>
       <use x="160.9375" xlink:href="#DejaVuSans-48"/>
       <use x="224.560547" xlink:href="#DejaVuSans-48"/>
      </g>
     </g>
    </g>
   </g>
   <g id="matplotlib.axis_2">
    <g id="ytick_1">
     <g id="line2d_8">
      <defs>
       <path d="M 0 0 
L -10 0 
" id="mb4b2103ac2" style="stroke:#dd7373;stroke-width:3;"/>
      </defs>
      <g>
       <use style="fill:#dd7373;stroke:#dd7373;stroke-width:3;" x="40.2225" xlink:href="#mb4b2103ac2" y="451.448842"/>
      </g>
     </g>
     <g id="text_6">
      <!-- 28 -->
      <g style="fill:#dd7373;" transform="translate(-0 459.427201)scale(0.21 -0.21)">
       <defs>
        <path d="M 31.78125 34.625 
Q 24.75 34.625 20.71875 30.859375 
Q 16.703125 27.09375 16.703125 20.515625 
Q 16.703125 13.921875 20.71875 10.15625 
Q 24.75 6.390625 31.78125 6.390625 
Q 38.8125 6.390625 42.859375 10.171875 
Q 46.921875 13.96875 46.921875 20.515625 
Q 46.921875 27.09375 42.890625 30.859375 
Q 38.875 34.625 31.78125 34.625 
z
M 21.921875 38.8125 
Q 15.578125 40.375 12.03125 44.71875 
Q 8.5 49.078125 8.5 55.328125 
Q 8.5 64.0625 14.71875 69.140625 
Q 20.953125 74.21875 31.78125 74.21875 
Q 42.671875 74.21875 48.875 69.140625 
Q 55.078125 64.0625 55.078125 55.328125 
Q 55.078125 49.078125 51.53125 44.71875 
Q 48 40.375 41.703125 38.8125 
Q 48.828125 37.15625 52.796875 32.3125 
Q 56.78125 27.484375 56.78125 20.515625 
Q 56.78125 9.90625 50.3125 4.234375 
Q 43.84375 -1.421875 31.78125 -1.421875 
Q 19.734375 -1.421875 13.25 4.234375 
Q 6.78125 9.90625 6.78125 20.515625 
Q 6.78125 27.484375 10.78125 32.3125 
Q 14.796875 37.15625 21.921875 38.8125 
z
M 18.3125 54.390625 
Q 18.3125 48.734375 21.84375 45.5625 
Q 25.390625 42.390625 31.78125 42.390625 
Q 38.140625 42.390625 41.71875 45.5625 
Q 45.3125 48.734375 45.3125 54.390625 
Q 45.3125 60.0625 41.71875 63.234375 
Q 38.140625 66.40625 31.78125 66.40625 
Q 25.390625 66.40625 21.84375 63.234375 
Q 18.3125 60.0625 18.3125 54.390625 
z
" id="DejaVuSans-56"/>
       </defs>
       <use xlink:href="#DejaVuSans-50"/>
       <use x="63.623047" xlink:href="#DejaVuSans-56"/>
      </g>
     </g>
    </g>
    <g id="ytick_2">
     <g id="line2d_9">
      <g>
       <use style="fill:#dd7373;stroke:#dd7373;stroke-width:3;" x="40.2225" xlink:href="#mb4b2103ac2" y="388.095915"/>
      </g>
     </g>
     <g id="text_7">
      <!-- 30 -->
      <g style="fill:#dd7373;" transform="translate(-0 396.074275)scale(0.21 -0.21)">
       <use xlink:href="#DejaVuSans-51"/>
       <use x="63.623047" xlink:href="#DejaVuSans-48"/>
      </g>
     </g>
    </g>
    <g id="ytick_3">
     <g id="line2d_10">
      <g>
       <use style="fill:#dd7373;stroke:#dd7373;stroke-width:3;" x="40.2225" xlink:href="#mb4b2103ac2" y="324.742989"/>
      </g>
     </g>
     <g id="text_8">
      <!-- 32 -->
      <g style="fill:#dd7373;" transform="translate(-0 332.721349)scale(0.21 -0.21)">
       <use xlink:href="#DejaVuSans-51"/>
       <use x="63.623047" xlink:href="#DejaVuSans-50"/>
      </g>
     </g>
    </g>
    <g id="ytick_4">
     <g id="line2d_11">
      <g>
       <use style="fill:#dd7373;stroke:#dd7373;stroke-width:3;" x="40.2225" xlink:href="#mb4b2103ac2" y="261.390063"/>
      </g>
     </g>
     <g id="text_9">
      <!-- 34 -->
      <g style="fill:#dd7373;" transform="translate(-0 269.368423)scale(0.21 -0.21)">
       <defs>
        <path d="M 37.796875 64.3125 
L 12.890625 25.390625 
L 37.796875 25.390625 
z
M 35.203125 72.90625 
L 47.609375 72.90625 
L 47.609375 25.390625 
L 58.015625 25.390625 
L 58.015625 17.1875 
L 47.609375 17.1875 
L 47.609375 0 
L 37.796875 0 
L 37.796875 17.1875 
L 4.890625 17.1875 
L 4.890625 26.703125 
z
" id="DejaVuSans-52"/>
       </defs>
       <use xlink:href="#DejaVuSans-51"/>
       <use x="63.623047" xlink:href="#DejaVuSans-52"/>
      </g>
     </g>
    </g>
    <g id="ytick_5">
     <g id="line2d_12">
      <g>
       <use style="fill:#dd7373;stroke:#dd7373;stroke-width:3;" x="40.2225" xlink:href="#mb4b2103ac2" y="198.037137"/>
      </g>
     </g>
     <g id="text_10">
      <!-- 36 -->
      <g style="fill:#dd7373;" transform="translate(-0 206.015497)scale(0.21 -0.21)">
       <use xlink:href="#DejaVuSans-51"/>
       <use x="63.623047" xlink:href="#DejaVuSans-54"/>
      </g>
     </g>
    </g>
    <g id="ytick_6">
     <g id="line2d_13">
      <g>
       <use style="fill:#dd7373;stroke:#dd7373;stroke-width:3;" x="40.2225" xlink:href="#mb4b2103ac2" y="134.684211"/>
      </g>
     </g>
     <g id="text_11">
      <!-- 38 -->
      <g style="fill:#dd7373;" transform="translate(-0 142.662571)scale(0.21 -0.21)">
       <use xlink:href="#DejaVuSans-51"/>
       <use x="63.623047" xlink:href="#DejaVuSans-56"/>
      </g>
     </g>
    </g>
    <g id="ytick_7">
     <g id="line2d_14">
      <g>
       <use style="fill:#dd7373;stroke:#dd7373;stroke-width:3;" x="40.2225" xlink:href="#mb4b2103ac2" y="71.331285"/>
      </g>
     </g>
     <g id="text_12">
      <!-- 40 -->
      <g style="fill:#dd7373;" transform="translate(-0 79.309645)scale(0.21 -0.21)">
       <use xlink:href="#DejaVuSans-52"/>
       <use x="63.623047" xlink:href="#DejaVuSans-48"/>
      </g>
     </g>
    </g>
    <g id="ytick_8">
     <g id="line2d_15">
      <g>
       <use style="fill:#dd7373;stroke:#dd7373;stroke-width:3;" x="40.2225" xlink:href="#mb4b2103ac2" y="7.978359"/>
      </g>
     </g>
     <g id="text_13">
      <!-- 42 -->
      <g style="fill:#dd7373;" transform="translate(-0 15.956719)scale(0.21 -0.21)">
       <use xlink:href="#DejaVuSans-52"/>
       <use x="63.623047" xlink:href="#DejaVuSans-50"/>
      </g>
     </g>
    </g>
   </g>
   <g id="line2d_16">
    <path clip-path="url(#pafa7b78e19)" d="M 40.2225 388.095915 
L 226.455 387.915694 
L 243.8925 387.546697 
L 259.2375 387.007406 
L 273.1875 386.303251 
L 286.44 385.413835 
L 298.995 384.346384 
L 310.8525 383.114763 
L 322.0125 381.738348 
L 333.1725 380.133631 
L 343.635 378.406495 
L 354.0975 376.449275 
L 363.8625 374.402387 
L 373.6275 372.131087 
L 383.3925 369.623799 
L 392.46 367.074176 
L 401.5275 364.301821 
L 410.595 361.297464 
L 419.6625 358.051836 
L 428.73 354.555666 
L 437.1 351.098043 
L 445.47 347.411751 
L 453.84 343.489501 
L 462.21 339.324002 
L 470.58 334.907963 
L 478.95 330.234092 
L 487.32 325.2951 
L 495.69 320.083695 
L 504.06 314.592587 
L 512.43 308.814485 
L 520.8 302.742099 
L 528.4725 296.910997 
L 536.145 290.820871 
L 543.8175 284.466107 
L 551.49 277.841089 
L 559.1625 270.9402 
L 566.835 263.757826 
L 574.5075 256.28835 
L 582.18 248.526156 
L 589.8525 240.465629 
L 597.525 232.101153 
L 605.1975 223.427113 
L 612.87 214.437892 
L 620.5425 205.127875 
L 628.215 195.491446 
L 635.8875 185.522989 
L 643.56 175.216889 
L 651.2325 164.56753 
L 659.6025 152.551962 
L 667.9725 140.113914 
L 676.3425 127.246094 
L 684.7125 113.941212 
L 693.0825 100.191978 
L 701.4525 85.991099 
L 709.8225 71.331285 
L 709.8225 71.331285 
" style="fill:none;stroke:#dd7373;stroke-linecap:square;stroke-width:5;"/>
   </g>
  </g>
  <g id="axes_2">
   <g id="matplotlib.axis_3">
    <g id="ytick_9">
     <g id="line2d_17">
      <defs>
       <path d="M 0 0 
L 10 0 
" id="mb4b01b1d41" style="stroke:#63adf2;stroke-width:3;"/>
      </defs>
      <g>
       <use style="fill:#63adf2;stroke:#63adf2;stroke-width:3;" x="709.8225" xlink:href="#mb4b01b1d41" y="451.484211"/>
      </g>
     </g>
     <g id="text_14">
      <!-- 5.8 -->
      <g style="fill:#63adf2;" transform="translate(723.3225 459.462571)scale(0.21 -0.21)">
       <defs>
        <path d="M 10.6875 12.40625 
L 21 12.40625 
L 21 0 
L 10.6875 0 
z
" id="DejaVuSans-46"/>
       </defs>
       <use xlink:href="#DejaVuSans-53"/>
       <use x="63.623047" xlink:href="#DejaVuSans-46"/>
       <use x="95.410156" xlink:href="#DejaVuSans-56"/>
      </g>
     </g>
    </g>
    <g id="ytick_10">
     <g id="line2d_18">
      <g>
       <use style="fill:#63adf2;stroke:#63adf2;stroke-width:3;" x="709.8225" xlink:href="#mb4b01b1d41" y="388.131285"/>
      </g>
     </g>
     <g id="text_15">
      <!-- 6.0 -->
      <g style="fill:#63adf2;" transform="translate(723.3225 396.109645)scale(0.21 -0.21)">
       <use xlink:href="#DejaVuSans-54"/>
       <use x="63.623047" xlink:href="#DejaVuSans-46"/>
       <use x="95.410156" xlink:href="#DejaVuSans-48"/>
      </g>
     </g>
    </g>
    <g id="ytick_11">
     <g id="line2d_19">
      <g>
       <use style="fill:#63adf2;stroke:#63adf2;stroke-width:3;" x="709.8225" xlink:href="#mb4b01b1d41" y="324.778359"/>
      </g>
     </g>
     <g id="text_16">
      <!-- 6.2 -->
      <g style="fill:#63adf2;" transform="translate(723.3225 332.756719)scale(0.21 -0.21)">
       <use xlink:href="#DejaVuSans-54"/>
       <use x="63.623047" xlink:href="#DejaVuSans-46"/>
       <use x="95.410156" xlink:href="#DejaVuSans-50"/>
      </g>
     </g>
    </g>
    <g id="ytick_12">
     <g id="line2d_20">
      <g>
       <use style="fill:#63adf2;stroke:#63adf2;stroke-width:3;" x="709.8225" xlink:href="#mb4b01b1d41" y="261.425433"/>
      </g>
     </g>
     <g id="text_17">
      <!-- 6.4 -->
      <g style="fill:#63adf2;" transform="translate(723.3225 269.403793)scale(0.21 -0.21)">
       <use xlink:href="#DejaVuSans-54"/>
       <use x="63.623047" xlink:href="#DejaVuSans-46"/>
       <use x="95.410156" xlink:href="#DejaVuSans-52"/>
      </g>
     </g>
    </g>
    <g id="ytick_13">
     <g id="line2d_21">
      <g>
       <use style="fill:#63adf2;stroke:#63adf2;stroke-width:3;" x="709.8225" xlink:href="#mb4b01b1d41" y="198.072507"/>
      </g>
     </g>
     <g id="text_18">
      <!-- 6.6 -->
      <g style="fill:#63adf2;" transform="translate(723.3225 206.050867)scale(0.21 -0.21)">
       <use xlink:href="#DejaVuSans-54"/>
       <use x="63.623047" xlink:href="#DejaVuSans-46"/>
       <use x="95.410156" xlink:href="#DejaVuSans-54"/>
      </g>
     </g>
    </g>
    <g id="ytick_14">
     <g id="line2d_22">
      <g>
       <use style="fill:#63adf2;stroke:#63adf2;stroke-width:3;" x="709.8225" xlink:href="#mb4b01b1d41" y="134.719581"/>
      </g>
     </g>
     <g id="text_19">
      <!-- 6.8 -->
      <g style="fill:#63adf2;" transform="translate(723.3225 142.697941)scale(0.21 -0.21)">
       <use xlink:href="#DejaVuSans-54"/>
       <use x="63.623047" xlink:href="#DejaVuSans-46"/>
       <use x="95.410156" xlink:href="#DejaVuSans-56"/>
      </g>
     </g>
    </g>
    <g id="ytick_15">
     <g id="line2d_23">
      <g>
       <use style="fill:#63adf2;stroke:#63adf2;stroke-width:3;" x="709.8225" xlink:href="#mb4b01b1d41" y="71.366655"/>
      </g>
     </g>
     <g id="text_20">
      <!-- 7.0 -->
      <g style="fill:#63adf2;" transform="translate(723.3225 79.345015)scale(0.21 -0.21)">
       <defs>
        <path d="M 8.203125 72.90625 
L 55.078125 72.90625 
L 55.078125 68.703125 
L 28.609375 0 
L 18.3125 0 
L 43.21875 64.59375 
L 8.203125 64.59375 
z
" id="DejaVuSans-55"/>
       </defs>
       <use xlink:href="#DejaVuSans-55"/>
       <use x="63.623047" xlink:href="#DejaVuSans-46"/>
       <use x="95.410156" xlink:href="#DejaVuSans-48"/>
      </g>
     </g>
    </g>
    <g id="ytick_16">
     <g id="line2d_24">
      <g>
       <use style="fill:#63adf2;stroke:#63adf2;stroke-width:3;" x="709.8225" xlink:href="#mb4b01b1d41" y="8.013729"/>
      </g>
     </g>
     <g id="text_21">
      <!-- 7.2 -->
      <g style="fill:#63adf2;" transform="translate(723.3225 15.992089)scale(0.21 -0.21)">
       <use xlink:href="#DejaVuSans-55"/>
       <use x="63.623047" xlink:href="#DejaVuSans-46"/>
       <use x="95.410156" xlink:href="#DejaVuSans-50"/>
      </g>
     </g>
    </g>
   </g>
   <g id="line2d_25">
    <path clip-path="url(#pafa7b78e19)" d="M 40.2225 71.366655 
L 226.455 71.546877 
L 243.8925 71.915874 
L 259.2375 72.455165 
L 273.1875 73.15932 
L 286.44 74.048735 
L 298.995 75.116187 
L 310.8525 76.347808 
L 322.0125 77.724223 
L 333.1725 79.32894 
L 343.635 81.056075 
L 354.0975 83.013295 
L 363.8625 85.060184 
L 373.6275 87.331484 
L 383.3925 89.838772 
L 392.46 92.388395 
L 401.5275 95.16075 
L 410.595 98.165107 
L 419.6625 101.410735 
L 428.73 104.906904 
L 437.1 108.364528 
L 445.47 112.050819 
L 453.84 115.973069 
L 462.21 120.138569 
L 470.58 124.554608 
L 478.95 129.228479 
L 487.32 134.167471 
L 495.69 139.378876 
L 504.06 144.869983 
L 512.43 150.648085 
L 520.8 156.720472 
L 528.4725 162.551574 
L 536.145 168.641699 
L 543.8175 174.996463 
L 551.49 181.621482 
L 559.1625 188.52237 
L 566.835 195.704745 
L 574.5075 203.174221 
L 582.18 210.936415 
L 589.8525 218.996942 
L 597.525 227.361417 
L 605.1975 236.035458 
L 612.87 245.024679 
L 620.5425 254.334696 
L 628.215 263.971125 
L 635.8875 273.939582 
L 643.56 284.245682 
L 651.2325 294.895041 
L 659.6025 306.910609 
L 667.9725 319.348657 
L 676.3425 332.216476 
L 684.7125 345.521358 
L 693.0825 359.270593 
L 701.4525 373.471472 
L 709.8225 388.131285 
L 709.8225 388.131285 
" style="fill:none;stroke:#63adf2;stroke-linecap:square;stroke-width:5;"/>
   </g>
  </g>
 </g>
 <defs>
  <clipPath id="pafa7b78e19">
   <rect height="443.52" width="669.6" x="40.2225" y="7.971285"/>
  </clipPath>
 </defs>
</svg>
