<?xml version="1.0" encoding="utf-8" standalone="no"?>
<!DOCTYPE svg PUBLIC "-//W3C//DTD SVG 1.1//EN"
  "http://www.w3.org/Graphics/SVG/1.1/DTD/svg11.dtd">
<!-- Created with matplotlib (https://matplotlib.org/) -->
<svg height="483.344062pt" version="1.1" viewBox="0 0 736.68375 483.344062" width="736.68375pt" xmlns="http://www.w3.org/2000/svg" xmlns:xlink="http://www.w3.org/1999/xlink">
 <metadata>
  <rdf:RDF xmlns:cc="http://creativecommons.org/ns#" xmlns:dc="http://purl.org/dc/elements/1.1/" xmlns:rdf="http://www.w3.org/1999/02/22-rdf-syntax-ns#">
   <cc:Work>
    <dc:type rdf:resource="http://purl.org/dc/dcmitype/StillImage"/>
    <dc:date>2022-02-15T22:04:04.619086</dc:date>
    <dc:format>image/svg+xml</dc:format>
    <dc:creator>
     <cc:Agent>
      <dc:title>Matplotlib v3.3.3, https://matplotlib.org/</dc:title>
     </cc:Agent>
    </dc:creator>
   </cc:Work>
  </rdf:RDF>
 </metadata>
 <defs>
  <style type="text/css">*{stroke-linecap:butt;stroke-linejoin:round;}</style>
 </defs>
 <g id="figure_1">
  <g id="patch_1">
   <path d="M 0 483.344062 
L 736.68375 483.344062 
L 736.68375 0 
L 0 0 
z
" style="fill:none;"/>
  </g>
  <g id="axes_1">
   <g id="patch_2">
    <path d="M 40.2225 443.52 
L 709.8225 443.52 
L 709.8225 -0 
L 40.2225 -0 
z
" style="fill:none;"/>
   </g>
   <g id="matplotlib.axis_1">
    <g id="xtick_1">
     <g id="line2d_1">
      <defs>
       <path d="M 0 0 
L 0 16 
" id="m94555c6dea" style="stroke:#55efc4;stroke-width:3;"/>
      </defs>
      <g>
       <use style="fill:#55efc4;stroke:#55efc4;stroke-width:3;" x="40.2225" xlink:href="#m94555c6dea" y="443.52"/>
      </g>
     </g>
     <g id="text_1">
      <!-- 18:00 -->
      <g style="fill:#55efc4;" transform="translate(9.962812 478.976719)scale(0.21 -0.21)">
       <defs>
        <path d="M 12.40625 8.296875 
L 28.515625 8.296875 
L 28.515625 63.921875 
L 10.984375 60.40625 
L 10.984375 69.390625 
L 28.421875 72.90625 
L 38.28125 72.90625 
L 38.28125 8.296875 
L 54.390625 8.296875 
L 54.390625 0 
L 12.40625 0 
z
" id="DejaVuSans-49"/>
        <path d="M 31.78125 34.625 
Q 24.75 34.625 20.71875 30.859375 
Q 16.703125 27.09375 16.703125 20.515625 
Q 16.703125 13.921875 20.71875 10.15625 
Q 24.75 6.390625 31.78125 6.390625 
Q 38.8125 6.390625 42.859375 10.171875 
Q 46.921875 13.96875 46.921875 20.515625 
Q 46.921875 27.09375 42.890625 30.859375 
Q 38.875 34.625 31.78125 34.625 
z
M 21.921875 38.8125 
Q 15.578125 40.375 12.03125 44.71875 
Q 8.5 49.078125 8.5 55.328125 
Q 8.5 64.0625 14.71875 69.140625 
Q 20.953125 74.21875 31.78125 74.21875 
Q 42.671875 74.21875 48.875 69.140625 
Q 55.078125 64.0625 55.078125 55.328125 
Q 55.078125 49.078125 51.53125 44.71875 
Q 48 40.375 41.703125 38.8125 
Q 48.828125 37.15625 52.796875 32.3125 
Q 56.78125 27.484375 56.78125 20.515625 
Q 56.78125 9.90625 50.3125 4.234375 
Q 43.84375 -1.421875 31.78125 -1.421875 
Q 19.734375 -1.421875 13.25 4.234375 
Q 6.78125 9.90625 6.78125 20.515625 
Q 6.78125 27.484375 10.78125 32.3125 
Q 14.796875 37.15625 21.921875 38.8125 
z
M 18.3125 54.390625 
Q 18.3125 48.734375 21.84375 45.5625 
Q 25.390625 42.390625 31.78125 42.390625 
Q 38.140625 42.390625 41.71875 45.5625 
Q 45.3125 48.734375 45.3125 54.390625 
Q 45.3125 60.0625 41.71875 63.234375 
Q 38.140625 66.40625 31.78125 66.40625 
Q 25.390625 66.40625 21.84375 63.234375 
Q 18.3125 60.0625 18.3125 54.390625 
z
" id="DejaVuSans-56"/>
        <path d="M 11.71875 12.40625 
L 22.015625 12.40625 
L 22.015625 0 
L 11.71875 0 
z
M 11.71875 51.703125 
L 22.015625 51.703125 
L 22.015625 39.3125 
L 11.71875 39.3125 
z
" id="DejaVuSans-58"/>
        <path d="M 31.78125 66.40625 
Q 24.171875 66.40625 20.328125 58.90625 
Q 16.5 51.421875 16.5 36.375 
Q 16.5 21.390625 20.328125 13.890625 
Q 24.171875 6.390625 31.78125 6.390625 
Q 39.453125 6.390625 43.28125 13.890625 
Q 47.125 21.390625 47.125 36.375 
Q 47.125 51.421875 43.28125 58.90625 
Q 39.453125 66.40625 31.78125 66.40625 
z
M 31.78125 74.21875 
Q 44.046875 74.21875 50.515625 64.515625 
Q 56.984375 54.828125 56.984375 36.375 
Q 56.984375 17.96875 50.515625 8.265625 
Q 44.046875 -1.421875 31.78125 -1.421875 
Q 19.53125 -1.421875 13.0625 8.265625 
Q 6.59375 17.96875 6.59375 36.375 
Q 6.59375 54.828125 13.0625 64.515625 
Q 19.53125 74.21875 31.78125 74.21875 
z
" id="DejaVuSans-48"/>
       </defs>
       <use xlink:href="#DejaVuSans-49"/>
       <use x="63.623047" xlink:href="#DejaVuSans-56"/>
       <use x="127.246094" xlink:href="#DejaVuSans-58"/>
       <use x="160.9375" xlink:href="#DejaVuSans-48"/>
       <use x="224.560547" xlink:href="#DejaVuSans-48"/>
      </g>
     </g>
    </g>
    <g id="xtick_2">
     <g id="line2d_2">
      <g>
       <use style="fill:#55efc4;stroke:#55efc4;stroke-width:3;" x="709.8225" xlink:href="#m94555c6dea" y="443.52"/>
      </g>
     </g>
    </g>
    <g id="xtick_3">
     <g id="line2d_3">
      <defs>
       <path d="M 0 0 
L 0 10 
" id="mb62d067d1d" style="stroke:#ffffff;stroke-width:3;"/>
      </defs>
      <g>
       <use style="fill:#ffffff;stroke:#ffffff;stroke-width:3;" x="204.878238" xlink:href="#mb62d067d1d" y="443.52"/>
      </g>
     </g>
     <g id="text_2">
      <!-- 19:00 -->
      <g style="fill:#ffffff;" transform="translate(174.61855 472.876719)scale(0.21 -0.21)">
       <defs>
        <path d="M 10.984375 1.515625 
L 10.984375 10.5 
Q 14.703125 8.734375 18.5 7.8125 
Q 22.3125 6.890625 25.984375 6.890625 
Q 35.75 6.890625 40.890625 13.453125 
Q 46.046875 20.015625 46.78125 33.40625 
Q 43.953125 29.203125 39.59375 26.953125 
Q 35.25 24.703125 29.984375 24.703125 
Q 19.046875 24.703125 12.671875 31.3125 
Q 6.296875 37.9375 6.296875 49.421875 
Q 6.296875 60.640625 12.9375 67.421875 
Q 19.578125 74.21875 30.609375 74.21875 
Q 43.265625 74.21875 49.921875 64.515625 
Q 56.59375 54.828125 56.59375 36.375 
Q 56.59375 19.140625 48.40625 8.859375 
Q 40.234375 -1.421875 26.421875 -1.421875 
Q 22.703125 -1.421875 18.890625 -0.6875 
Q 15.09375 0.046875 10.984375 1.515625 
z
M 30.609375 32.421875 
Q 37.25 32.421875 41.125 36.953125 
Q 45.015625 41.5 45.015625 49.421875 
Q 45.015625 57.28125 41.125 61.84375 
Q 37.25 66.40625 30.609375 66.40625 
Q 23.96875 66.40625 20.09375 61.84375 
Q 16.21875 57.28125 16.21875 49.421875 
Q 16.21875 41.5 20.09375 36.953125 
Q 23.96875 32.421875 30.609375 32.421875 
z
" id="DejaVuSans-57"/>
       </defs>
       <use xlink:href="#DejaVuSans-49"/>
       <use x="63.623047" xlink:href="#DejaVuSans-57"/>
       <use x="127.246094" xlink:href="#DejaVuSans-58"/>
       <use x="160.9375" xlink:href="#DejaVuSans-48"/>
       <use x="224.560547" xlink:href="#DejaVuSans-48"/>
      </g>
     </g>
    </g>
    <g id="xtick_4">
     <g id="line2d_4">
      <g>
       <use style="fill:#ffffff;stroke:#ffffff;stroke-width:3;" x="369.533975" xlink:href="#mb62d067d1d" y="443.52"/>
      </g>
     </g>
     <g id="text_3">
      <!-- 20:00 -->
      <g style="fill:#ffffff;" transform="translate(339.274288 472.876719)scale(0.21 -0.21)">
       <defs>
        <path d="M 19.1875 8.296875 
L 53.609375 8.296875 
L 53.609375 0 
L 7.328125 0 
L 7.328125 8.296875 
Q 12.9375 14.109375 22.625 23.890625 
Q 32.328125 33.6875 34.8125 36.53125 
Q 39.546875 41.84375 41.421875 45.53125 
Q 43.3125 49.21875 43.3125 52.78125 
Q 43.3125 58.59375 39.234375 62.25 
Q 35.15625 65.921875 28.609375 65.921875 
Q 23.96875 65.921875 18.8125 64.3125 
Q 13.671875 62.703125 7.8125 59.421875 
L 7.8125 69.390625 
Q 13.765625 71.78125 18.9375 73 
Q 24.125 74.21875 28.421875 74.21875 
Q 39.75 74.21875 46.484375 68.546875 
Q 53.21875 62.890625 53.21875 53.421875 
Q 53.21875 48.921875 51.53125 44.890625 
Q 49.859375 40.875 45.40625 35.40625 
Q 44.1875 33.984375 37.640625 27.21875 
Q 31.109375 20.453125 19.1875 8.296875 
z
" id="DejaVuSans-50"/>
       </defs>
       <use xlink:href="#DejaVuSans-50"/>
       <use x="63.623047" xlink:href="#DejaVuSans-48"/>
       <use x="127.246094" xlink:href="#DejaVuSans-58"/>
       <use x="160.9375" xlink:href="#DejaVuSans-48"/>
       <use x="224.560547" xlink:href="#DejaVuSans-48"/>
      </g>
     </g>
    </g>
    <g id="xtick_5">
     <g id="line2d_5">
      <g>
       <use style="fill:#ffffff;stroke:#ffffff;stroke-width:3;" x="534.189713" xlink:href="#mb62d067d1d" y="443.52"/>
      </g>
     </g>
     <g id="text_4">
      <!-- 21:00 -->
      <g style="fill:#ffffff;" transform="translate(503.930026 472.876719)scale(0.21 -0.21)">
       <use xlink:href="#DejaVuSans-50"/>
       <use x="63.623047" xlink:href="#DejaVuSans-49"/>
       <use x="127.246094" xlink:href="#DejaVuSans-58"/>
       <use x="160.9375" xlink:href="#DejaVuSans-48"/>
       <use x="224.560547" xlink:href="#DejaVuSans-48"/>
      </g>
     </g>
    </g>
    <g id="xtick_6">
     <g id="line2d_6">
      <g>
       <use style="fill:#ffffff;stroke:#ffffff;stroke-width:3;" x="698.845451" xlink:href="#mb62d067d1d" y="443.52"/>
      </g>
     </g>
     <g id="text_5">
      <!-- 22:00 -->
      <g style="fill:#ffffff;" transform="translate(668.585763 472.876719)scale(0.21 -0.21)">
       <use xlink:href="#DejaVuSans-50"/>
       <use x="63.623047" xlink:href="#DejaVuSans-50"/>
       <use x="127.246094" xlink:href="#DejaVuSans-58"/>
       <use x="160.9375" xlink:href="#DejaVuSans-48"/>
       <use x="224.560547" xlink:href="#DejaVuSans-48"/>
      </g>
     </g>
    </g>
   </g>
   <g id="matplotlib.axis_2">
    <g id="ytick_1">
     <g id="line2d_7">
      <defs>
       <path d="M 0 0 
L -10 0 
" id="ma2b08ea1d4" style="stroke:#dd7373;stroke-width:3;"/>
      </defs>
      <g>
       <use style="fill:#dd7373;stroke:#dd7373;stroke-width:3;" x="40.2225" xlink:href="#ma2b08ea1d4" y="352.953243"/>
      </g>
     </g>
     <g id="text_6">
      <!-- 10 -->
      <g style="fill:#dd7373;" transform="translate(-0 360.931602)scale(0.21 -0.21)">
       <use xlink:href="#DejaVuSans-49"/>
       <use x="63.623047" xlink:href="#DejaVuSans-48"/>
      </g>
     </g>
    </g>
    <g id="ytick_2">
     <g id="line2d_8">
      <g>
       <use style="fill:#dd7373;stroke:#dd7373;stroke-width:3;" x="40.2225" xlink:href="#ma2b08ea1d4" y="256.422162"/>
      </g>
     </g>
     <g id="text_7">
      <!-- 20 -->
      <g style="fill:#dd7373;" transform="translate(-0 264.400521)scale(0.21 -0.21)">
       <use xlink:href="#DejaVuSans-50"/>
       <use x="63.623047" xlink:href="#DejaVuSans-48"/>
      </g>
     </g>
    </g>
    <g id="ytick_3">
     <g id="line2d_9">
      <g>
       <use style="fill:#dd7373;stroke:#dd7373;stroke-width:3;" x="40.2225" xlink:href="#ma2b08ea1d4" y="159.891081"/>
      </g>
     </g>
     <g id="text_8">
      <!-- 30 -->
      <g style="fill:#dd7373;" transform="translate(-0 167.86944)scale(0.21 -0.21)">
       <defs>
        <path d="M 40.578125 39.3125 
Q 47.65625 37.796875 51.625 33 
Q 55.609375 28.21875 55.609375 21.1875 
Q 55.609375 10.40625 48.1875 4.484375 
Q 40.765625 -1.421875 27.09375 -1.421875 
Q 22.515625 -1.421875 17.65625 -0.515625 
Q 12.796875 0.390625 7.625 2.203125 
L 7.625 11.71875 
Q 11.71875 9.328125 16.59375 8.109375 
Q 21.484375 6.890625 26.8125 6.890625 
Q 36.078125 6.890625 40.9375 10.546875 
Q 45.796875 14.203125 45.796875 21.1875 
Q 45.796875 27.640625 41.28125 31.265625 
Q 36.765625 34.90625 28.71875 34.90625 
L 20.21875 34.90625 
L 20.21875 43.015625 
L 29.109375 43.015625 
Q 36.375 43.015625 40.234375 45.921875 
Q 44.09375 48.828125 44.09375 54.296875 
Q 44.09375 59.90625 40.109375 62.90625 
Q 36.140625 65.921875 28.71875 65.921875 
Q 24.65625 65.921875 20.015625 65.03125 
Q 15.375 64.15625 9.8125 62.3125 
L 9.8125 71.09375 
Q 15.4375 72.65625 20.34375 73.4375 
Q 25.25 74.21875 29.59375 74.21875 
Q 40.828125 74.21875 47.359375 69.109375 
Q 53.90625 64.015625 53.90625 55.328125 
Q 53.90625 49.265625 50.4375 45.09375 
Q 46.96875 40.921875 40.578125 39.3125 
z
" id="DejaVuSans-51"/>
       </defs>
       <use xlink:href="#DejaVuSans-51"/>
       <use x="63.623047" xlink:href="#DejaVuSans-48"/>
      </g>
     </g>
    </g>
    <g id="ytick_4">
     <g id="line2d_10">
      <g>
       <use style="fill:#dd7373;stroke:#dd7373;stroke-width:3;" x="40.2225" xlink:href="#ma2b08ea1d4" y="63.36"/>
      </g>
     </g>
     <g id="text_9">
      <!-- 40 -->
      <g style="fill:#dd7373;" transform="translate(-0 71.338359)scale(0.21 -0.21)">
       <defs>
        <path d="M 37.796875 64.3125 
L 12.890625 25.390625 
L 37.796875 25.390625 
z
M 35.203125 72.90625 
L 47.609375 72.90625 
L 47.609375 25.390625 
L 58.015625 25.390625 
L 58.015625 17.1875 
L 47.609375 17.1875 
L 47.609375 0 
L 37.796875 0 
L 37.796875 17.1875 
L 4.890625 17.1875 
L 4.890625 26.703125 
z
" id="DejaVuSans-52"/>
       </defs>
       <use xlink:href="#DejaVuSans-52"/>
       <use x="63.623047" xlink:href="#DejaVuSans-48"/>
      </g>
     </g>
    </g>
   </g>
   <g id="line2d_11">
    <path clip-path="url(#p3d00eeabe8)" d="M 40.2225 159.891081 
L 45.711025 156.736193 
L 51.199549 153.902142 
L 56.688074 151.377863 
L 62.176598 149.152293 
L 67.665123 147.21437 
L 73.153648 145.553029 
L 78.642172 144.157208 
L 84.130697 143.015843 
L 89.619221 142.117871 
L 95.107746 141.452228 
L 100.59627 141.007852 
L 106.084795 140.773679 
L 111.57332 140.738645 
L 117.061844 140.891687 
L 122.550369 141.221743 
L 128.038893 141.717748 
L 136.27168 142.74871 
L 144.504467 144.090828 
L 152.737254 145.706763 
L 160.970041 147.559176 
L 169.202828 149.610729 
L 180.179877 152.59137 
L 193.901189 156.586838 
L 229.576598 167.190792 
L 240.553648 170.171433 
L 248.786434 172.222985 
L 257.019221 174.075399 
L 265.252008 175.691334 
L 273.484795 177.033452 
L 281.717582 178.064414 
L 287.206107 178.560419 
L 292.694631 178.890475 
L 298.183156 179.043517 
L 303.67168 179.008483 
L 309.160205 178.77431 
L 314.64873 178.329933 
L 320.137254 177.664291 
L 325.625779 176.766319 
L 331.114303 175.624954 
L 336.602828 174.229133 
L 342.091352 172.567792 
L 347.579877 170.629869 
L 353.068402 168.404299 
L 358.556926 165.88002 
L 364.045451 163.045969 
L 369.533975 159.891081 
L 375.0225 156.415357 
L 380.511025 152.663051 
L 385.999549 148.689478 
L 394.232336 142.43525 
L 418.930697 123.299178 
L 424.419221 119.325605 
L 429.907746 115.573299 
L 435.39627 112.097575 
L 440.884795 108.953751 
L 446.37332 106.197142 
L 451.861844 103.883066 
L 454.606107 102.909264 
L 457.350369 102.066839 
L 460.094631 101.362706 
L 462.838893 100.803778 
L 465.583156 100.396971 
L 468.327418 100.149199 
L 471.07168 100.067376 
L 473.815943 100.158418 
L 476.560205 100.429239 
L 479.304467 100.886753 
L 482.048729 101.537875 
L 484.792992 102.389519 
L 487.537254 103.448601 
L 490.281516 104.722034 
L 493.025779 106.216734 
L 495.770041 107.939614 
L 498.514303 109.897589 
L 501.258566 112.097575 
L 504.002828 114.546485 
L 506.74709 117.251234 
L 509.491352 120.218737 
L 512.235615 123.455908 
L 514.979877 126.969662 
L 517.724139 130.766913 
L 520.468402 134.854576 
L 523.212664 139.239566 
L 525.956926 143.928797 
L 528.701189 148.929183 
L 531.445451 154.24764 
L 534.189713 159.891081 
L 536.933975 165.86089 
L 539.678238 172.136323 
L 545.166762 185.498959 
L 550.655287 199.768787 
L 556.143811 214.735604 
L 564.376598 238.032864 
L 580.842172 285.075447 
L 586.330697 300.118324 
L 591.819221 314.491871 
L 597.307746 327.985884 
L 600.052008 334.337377 
L 602.79627 340.390161 
L 605.540533 346.11796 
L 608.284795 351.494499 
L 611.029057 356.493502 
L 613.77332 361.088695 
L 616.517582 365.253801 
L 619.261844 368.962546 
L 622.006107 372.188654 
L 624.750369 374.905849 
L 627.494631 377.087857 
L 630.238893 378.708401 
L 632.983156 379.741208 
L 635.727418 380.16 
L 638.47168 379.938503 
L 641.215943 379.050442 
L 643.960205 377.469541 
L 646.704467 375.169525 
L 649.44873 372.124118 
L 652.192992 368.307045 
L 654.937254 363.69203 
L 657.681516 358.252799 
L 660.425779 351.963076 
L 663.170041 344.796586 
L 665.914303 336.727052 
L 668.658566 327.728201 
L 671.402828 317.773756 
L 674.14709 306.837442 
L 676.891352 294.892984 
L 679.635615 281.914106 
L 682.379877 267.874533 
L 685.124139 252.74799 
L 687.868402 236.508201 
L 690.612664 219.128891 
L 693.356926 200.583785 
L 696.101189 180.846606 
L 698.845451 159.891081 
L 701.589713 137.690933 
L 704.333975 114.219887 
L 707.078238 89.451668 
L 709.8225 63.36 
L 709.8225 63.36 
" style="fill:none;stroke:#dd7373;stroke-linecap:square;stroke-width:5;"/>
   </g>
  </g>
  <g id="axes_2">
   <g id="matplotlib.axis_3">
    <g id="ytick_5">
     <g id="line2d_12">
      <defs>
       <path d="M 0 0 
L 10 0 
" id="m414c37da9b" style="stroke:#63adf2;stroke-width:3;"/>
      </defs>
      <g>
       <use style="fill:#63adf2;stroke:#63adf2;stroke-width:3;" x="709.8225" xlink:href="#m414c37da9b" y="380.16"/>
      </g>
     </g>
     <g id="text_10">
      <!-- 6 -->
      <g style="fill:#63adf2;" transform="translate(723.3225 388.138359)scale(0.21 -0.21)">
       <defs>
        <path d="M 33.015625 40.375 
Q 26.375 40.375 22.484375 35.828125 
Q 18.609375 31.296875 18.609375 23.390625 
Q 18.609375 15.53125 22.484375 10.953125 
Q 26.375 6.390625 33.015625 6.390625 
Q 39.65625 6.390625 43.53125 10.953125 
Q 47.40625 15.53125 47.40625 23.390625 
Q 47.40625 31.296875 43.53125 35.828125 
Q 39.65625 40.375 33.015625 40.375 
z
M 52.59375 71.296875 
L 52.59375 62.3125 
Q 48.875 64.0625 45.09375 64.984375 
Q 41.3125 65.921875 37.59375 65.921875 
Q 27.828125 65.921875 22.671875 59.328125 
Q 17.53125 52.734375 16.796875 39.40625 
Q 19.671875 43.65625 24.015625 45.921875 
Q 28.375 48.1875 33.59375 48.1875 
Q 44.578125 48.1875 50.953125 41.515625 
Q 57.328125 34.859375 57.328125 23.390625 
Q 57.328125 12.15625 50.6875 5.359375 
Q 44.046875 -1.421875 33.015625 -1.421875 
Q 20.359375 -1.421875 13.671875 8.265625 
Q 6.984375 17.96875 6.984375 36.375 
Q 6.984375 53.65625 15.1875 63.9375 
Q 23.390625 74.21875 37.203125 74.21875 
Q 40.921875 74.21875 44.703125 73.484375 
Q 48.484375 72.75 52.59375 71.296875 
z
" id="DejaVuSans-54"/>
       </defs>
       <use xlink:href="#DejaVuSans-54"/>
      </g>
     </g>
    </g>
    <g id="ytick_6">
     <g id="line2d_13">
      <g>
       <use style="fill:#63adf2;stroke:#63adf2;stroke-width:3;" x="709.8225" xlink:href="#m414c37da9b" y="283.628919"/>
      </g>
     </g>
     <g id="text_11">
      <!-- 7 -->
      <g style="fill:#63adf2;" transform="translate(723.3225 291.607279)scale(0.21 -0.21)">
       <defs>
        <path d="M 8.203125 72.90625 
L 55.078125 72.90625 
L 55.078125 68.703125 
L 28.609375 0 
L 18.3125 0 
L 43.21875 64.59375 
L 8.203125 64.59375 
z
" id="DejaVuSans-55"/>
       </defs>
       <use xlink:href="#DejaVuSans-55"/>
      </g>
     </g>
    </g>
    <g id="ytick_7">
     <g id="line2d_14">
      <g>
       <use style="fill:#63adf2;stroke:#63adf2;stroke-width:3;" x="709.8225" xlink:href="#m414c37da9b" y="187.097838"/>
      </g>
     </g>
     <g id="text_12">
      <!-- 8 -->
      <g style="fill:#63adf2;" transform="translate(723.3225 195.076198)scale(0.21 -0.21)">
       <use xlink:href="#DejaVuSans-56"/>
      </g>
     </g>
    </g>
    <g id="ytick_8">
     <g id="line2d_15">
      <g>
       <use style="fill:#63adf2;stroke:#63adf2;stroke-width:3;" x="709.8225" xlink:href="#m414c37da9b" y="90.566757"/>
      </g>
     </g>
     <g id="text_13">
      <!-- 9 -->
      <g style="fill:#63adf2;" transform="translate(723.3225 98.545117)scale(0.21 -0.21)">
       <use xlink:href="#DejaVuSans-57"/>
      </g>
     </g>
    </g>
   </g>
   <g id="line2d_16">
    <path clip-path="url(#p3d00eeabe8)" d="M 40.2225 283.628919 
L 45.711025 286.783807 
L 51.199549 289.617858 
L 56.688074 292.142137 
L 62.176598 294.367707 
L 67.665123 296.30563 
L 73.153648 297.966971 
L 78.642172 299.362792 
L 84.130697 300.504157 
L 89.619221 301.402129 
L 95.107746 302.067772 
L 100.59627 302.512148 
L 106.084795 302.746321 
L 111.57332 302.781355 
L 117.061844 302.628313 
L 122.550369 302.298257 
L 128.038893 301.802252 
L 136.27168 300.77129 
L 144.504467 299.429172 
L 152.737254 297.813237 
L 160.970041 295.960824 
L 169.202828 293.909271 
L 180.179877 290.92863 
L 193.901189 286.933162 
L 229.576598 276.329208 
L 240.553648 273.348567 
L 248.786434 271.297015 
L 257.019221 269.444601 
L 265.252008 267.828666 
L 273.484795 266.486548 
L 281.717582 265.455586 
L 287.206107 264.959581 
L 292.694631 264.629525 
L 298.183156 264.476483 
L 303.67168 264.511517 
L 309.160205 264.74569 
L 314.64873 265.190067 
L 320.137254 265.855709 
L 325.625779 266.753681 
L 331.114303 267.895046 
L 336.602828 269.290867 
L 342.091352 270.952208 
L 347.579877 272.890131 
L 353.068402 275.115701 
L 358.556926 277.63998 
L 364.045451 280.474031 
L 369.533975 283.628919 
L 375.0225 287.104643 
L 380.511025 290.856949 
L 385.999549 294.830522 
L 394.232336 301.08475 
L 418.930697 320.220822 
L 424.419221 324.194395 
L 429.907746 327.946701 
L 435.39627 331.422425 
L 440.884795 334.566249 
L 446.37332 337.322858 
L 451.861844 339.636934 
L 454.606107 340.610736 
L 457.350369 341.453161 
L 460.094631 342.157294 
L 462.838893 342.716222 
L 465.583156 343.123029 
L 468.327418 343.370801 
L 471.07168 343.452624 
L 473.815943 343.361582 
L 476.560205 343.090761 
L 479.304467 342.633247 
L 482.048729 341.982125 
L 484.792992 341.130481 
L 487.537254 340.071399 
L 490.281516 338.797966 
L 493.025779 337.303266 
L 495.770041 335.580386 
L 498.514303 333.622411 
L 501.258566 331.422425 
L 504.002828 328.973515 
L 506.74709 326.268766 
L 509.491352 323.301263 
L 512.235615 320.064092 
L 514.979877 316.550338 
L 517.724139 312.753087 
L 520.468402 308.665424 
L 523.212664 304.280434 
L 525.956926 299.591203 
L 528.701189 294.590817 
L 531.445451 289.27236 
L 534.189713 283.628919 
L 536.933975 277.65911 
L 539.678238 271.383677 
L 545.166762 258.021041 
L 550.655287 243.751213 
L 556.143811 228.784396 
L 564.376598 205.487136 
L 580.842172 158.444553 
L 586.330697 143.401676 
L 591.819221 129.028129 
L 597.307746 115.534116 
L 600.052008 109.182623 
L 602.79627 103.129839 
L 605.540533 97.40204 
L 608.284795 92.025501 
L 611.029057 87.026498 
L 613.77332 82.431305 
L 616.517582 78.266199 
L 619.261844 74.557454 
L 622.006107 71.331346 
L 624.750369 68.614151 
L 627.494631 66.432143 
L 630.238893 64.811599 
L 632.983156 63.778792 
L 635.727418 63.36 
L 638.47168 63.581497 
L 641.215943 64.469558 
L 643.960205 66.050459 
L 646.704467 68.350475 
L 649.44873 71.395882 
L 652.192992 75.212955 
L 654.937254 79.82797 
L 657.681516 85.267201 
L 660.425779 91.556924 
L 663.170041 98.723414 
L 665.914303 106.792948 
L 668.658566 115.791799 
L 671.402828 125.746244 
L 674.14709 136.682558 
L 676.891352 148.627016 
L 679.635615 161.605894 
L 682.379877 175.645467 
L 685.124139 190.77201 
L 687.868402 207.011799 
L 690.612664 224.391109 
L 693.356926 242.936215 
L 696.101189 262.673394 
L 698.845451 283.628919 
L 701.589713 305.829067 
L 704.333975 329.300113 
L 707.078238 354.068332 
L 709.8225 380.16 
L 709.8225 380.16 
" style="fill:none;stroke:#63adf2;stroke-linecap:square;stroke-width:5;"/>
   </g>
  </g>
 </g>
 <defs>
  <clipPath id="p3d00eeabe8">
   <rect height="443.52" width="669.6" x="40.2225" y="-0"/>
  </clipPath>
 </defs>
</svg>
