<?xml version="1.0" encoding="utf-8" standalone="no"?>
<!DOCTYPE svg PUBLIC "-//W3C//DTD SVG 1.1//EN"
  "http://www.w3.org/Graphics/SVG/1.1/DTD/svg11.dtd">
<!-- Created with matplotlib (https://matplotlib.org/) -->
<svg height="266.112pt" version="1.1" viewBox="0 0 357.12 266.112" width="357.12pt" xmlns="http://www.w3.org/2000/svg" xmlns:xlink="http://www.w3.org/1999/xlink">
 <metadata>
  <rdf:RDF xmlns:cc="http://creativecommons.org/ns#" xmlns:dc="http://purl.org/dc/elements/1.1/" xmlns:rdf="http://www.w3.org/1999/02/22-rdf-syntax-ns#">
   <cc:Work>
    <dc:type rdf:resource="http://purl.org/dc/dcmitype/StillImage"/>
    <dc:date>2021-05-29T00:00:00.346350</dc:date>
    <dc:format>image/svg+xml</dc:format>
    <dc:creator>
     <cc:Agent>
      <dc:title>Matplotlib v3.3.3, https://matplotlib.org/</dc:title>
     </cc:Agent>
    </dc:creator>
   </cc:Work>
  </rdf:RDF>
 </metadata>
 <defs>
  <style type="text/css">*{stroke-linecap:butt;stroke-linejoin:round;}</style>
 </defs>
 <g id="figure_1">
  <g id="patch_1">
   <path d="M 0 266.112 
L 357.12 266.112 
L 357.12 0 
L 0 0 
z
" style="fill:none;"/>
  </g>
  <g id="axes_1">
   <g id="matplotlib.axis_1">
    <g id="xtick_1"/>
    <g id="xtick_2"/>
    <g id="xtick_3"/>
    <g id="xtick_4"/>
    <g id="xtick_5"/>
    <g id="xtick_6"/>
   </g>
   <g id="matplotlib.axis_2">
    <g id="ytick_1"/>
    <g id="ytick_2"/>
    <g id="ytick_3"/>
    <g id="ytick_4"/>
    <g id="ytick_5"/>
   </g>
   <g id="line2d_1">
    <path clip-path="url(#p3520a2da83)" d="M 16.232727 254.016 
L 22.85833 248.868766 
L 29.483933 243.721532 
L 36.109536 238.574298 
L 42.735139 233.427064 
L 49.360742 228.27983 
L 55.986345 223.132596 
L 62.611948 217.985362 
L 69.237551 212.838128 
L 75.863154 207.690894 
L 82.488757 202.54366 
L 89.11436 197.396426 
L 95.739963 192.249191 
L 102.365566 187.101957 
L 108.991169 181.954723 
L 115.616772 176.807489 
L 122.242375 171.660255 
L 128.867978 166.513021 
L 135.493581 161.365787 
L 142.119184 156.218553 
L 148.744787 151.071319 
L 155.37039 145.924085 
L 161.995993 140.776851 
L 168.621596 135.629617 
L 175.247199 130.482383 
L 181.872801 125.335149 
L 188.498404 120.187915 
L 195.124007 115.040681 
L 201.74961 109.893447 
L 208.375213 104.746213 
L 215.000816 99.598979 
L 221.626419 94.451745 
L 228.252022 89.304511 
L 234.877625 84.157277 
L 241.503228 79.010043 
L 248.128831 73.862809 
L 254.754434 68.715574 
L 261.380037 63.56834 
L 268.00564 58.421106 
L 274.631243 53.273872 
L 281.256846 48.126638 
L 287.882449 42.979404 
L 294.508052 37.83217 
L 301.133655 32.684936 
L 307.759258 27.537702 
L 314.384861 22.390468 
L 321.010464 17.243234 
L 327.636067 12.096 
L 334.26167 125.335149 
" style="fill:none;stroke:#00b894;stroke-dasharray:3.7,1.6;stroke-dashoffset:0;"/>
    <defs>
     <path d="M 0 15 
C 3.978047 15 7.793698 13.419505 10.606602 10.606602 
C 13.419505 7.793698 15 3.978047 15 0 
C 15 -3.978047 13.419505 -7.793698 10.606602 -10.606602 
C 7.793698 -13.419505 3.978047 -15 0 -15 
C -3.978047 -15 -7.793698 -13.419505 -10.606602 -10.606602 
C -13.419505 -7.793698 -15 -3.978047 -15 0 
C -15 3.978047 -13.419505 7.793698 -10.606602 10.606602 
C -7.793698 13.419505 -3.978047 15 0 15 
z
" id="m4a6b39a15a"/>
    </defs>
    <g clip-path="url(#p3520a2da83)">
     <use style="fill:#55efc4;" x="16.232727" xlink:href="#m4a6b39a15a" y="254.016"/>
     <use style="fill:#55efc4;" x="49.360742" xlink:href="#m4a6b39a15a" y="228.27983"/>
     <use style="fill:#55efc4;" x="82.488757" xlink:href="#m4a6b39a15a" y="202.54366"/>
     <use style="fill:#55efc4;" x="115.616772" xlink:href="#m4a6b39a15a" y="176.807489"/>
     <use style="fill:#55efc4;" x="148.744787" xlink:href="#m4a6b39a15a" y="151.071319"/>
     <use style="fill:#55efc4;" x="181.872801" xlink:href="#m4a6b39a15a" y="125.335149"/>
     <use style="fill:#55efc4;" x="215.000816" xlink:href="#m4a6b39a15a" y="99.598979"/>
     <use style="fill:#55efc4;" x="248.128831" xlink:href="#m4a6b39a15a" y="73.862809"/>
     <use style="fill:#55efc4;" x="281.256846" xlink:href="#m4a6b39a15a" y="48.126638"/>
     <use style="fill:#55efc4;" x="314.384861" xlink:href="#m4a6b39a15a" y="22.390468"/>
    </g>
   </g>
   <g id="line2d_2">
    <path clip-path="url(#p3520a2da83)" d="M 16.232727 254.016 
L 22.85833 248.868766 
L 29.483933 243.721532 
L 36.109536 238.574298 
L 42.735139 233.427064 
L 49.360742 228.27983 
L 55.986345 223.132596 
L 62.611948 217.985362 
L 69.237551 212.838128 
L 75.863154 207.690894 
L 82.488757 202.54366 
L 89.11436 197.396426 
L 95.739963 192.249191 
L 102.365566 187.101957 
L 108.991169 181.954723 
L 115.616772 176.807489 
L 122.242375 171.660255 
L 128.867978 166.513021 
L 135.493581 161.365787 
L 142.119184 156.218553 
L 148.744787 151.071319 
L 155.37039 145.924085 
L 161.995993 140.776851 
L 168.621596 135.629617 
L 175.247199 130.482383 
L 181.872801 125.335149 
L 188.498404 120.187915 
L 195.124007 115.040681 
L 201.74961 109.893447 
L 208.375213 104.746213 
L 215.000816 99.598979 
L 221.626419 94.451745 
L 228.252022 89.304511 
L 234.877625 84.157277 
L 241.503228 79.010043 
L 248.128831 73.862809 
L 254.754434 68.715574 
L 261.380037 63.56834 
L 268.00564 58.421106 
L 274.631243 53.273872 
L 281.256846 48.126638 
L 287.882449 42.979404 
L 294.508052 37.83217 
L 301.133655 32.684936 
L 307.759258 27.537702 
L 314.384861 22.390468 
L 321.010464 17.243234 
L 327.636067 12.096 
L 334.26167 125.335149 
L 340.887273 125.335149 
" style="fill:none;stroke:#00b894;stroke-dasharray:3.7,1.6;stroke-dashoffset:0;"/>
    <g clip-path="url(#p3520a2da83)">
     <use style="fill:#55efc4;" x="16.232727" xlink:href="#m4a6b39a15a" y="254.016"/>
     <use style="fill:#55efc4;" x="49.360742" xlink:href="#m4a6b39a15a" y="228.27983"/>
     <use style="fill:#55efc4;" x="82.488757" xlink:href="#m4a6b39a15a" y="202.54366"/>
     <use style="fill:#55efc4;" x="115.616772" xlink:href="#m4a6b39a15a" y="176.807489"/>
     <use style="fill:#55efc4;" x="148.744787" xlink:href="#m4a6b39a15a" y="151.071319"/>
     <use style="fill:#55efc4;" x="181.872801" xlink:href="#m4a6b39a15a" y="125.335149"/>
     <use style="fill:#55efc4;" x="215.000816" xlink:href="#m4a6b39a15a" y="99.598979"/>
     <use style="fill:#55efc4;" x="248.128831" xlink:href="#m4a6b39a15a" y="73.862809"/>
     <use style="fill:#55efc4;" x="281.256846" xlink:href="#m4a6b39a15a" y="48.126638"/>
     <use style="fill:#55efc4;" x="314.384861" xlink:href="#m4a6b39a15a" y="22.390468"/>
    </g>
   </g>
   <g id="text_1">
    <!-- 0 -->
    <g style="fill:#ffffff;" transform="translate(4.232727 258.016)scale(0.1 -0.1)">
     <defs>
      <path d="M 46 36.53125 
Q 46 50.203125 43.4375 55.78125 
Q 40.875 61.375 34.8125 61.375 
Q 28.765625 61.375 26.171875 55.78125 
Q 23.578125 50.203125 23.578125 36.53125 
Q 23.578125 22.703125 26.171875 17.03125 
Q 28.765625 11.375 34.8125 11.375 
Q 40.828125 11.375 43.40625 17.03125 
Q 46 22.703125 46 36.53125 
z
M 64.796875 36.375 
Q 64.796875 18.265625 56.984375 8.421875 
Q 49.171875 -1.421875 34.8125 -1.421875 
Q 20.40625 -1.421875 12.59375 8.421875 
Q 4.78125 18.265625 4.78125 36.375 
Q 4.78125 54.546875 12.59375 64.375 
Q 20.40625 74.21875 34.8125 74.21875 
Q 49.171875 74.21875 56.984375 64.375 
Q 64.796875 54.546875 64.796875 36.375 
z
" id="DejaVuSans-Bold-48"/>
     </defs>
     <use xlink:href="#DejaVuSans-Bold-48"/>
    </g>
   </g>
   <g id="text_2">
    <!-- 5 -->
    <g style="fill:#ffffff;" transform="translate(37.360742 232.27983)scale(0.1 -0.1)">
     <defs>
      <path d="M 10.59375 72.90625 
L 57.328125 72.90625 
L 57.328125 59.078125 
L 25.59375 59.078125 
L 25.59375 47.796875 
Q 27.734375 48.390625 29.90625 48.703125 
Q 32.078125 49.03125 34.421875 49.03125 
Q 47.75 49.03125 55.171875 42.359375 
Q 62.59375 35.6875 62.59375 23.78125 
Q 62.59375 11.96875 54.515625 5.265625 
Q 46.4375 -1.421875 32.078125 -1.421875 
Q 25.875 -1.421875 19.796875 -0.21875 
Q 13.71875 0.984375 7.71875 3.421875 
L 7.71875 18.21875 
Q 13.671875 14.796875 19.015625 13.078125 
Q 24.359375 11.375 29.109375 11.375 
Q 35.9375 11.375 39.859375 14.71875 
Q 43.796875 18.0625 43.796875 23.78125 
Q 43.796875 29.546875 39.859375 32.859375 
Q 35.9375 36.1875 29.109375 36.1875 
Q 25.046875 36.1875 20.453125 35.125 
Q 15.875 34.078125 10.59375 31.890625 
z
" id="DejaVuSans-Bold-53"/>
     </defs>
     <use xlink:href="#DejaVuSans-Bold-53"/>
    </g>
   </g>
   <g id="text_3">
    <!-- 10 -->
    <g style="fill:#ffffff;" transform="translate(70.488757 206.54366)scale(0.1 -0.1)">
     <defs>
      <path d="M 11.71875 12.984375 
L 28.328125 12.984375 
L 28.328125 60.109375 
L 11.28125 56.59375 
L 11.28125 69.390625 
L 28.21875 72.90625 
L 46.09375 72.90625 
L 46.09375 12.984375 
L 62.703125 12.984375 
L 62.703125 0 
L 11.71875 0 
z
" id="DejaVuSans-Bold-49"/>
     </defs>
     <use xlink:href="#DejaVuSans-Bold-49"/>
     <use x="69.580078" xlink:href="#DejaVuSans-Bold-48"/>
    </g>
   </g>
   <g id="text_4">
    <!-- 15 -->
    <g style="fill:#ffffff;" transform="translate(103.616772 180.807489)scale(0.1 -0.1)">
     <use xlink:href="#DejaVuSans-Bold-49"/>
     <use x="69.580078" xlink:href="#DejaVuSans-Bold-53"/>
    </g>
   </g>
   <g id="text_5">
    <!-- 20 -->
    <g style="fill:#ffffff;" transform="translate(136.744787 155.071319)scale(0.1 -0.1)">
     <defs>
      <path d="M 28.8125 13.8125 
L 60.890625 13.8125 
L 60.890625 0 
L 7.90625 0 
L 7.90625 13.8125 
L 34.515625 37.3125 
Q 38.09375 40.53125 39.796875 43.609375 
Q 41.5 46.6875 41.5 50 
Q 41.5 55.125 38.0625 58.25 
Q 34.625 61.375 28.90625 61.375 
Q 24.515625 61.375 19.28125 59.5 
Q 14.0625 57.625 8.109375 53.90625 
L 8.109375 69.921875 
Q 14.453125 72.015625 20.65625 73.109375 
Q 26.859375 74.21875 32.8125 74.21875 
Q 45.90625 74.21875 53.15625 68.453125 
Q 60.40625 62.703125 60.40625 52.390625 
Q 60.40625 46.4375 57.328125 41.28125 
Q 54.25 36.140625 44.390625 27.484375 
z
" id="DejaVuSans-Bold-50"/>
     </defs>
     <use xlink:href="#DejaVuSans-Bold-50"/>
     <use x="69.580078" xlink:href="#DejaVuSans-Bold-48"/>
    </g>
   </g>
   <g id="text_6">
    <!-- 25 -->
    <g style="fill:#ffffff;" transform="translate(169.872801 129.335149)scale(0.1 -0.1)">
     <use xlink:href="#DejaVuSans-Bold-50"/>
     <use x="69.580078" xlink:href="#DejaVuSans-Bold-53"/>
    </g>
   </g>
   <g id="text_7">
    <!-- 30 -->
    <g style="fill:#ffffff;" transform="translate(203.000816 103.598979)scale(0.1 -0.1)">
     <defs>
      <path d="M 46.578125 39.3125 
Q 53.953125 37.40625 57.78125 32.6875 
Q 61.625 27.984375 61.625 20.703125 
Q 61.625 9.859375 53.3125 4.21875 
Q 45.015625 -1.421875 29.109375 -1.421875 
Q 23.484375 -1.421875 17.84375 -0.515625 
Q 12.203125 0.390625 6.6875 2.203125 
L 6.6875 16.703125 
Q 11.96875 14.0625 17.15625 12.71875 
Q 22.359375 11.375 27.390625 11.375 
Q 34.859375 11.375 38.84375 13.953125 
Q 42.828125 16.546875 42.828125 21.390625 
Q 42.828125 26.375 38.75 28.9375 
Q 34.671875 31.5 26.703125 31.5 
L 19.1875 31.5 
L 19.1875 43.609375 
L 27.09375 43.609375 
Q 34.1875 43.609375 37.640625 45.828125 
Q 41.109375 48.046875 41.109375 52.59375 
Q 41.109375 56.78125 37.734375 59.078125 
Q 34.375 61.375 28.21875 61.375 
Q 23.6875 61.375 19.046875 60.34375 
Q 14.40625 59.328125 9.8125 57.328125 
L 9.8125 71.09375 
Q 15.375 72.65625 20.84375 73.4375 
Q 26.3125 74.21875 31.59375 74.21875 
Q 45.796875 74.21875 52.84375 69.546875 
Q 59.90625 64.890625 59.90625 55.515625 
Q 59.90625 49.125 56.53125 45.046875 
Q 53.171875 40.96875 46.578125 39.3125 
z
" id="DejaVuSans-Bold-51"/>
     </defs>
     <use xlink:href="#DejaVuSans-Bold-51"/>
     <use x="69.580078" xlink:href="#DejaVuSans-Bold-48"/>
    </g>
   </g>
   <g id="text_8">
    <!-- 35 -->
    <g style="fill:#ffffff;" transform="translate(236.128831 77.862809)scale(0.1 -0.1)">
     <use xlink:href="#DejaVuSans-Bold-51"/>
     <use x="69.580078" xlink:href="#DejaVuSans-Bold-53"/>
    </g>
   </g>
   <g id="text_9">
    <!-- 40 -->
    <g style="fill:#ffffff;" transform="translate(269.256846 52.126638)scale(0.1 -0.1)">
     <defs>
      <path d="M 36.8125 57.421875 
L 16.21875 26.90625 
L 36.8125 26.90625 
z
M 33.6875 72.90625 
L 54.59375 72.90625 
L 54.59375 26.90625 
L 64.984375 26.90625 
L 64.984375 13.28125 
L 54.59375 13.28125 
L 54.59375 0 
L 36.8125 0 
L 36.8125 13.28125 
L 4.5 13.28125 
L 4.5 29.390625 
z
" id="DejaVuSans-Bold-52"/>
     </defs>
     <use xlink:href="#DejaVuSans-Bold-52"/>
     <use x="69.580078" xlink:href="#DejaVuSans-Bold-48"/>
    </g>
   </g>
   <g id="text_10">
    <!-- 45 -->
    <g style="fill:#ffffff;" transform="translate(302.384861 26.390468)scale(0.1 -0.1)">
     <use xlink:href="#DejaVuSans-Bold-52"/>
     <use x="69.580078" xlink:href="#DejaVuSans-Bold-53"/>
    </g>
   </g>
   <g id="text_11">
    <!-- 0 -->
    <g style="fill:#ffffff;" transform="translate(4.232727 258.016)scale(0.1 -0.1)">
     <use xlink:href="#DejaVuSans-Bold-48"/>
    </g>
   </g>
   <g id="text_12">
    <!-- 5 -->
    <g style="fill:#ffffff;" transform="translate(37.360742 232.27983)scale(0.1 -0.1)">
     <use xlink:href="#DejaVuSans-Bold-53"/>
    </g>
   </g>
   <g id="text_13">
    <!-- 10 -->
    <g style="fill:#ffffff;" transform="translate(70.488757 206.54366)scale(0.1 -0.1)">
     <use xlink:href="#DejaVuSans-Bold-49"/>
     <use x="69.580078" xlink:href="#DejaVuSans-Bold-48"/>
    </g>
   </g>
   <g id="text_14">
    <!-- 15 -->
    <g style="fill:#ffffff;" transform="translate(103.616772 180.807489)scale(0.1 -0.1)">
     <use xlink:href="#DejaVuSans-Bold-49"/>
     <use x="69.580078" xlink:href="#DejaVuSans-Bold-53"/>
    </g>
   </g>
   <g id="text_15">
    <!-- 20 -->
    <g style="fill:#ffffff;" transform="translate(136.744787 155.071319)scale(0.1 -0.1)">
     <use xlink:href="#DejaVuSans-Bold-50"/>
     <use x="69.580078" xlink:href="#DejaVuSans-Bold-48"/>
    </g>
   </g>
   <g id="text_16">
    <!-- 25 -->
    <g style="fill:#ffffff;" transform="translate(169.872801 129.335149)scale(0.1 -0.1)">
     <use xlink:href="#DejaVuSans-Bold-50"/>
     <use x="69.580078" xlink:href="#DejaVuSans-Bold-53"/>
    </g>
   </g>
   <g id="text_17">
    <!-- 30 -->
    <g style="fill:#ffffff;" transform="translate(203.000816 103.598979)scale(0.1 -0.1)">
     <use xlink:href="#DejaVuSans-Bold-51"/>
     <use x="69.580078" xlink:href="#DejaVuSans-Bold-48"/>
    </g>
   </g>
   <g id="text_18">
    <!-- 35 -->
    <g style="fill:#ffffff;" transform="translate(236.128831 77.862809)scale(0.1 -0.1)">
     <use xlink:href="#DejaVuSans-Bold-51"/>
     <use x="69.580078" xlink:href="#DejaVuSans-Bold-53"/>
    </g>
   </g>
   <g id="text_19">
    <!-- 40 -->
    <g style="fill:#ffffff;" transform="translate(269.256846 52.126638)scale(0.1 -0.1)">
     <use xlink:href="#DejaVuSans-Bold-52"/>
     <use x="69.580078" xlink:href="#DejaVuSans-Bold-48"/>
    </g>
   </g>
   <g id="text_20">
    <!-- 45 -->
    <g style="fill:#ffffff;" transform="translate(302.384861 26.390468)scale(0.1 -0.1)">
     <use xlink:href="#DejaVuSans-Bold-52"/>
     <use x="69.580078" xlink:href="#DejaVuSans-Bold-53"/>
    </g>
   </g>
  </g>
 </g>
 <defs>
  <clipPath id="p3520a2da83">
   <rect height="266.112" width="357.12" x="0" y="-0"/>
  </clipPath>
 </defs>
</svg>
