<?xml version="1.0" encoding="utf-8" standalone="no"?>
<!DOCTYPE svg PUBLIC "-//W3C//DTD SVG 1.1//EN"
  "http://www.w3.org/Graphics/SVG/1.1/DTD/svg11.dtd">
<!-- Created with matplotlib (https://matplotlib.org/) -->
<svg height="345.6pt" version="1.1" viewBox="0 0 460.8 345.6" width="460.8pt" xmlns="http://www.w3.org/2000/svg" xmlns:xlink="http://www.w3.org/1999/xlink">
 <metadata>
  <rdf:RDF xmlns:cc="http://creativecommons.org/ns#" xmlns:dc="http://purl.org/dc/elements/1.1/" xmlns:rdf="http://www.w3.org/1999/02/22-rdf-syntax-ns#">
   <cc:Work>
    <dc:type rdf:resource="http://purl.org/dc/dcmitype/StillImage"/>
    <dc:date>2021-05-24T10:00:03.145517</dc:date>
    <dc:format>image/svg+xml</dc:format>
    <dc:creator>
     <cc:Agent>
      <dc:title>Matplotlib v3.3.3, https://matplotlib.org/</dc:title>
     </cc:Agent>
    </dc:creator>
   </cc:Work>
  </rdf:RDF>
 </metadata>
 <defs>
  <style type="text/css">*{stroke-linecap:butt;stroke-linejoin:round;}</style>
 </defs>
 <g id="figure_1">
  <g id="patch_1">
   <path d="M 0 345.6 
L 460.8 345.6 
L 460.8 0 
L 0 0 
z
" style="fill:none;"/>
  </g>
  <g id="axes_1">
   <g id="patch_2">
    <path d="M 57.6 307.584 
L 414.72 307.584 
L 414.72 41.472 
L 57.6 41.472 
z
" style="fill:none;"/>
   </g>
   <g id="matplotlib.axis_1">
    <g id="xtick_1">
     <g id="line2d_1">
      <path clip-path="url(#p7b9d641f58)" d="M 73.832727 307.584 
L 73.832727 41.472 
" style="fill:none;stroke:#d3d3d3;stroke-linecap:square;stroke-width:0.8;"/>
     </g>
    </g>
    <g id="xtick_2">
     <g id="line2d_2">
      <path clip-path="url(#p7b9d641f58)" d="M 118.305953 307.584 
L 118.305953 41.472 
" style="fill:none;stroke:#d3d3d3;stroke-linecap:square;stroke-width:0.8;"/>
     </g>
    </g>
    <g id="xtick_3">
     <g id="line2d_3">
      <path clip-path="url(#p7b9d641f58)" d="M 162.779178 307.584 
L 162.779178 41.472 
" style="fill:none;stroke:#d3d3d3;stroke-linecap:square;stroke-width:0.8;"/>
     </g>
    </g>
    <g id="xtick_4">
     <g id="line2d_4">
      <path clip-path="url(#p7b9d641f58)" d="M 207.252403 307.584 
L 207.252403 41.472 
" style="fill:none;stroke:#d3d3d3;stroke-linecap:square;stroke-width:0.8;"/>
     </g>
    </g>
    <g id="xtick_5">
     <g id="line2d_5">
      <path clip-path="url(#p7b9d641f58)" d="M 251.725629 307.584 
L 251.725629 41.472 
" style="fill:none;stroke:#d3d3d3;stroke-linecap:square;stroke-width:0.8;"/>
     </g>
    </g>
    <g id="xtick_6">
     <g id="line2d_6">
      <path clip-path="url(#p7b9d641f58)" d="M 296.198854 307.584 
L 296.198854 41.472 
" style="fill:none;stroke:#d3d3d3;stroke-linecap:square;stroke-width:0.8;"/>
     </g>
    </g>
    <g id="xtick_7">
     <g id="line2d_7">
      <path clip-path="url(#p7b9d641f58)" d="M 340.67208 307.584 
L 340.67208 41.472 
" style="fill:none;stroke:#d3d3d3;stroke-linecap:square;stroke-width:0.8;"/>
     </g>
    </g>
    <g id="xtick_8">
     <g id="line2d_8">
      <path clip-path="url(#p7b9d641f58)" d="M 385.145305 307.584 
L 385.145305 41.472 
" style="fill:none;stroke:#d3d3d3;stroke-linecap:square;stroke-width:0.8;"/>
     </g>
    </g>
   </g>
   <g id="matplotlib.axis_2">
    <g id="ytick_1">
     <g id="line2d_9">
      <path clip-path="url(#p7b9d641f58)" d="M 57.6 307.584 
L 414.72 307.584 
" style="fill:none;stroke:#d3d3d3;stroke-linecap:square;stroke-width:0.8;"/>
     </g>
     <g id="line2d_10">
      <defs>
       <path d="M 0 0 
L -6 0 
" id="m9ea0238612" style="stroke:#000000;"/>
      </defs>
      <g>
       <use style="stroke:#000000;" x="57.6" xlink:href="#m9ea0238612" y="307.584"/>
      </g>
     </g>
     <g id="text_1">
      <!-- 24 -->
      <g transform="translate(29.0125 313.282828)scale(0.15 -0.15)">
       <defs>
        <path d="M 19.1875 8.296875 
L 53.609375 8.296875 
L 53.609375 0 
L 7.328125 0 
L 7.328125 8.296875 
Q 12.9375 14.109375 22.625 23.890625 
Q 32.328125 33.6875 34.8125 36.53125 
Q 39.546875 41.84375 41.421875 45.53125 
Q 43.3125 49.21875 43.3125 52.78125 
Q 43.3125 58.59375 39.234375 62.25 
Q 35.15625 65.921875 28.609375 65.921875 
Q 23.96875 65.921875 18.8125 64.3125 
Q 13.671875 62.703125 7.8125 59.421875 
L 7.8125 69.390625 
Q 13.765625 71.78125 18.9375 73 
Q 24.125 74.21875 28.421875 74.21875 
Q 39.75 74.21875 46.484375 68.546875 
Q 53.21875 62.890625 53.21875 53.421875 
Q 53.21875 48.921875 51.53125 44.890625 
Q 49.859375 40.875 45.40625 35.40625 
Q 44.1875 33.984375 37.640625 27.21875 
Q 31.109375 20.453125 19.1875 8.296875 
z
" id="DejaVuSans-50"/>
        <path d="M 37.796875 64.3125 
L 12.890625 25.390625 
L 37.796875 25.390625 
z
M 35.203125 72.90625 
L 47.609375 72.90625 
L 47.609375 25.390625 
L 58.015625 25.390625 
L 58.015625 17.1875 
L 47.609375 17.1875 
L 47.609375 0 
L 37.796875 0 
L 37.796875 17.1875 
L 4.890625 17.1875 
L 4.890625 26.703125 
z
" id="DejaVuSans-52"/>
       </defs>
       <use xlink:href="#DejaVuSans-50"/>
       <use x="63.623047" xlink:href="#DejaVuSans-52"/>
      </g>
     </g>
    </g>
    <g id="ytick_2">
     <g id="line2d_11">
      <path clip-path="url(#p7b9d641f58)" d="M 57.6 254.3616 
L 414.72 254.3616 
" style="fill:none;stroke:#d3d3d3;stroke-linecap:square;stroke-width:0.8;"/>
     </g>
     <g id="line2d_12">
      <g>
       <use style="stroke:#000000;" x="57.6" xlink:href="#m9ea0238612" y="254.3616"/>
      </g>
     </g>
     <g id="text_2">
      <!-- 26 -->
      <g transform="translate(29.0125 260.060428)scale(0.15 -0.15)">
       <defs>
        <path d="M 33.015625 40.375 
Q 26.375 40.375 22.484375 35.828125 
Q 18.609375 31.296875 18.609375 23.390625 
Q 18.609375 15.53125 22.484375 10.953125 
Q 26.375 6.390625 33.015625 6.390625 
Q 39.65625 6.390625 43.53125 10.953125 
Q 47.40625 15.53125 47.40625 23.390625 
Q 47.40625 31.296875 43.53125 35.828125 
Q 39.65625 40.375 33.015625 40.375 
z
M 52.59375 71.296875 
L 52.59375 62.3125 
Q 48.875 64.0625 45.09375 64.984375 
Q 41.3125 65.921875 37.59375 65.921875 
Q 27.828125 65.921875 22.671875 59.328125 
Q 17.53125 52.734375 16.796875 39.40625 
Q 19.671875 43.65625 24.015625 45.921875 
Q 28.375 48.1875 33.59375 48.1875 
Q 44.578125 48.1875 50.953125 41.515625 
Q 57.328125 34.859375 57.328125 23.390625 
Q 57.328125 12.15625 50.6875 5.359375 
Q 44.046875 -1.421875 33.015625 -1.421875 
Q 20.359375 -1.421875 13.671875 8.265625 
Q 6.984375 17.96875 6.984375 36.375 
Q 6.984375 53.65625 15.1875 63.9375 
Q 23.390625 74.21875 37.203125 74.21875 
Q 40.921875 74.21875 44.703125 73.484375 
Q 48.484375 72.75 52.59375 71.296875 
z
" id="DejaVuSans-54"/>
       </defs>
       <use xlink:href="#DejaVuSans-50"/>
       <use x="63.623047" xlink:href="#DejaVuSans-54"/>
      </g>
     </g>
    </g>
    <g id="ytick_3">
     <g id="line2d_13">
      <path clip-path="url(#p7b9d641f58)" d="M 57.6 201.1392 
L 414.72 201.1392 
" style="fill:none;stroke:#d3d3d3;stroke-linecap:square;stroke-width:0.8;"/>
     </g>
     <g id="line2d_14">
      <g>
       <use style="stroke:#000000;" x="57.6" xlink:href="#m9ea0238612" y="201.1392"/>
      </g>
     </g>
     <g id="text_3">
      <!-- 28 -->
      <g transform="translate(29.0125 206.838028)scale(0.15 -0.15)">
       <defs>
        <path d="M 31.78125 34.625 
Q 24.75 34.625 20.71875 30.859375 
Q 16.703125 27.09375 16.703125 20.515625 
Q 16.703125 13.921875 20.71875 10.15625 
Q 24.75 6.390625 31.78125 6.390625 
Q 38.8125 6.390625 42.859375 10.171875 
Q 46.921875 13.96875 46.921875 20.515625 
Q 46.921875 27.09375 42.890625 30.859375 
Q 38.875 34.625 31.78125 34.625 
z
M 21.921875 38.8125 
Q 15.578125 40.375 12.03125 44.71875 
Q 8.5 49.078125 8.5 55.328125 
Q 8.5 64.0625 14.71875 69.140625 
Q 20.953125 74.21875 31.78125 74.21875 
Q 42.671875 74.21875 48.875 69.140625 
Q 55.078125 64.0625 55.078125 55.328125 
Q 55.078125 49.078125 51.53125 44.71875 
Q 48 40.375 41.703125 38.8125 
Q 48.828125 37.15625 52.796875 32.3125 
Q 56.78125 27.484375 56.78125 20.515625 
Q 56.78125 9.90625 50.3125 4.234375 
Q 43.84375 -1.421875 31.78125 -1.421875 
Q 19.734375 -1.421875 13.25 4.234375 
Q 6.78125 9.90625 6.78125 20.515625 
Q 6.78125 27.484375 10.78125 32.3125 
Q 14.796875 37.15625 21.921875 38.8125 
z
M 18.3125 54.390625 
Q 18.3125 48.734375 21.84375 45.5625 
Q 25.390625 42.390625 31.78125 42.390625 
Q 38.140625 42.390625 41.71875 45.5625 
Q 45.3125 48.734375 45.3125 54.390625 
Q 45.3125 60.0625 41.71875 63.234375 
Q 38.140625 66.40625 31.78125 66.40625 
Q 25.390625 66.40625 21.84375 63.234375 
Q 18.3125 60.0625 18.3125 54.390625 
z
" id="DejaVuSans-56"/>
       </defs>
       <use xlink:href="#DejaVuSans-50"/>
       <use x="63.623047" xlink:href="#DejaVuSans-56"/>
      </g>
     </g>
    </g>
    <g id="ytick_4">
     <g id="line2d_15">
      <path clip-path="url(#p7b9d641f58)" d="M 57.6 147.9168 
L 414.72 147.9168 
" style="fill:none;stroke:#d3d3d3;stroke-linecap:square;stroke-width:0.8;"/>
     </g>
     <g id="line2d_16">
      <g>
       <use style="stroke:#000000;" x="57.6" xlink:href="#m9ea0238612" y="147.9168"/>
      </g>
     </g>
     <g id="text_4">
      <!-- 30 -->
      <g transform="translate(29.0125 153.615628)scale(0.15 -0.15)">
       <defs>
        <path d="M 40.578125 39.3125 
Q 47.65625 37.796875 51.625 33 
Q 55.609375 28.21875 55.609375 21.1875 
Q 55.609375 10.40625 48.1875 4.484375 
Q 40.765625 -1.421875 27.09375 -1.421875 
Q 22.515625 -1.421875 17.65625 -0.515625 
Q 12.796875 0.390625 7.625 2.203125 
L 7.625 11.71875 
Q 11.71875 9.328125 16.59375 8.109375 
Q 21.484375 6.890625 26.8125 6.890625 
Q 36.078125 6.890625 40.9375 10.546875 
Q 45.796875 14.203125 45.796875 21.1875 
Q 45.796875 27.640625 41.28125 31.265625 
Q 36.765625 34.90625 28.71875 34.90625 
L 20.21875 34.90625 
L 20.21875 43.015625 
L 29.109375 43.015625 
Q 36.375 43.015625 40.234375 45.921875 
Q 44.09375 48.828125 44.09375 54.296875 
Q 44.09375 59.90625 40.109375 62.90625 
Q 36.140625 65.921875 28.71875 65.921875 
Q 24.65625 65.921875 20.015625 65.03125 
Q 15.375 64.15625 9.8125 62.3125 
L 9.8125 71.09375 
Q 15.4375 72.65625 20.34375 73.4375 
Q 25.25 74.21875 29.59375 74.21875 
Q 40.828125 74.21875 47.359375 69.109375 
Q 53.90625 64.015625 53.90625 55.328125 
Q 53.90625 49.265625 50.4375 45.09375 
Q 46.96875 40.921875 40.578125 39.3125 
z
" id="DejaVuSans-51"/>
        <path d="M 31.78125 66.40625 
Q 24.171875 66.40625 20.328125 58.90625 
Q 16.5 51.421875 16.5 36.375 
Q 16.5 21.390625 20.328125 13.890625 
Q 24.171875 6.390625 31.78125 6.390625 
Q 39.453125 6.390625 43.28125 13.890625 
Q 47.125 21.390625 47.125 36.375 
Q 47.125 51.421875 43.28125 58.90625 
Q 39.453125 66.40625 31.78125 66.40625 
z
M 31.78125 74.21875 
Q 44.046875 74.21875 50.515625 64.515625 
Q 56.984375 54.828125 56.984375 36.375 
Q 56.984375 17.96875 50.515625 8.265625 
Q 44.046875 -1.421875 31.78125 -1.421875 
Q 19.53125 -1.421875 13.0625 8.265625 
Q 6.59375 17.96875 6.59375 36.375 
Q 6.59375 54.828125 13.0625 64.515625 
Q 19.53125 74.21875 31.78125 74.21875 
z
" id="DejaVuSans-48"/>
       </defs>
       <use xlink:href="#DejaVuSans-51"/>
       <use x="63.623047" xlink:href="#DejaVuSans-48"/>
      </g>
     </g>
    </g>
    <g id="ytick_5">
     <g id="line2d_17">
      <path clip-path="url(#p7b9d641f58)" d="M 57.6 94.6944 
L 414.72 94.6944 
" style="fill:none;stroke:#d3d3d3;stroke-linecap:square;stroke-width:0.8;"/>
     </g>
     <g id="line2d_18">
      <g>
       <use style="stroke:#000000;" x="57.6" xlink:href="#m9ea0238612" y="94.6944"/>
      </g>
     </g>
     <g id="text_5">
      <!-- 32 -->
      <g transform="translate(29.0125 100.393228)scale(0.15 -0.15)">
       <use xlink:href="#DejaVuSans-51"/>
       <use x="63.623047" xlink:href="#DejaVuSans-50"/>
      </g>
     </g>
    </g>
    <g id="ytick_6">
     <g id="line2d_19">
      <path clip-path="url(#p7b9d641f58)" d="M 57.6 41.472 
L 414.72 41.472 
" style="fill:none;stroke:#d3d3d3;stroke-linecap:square;stroke-width:0.8;"/>
     </g>
     <g id="line2d_20">
      <g>
       <use style="stroke:#000000;" x="57.6" xlink:href="#m9ea0238612" y="41.472"/>
      </g>
     </g>
     <g id="text_6">
      <!-- 34 -->
      <g transform="translate(29.0125 47.170828)scale(0.15 -0.15)">
       <use xlink:href="#DejaVuSans-51"/>
       <use x="63.623047" xlink:href="#DejaVuSans-52"/>
      </g>
     </g>
    </g>
    <g id="text_7">
     <!-- Temperature [°C] -->
     <g style="fill:#00a8ff;" transform="translate(15.4188 249.0939)rotate(-90)scale(0.1728 -0.1728)">
      <defs>
       <path d="M -0.296875 72.90625 
L 61.375 72.90625 
L 61.375 64.59375 
L 35.5 64.59375 
L 35.5 0 
L 25.59375 0 
L 25.59375 64.59375 
L -0.296875 64.59375 
z
" id="DejaVuSans-84"/>
       <path d="M 56.203125 29.59375 
L 56.203125 25.203125 
L 14.890625 25.203125 
Q 15.484375 15.921875 20.484375 11.0625 
Q 25.484375 6.203125 34.421875 6.203125 
Q 39.59375 6.203125 44.453125 7.46875 
Q 49.3125 8.734375 54.109375 11.28125 
L 54.109375 2.78125 
Q 49.265625 0.734375 44.1875 -0.34375 
Q 39.109375 -1.421875 33.890625 -1.421875 
Q 20.796875 -1.421875 13.15625 6.1875 
Q 5.515625 13.8125 5.515625 26.8125 
Q 5.515625 40.234375 12.765625 48.109375 
Q 20.015625 56 32.328125 56 
Q 43.359375 56 49.78125 48.890625 
Q 56.203125 41.796875 56.203125 29.59375 
z
M 47.21875 32.234375 
Q 47.125 39.59375 43.09375 43.984375 
Q 39.0625 48.390625 32.421875 48.390625 
Q 24.90625 48.390625 20.390625 44.140625 
Q 15.875 39.890625 15.1875 32.171875 
z
" id="DejaVuSans-101"/>
       <path d="M 52 44.1875 
Q 55.375 50.25 60.0625 53.125 
Q 64.75 56 71.09375 56 
Q 79.640625 56 84.28125 50.015625 
Q 88.921875 44.046875 88.921875 33.015625 
L 88.921875 0 
L 79.890625 0 
L 79.890625 32.71875 
Q 79.890625 40.578125 77.09375 44.375 
Q 74.3125 48.1875 68.609375 48.1875 
Q 61.625 48.1875 57.5625 43.546875 
Q 53.515625 38.921875 53.515625 30.90625 
L 53.515625 0 
L 44.484375 0 
L 44.484375 32.71875 
Q 44.484375 40.625 41.703125 44.40625 
Q 38.921875 48.1875 33.109375 48.1875 
Q 26.21875 48.1875 22.15625 43.53125 
Q 18.109375 38.875 18.109375 30.90625 
L 18.109375 0 
L 9.078125 0 
L 9.078125 54.6875 
L 18.109375 54.6875 
L 18.109375 46.1875 
Q 21.1875 51.21875 25.484375 53.609375 
Q 29.78125 56 35.6875 56 
Q 41.65625 56 45.828125 52.96875 
Q 50 49.953125 52 44.1875 
z
" id="DejaVuSans-109"/>
       <path d="M 18.109375 8.203125 
L 18.109375 -20.796875 
L 9.078125 -20.796875 
L 9.078125 54.6875 
L 18.109375 54.6875 
L 18.109375 46.390625 
Q 20.953125 51.265625 25.265625 53.625 
Q 29.59375 56 35.59375 56 
Q 45.5625 56 51.78125 48.09375 
Q 58.015625 40.1875 58.015625 27.296875 
Q 58.015625 14.40625 51.78125 6.484375 
Q 45.5625 -1.421875 35.59375 -1.421875 
Q 29.59375 -1.421875 25.265625 0.953125 
Q 20.953125 3.328125 18.109375 8.203125 
z
M 48.6875 27.296875 
Q 48.6875 37.203125 44.609375 42.84375 
Q 40.53125 48.484375 33.40625 48.484375 
Q 26.265625 48.484375 22.1875 42.84375 
Q 18.109375 37.203125 18.109375 27.296875 
Q 18.109375 17.390625 22.1875 11.75 
Q 26.265625 6.109375 33.40625 6.109375 
Q 40.53125 6.109375 44.609375 11.75 
Q 48.6875 17.390625 48.6875 27.296875 
z
" id="DejaVuSans-112"/>
       <path d="M 41.109375 46.296875 
Q 39.59375 47.171875 37.8125 47.578125 
Q 36.03125 48 33.890625 48 
Q 26.265625 48 22.1875 43.046875 
Q 18.109375 38.09375 18.109375 28.8125 
L 18.109375 0 
L 9.078125 0 
L 9.078125 54.6875 
L 18.109375 54.6875 
L 18.109375 46.1875 
Q 20.953125 51.171875 25.484375 53.578125 
Q 30.03125 56 36.53125 56 
Q 37.453125 56 38.578125 55.875 
Q 39.703125 55.765625 41.0625 55.515625 
z
" id="DejaVuSans-114"/>
       <path d="M 34.28125 27.484375 
Q 23.390625 27.484375 19.1875 25 
Q 14.984375 22.515625 14.984375 16.5 
Q 14.984375 11.71875 18.140625 8.90625 
Q 21.296875 6.109375 26.703125 6.109375 
Q 34.1875 6.109375 38.703125 11.40625 
Q 43.21875 16.703125 43.21875 25.484375 
L 43.21875 27.484375 
z
M 52.203125 31.203125 
L 52.203125 0 
L 43.21875 0 
L 43.21875 8.296875 
Q 40.140625 3.328125 35.546875 0.953125 
Q 30.953125 -1.421875 24.3125 -1.421875 
Q 15.921875 -1.421875 10.953125 3.296875 
Q 6 8.015625 6 15.921875 
Q 6 25.140625 12.171875 29.828125 
Q 18.359375 34.515625 30.609375 34.515625 
L 43.21875 34.515625 
L 43.21875 35.40625 
Q 43.21875 41.609375 39.140625 45 
Q 35.0625 48.390625 27.6875 48.390625 
Q 23 48.390625 18.546875 47.265625 
Q 14.109375 46.140625 10.015625 43.890625 
L 10.015625 52.203125 
Q 14.9375 54.109375 19.578125 55.046875 
Q 24.21875 56 28.609375 56 
Q 40.484375 56 46.34375 49.84375 
Q 52.203125 43.703125 52.203125 31.203125 
z
" id="DejaVuSans-97"/>
       <path d="M 18.3125 70.21875 
L 18.3125 54.6875 
L 36.8125 54.6875 
L 36.8125 47.703125 
L 18.3125 47.703125 
L 18.3125 18.015625 
Q 18.3125 11.328125 20.140625 9.421875 
Q 21.96875 7.515625 27.59375 7.515625 
L 36.8125 7.515625 
L 36.8125 0 
L 27.59375 0 
Q 17.1875 0 13.234375 3.875 
Q 9.28125 7.765625 9.28125 18.015625 
L 9.28125 47.703125 
L 2.6875 47.703125 
L 2.6875 54.6875 
L 9.28125 54.6875 
L 9.28125 70.21875 
z
" id="DejaVuSans-116"/>
       <path d="M 8.5 21.578125 
L 8.5 54.6875 
L 17.484375 54.6875 
L 17.484375 21.921875 
Q 17.484375 14.15625 20.5 10.265625 
Q 23.53125 6.390625 29.59375 6.390625 
Q 36.859375 6.390625 41.078125 11.03125 
Q 45.3125 15.671875 45.3125 23.6875 
L 45.3125 54.6875 
L 54.296875 54.6875 
L 54.296875 0 
L 45.3125 0 
L 45.3125 8.40625 
Q 42.046875 3.421875 37.71875 1 
Q 33.40625 -1.421875 27.6875 -1.421875 
Q 18.265625 -1.421875 13.375 4.4375 
Q 8.5 10.296875 8.5 21.578125 
z
M 31.109375 56 
z
" id="DejaVuSans-117"/>
       <path id="DejaVuSans-32"/>
       <path d="M 8.59375 75.984375 
L 29.296875 75.984375 
L 29.296875 69 
L 17.578125 69 
L 17.578125 -6.203125 
L 29.296875 -6.203125 
L 29.296875 -13.1875 
L 8.59375 -13.1875 
z
" id="DejaVuSans-91"/>
       <path d="M 25 67.921875 
Q 21.09375 67.921875 18.40625 65.203125 
Q 15.71875 62.5 15.71875 58.59375 
Q 15.71875 54.734375 18.40625 52.078125 
Q 21.09375 49.421875 25 49.421875 
Q 28.90625 49.421875 31.59375 52.078125 
Q 34.28125 54.734375 34.28125 58.59375 
Q 34.28125 62.453125 31.5625 65.1875 
Q 28.859375 67.921875 25 67.921875 
z
M 25 74.21875 
Q 28.125 74.21875 31 73.015625 
Q 33.890625 71.828125 35.984375 69.578125 
Q 38.234375 67.390625 39.359375 64.59375 
Q 40.484375 61.8125 40.484375 58.59375 
Q 40.484375 52.15625 35.96875 47.6875 
Q 31.453125 43.21875 24.90625 43.21875 
Q 18.3125 43.21875 13.90625 47.609375 
Q 9.515625 52 9.515625 58.59375 
Q 9.515625 65.140625 14 69.671875 
Q 18.5 74.21875 25 74.21875 
z
" id="DejaVuSans-176"/>
       <path d="M 64.40625 67.28125 
L 64.40625 56.890625 
Q 59.421875 61.53125 53.78125 63.8125 
Q 48.140625 66.109375 41.796875 66.109375 
Q 29.296875 66.109375 22.65625 58.46875 
Q 16.015625 50.828125 16.015625 36.375 
Q 16.015625 21.96875 22.65625 14.328125 
Q 29.296875 6.6875 41.796875 6.6875 
Q 48.140625 6.6875 53.78125 8.984375 
Q 59.421875 11.28125 64.40625 15.921875 
L 64.40625 5.609375 
Q 59.234375 2.09375 53.4375 0.328125 
Q 47.65625 -1.421875 41.21875 -1.421875 
Q 24.65625 -1.421875 15.125 8.703125 
Q 5.609375 18.84375 5.609375 36.375 
Q 5.609375 53.953125 15.125 64.078125 
Q 24.65625 74.21875 41.21875 74.21875 
Q 47.75 74.21875 53.53125 72.484375 
Q 59.328125 70.75 64.40625 67.28125 
z
" id="DejaVuSans-67"/>
       <path d="M 30.421875 75.984375 
L 30.421875 -13.1875 
L 9.71875 -13.1875 
L 9.71875 -6.203125 
L 21.390625 -6.203125 
L 21.390625 69 
L 9.71875 69 
L 9.71875 75.984375 
z
" id="DejaVuSans-93"/>
      </defs>
      <use xlink:href="#DejaVuSans-84"/>
      <use x="44.083984" xlink:href="#DejaVuSans-101"/>
      <use x="105.607422" xlink:href="#DejaVuSans-109"/>
      <use x="203.019531" xlink:href="#DejaVuSans-112"/>
      <use x="266.496094" xlink:href="#DejaVuSans-101"/>
      <use x="328.019531" xlink:href="#DejaVuSans-114"/>
      <use x="369.132812" xlink:href="#DejaVuSans-97"/>
      <use x="430.412109" xlink:href="#DejaVuSans-116"/>
      <use x="469.621094" xlink:href="#DejaVuSans-117"/>
      <use x="533" xlink:href="#DejaVuSans-114"/>
      <use x="571.863281" xlink:href="#DejaVuSans-101"/>
      <use x="633.386719" xlink:href="#DejaVuSans-32"/>
      <use x="665.173828" xlink:href="#DejaVuSans-91"/>
      <use x="704.1875" xlink:href="#DejaVuSans-176"/>
      <use x="754.1875" xlink:href="#DejaVuSans-67"/>
      <use x="824.011719" xlink:href="#DejaVuSans-93"/>
     </g>
    </g>
   </g>
   <g id="line2d_21">
    <path clip-path="url(#p7b9d641f58)" d="M 73.832727 201.1392 
L 74.01062 147.9168 
L 74.366406 147.9168 
L 74.544299 149.593306 
L 74.722192 149.593306 
L 74.900085 151.2432 
L 75.25587 151.2432 
L 75.433763 152.919706 
L 75.967442 161.2224 
L 76.145335 159.572506 
L 76.323228 161.2224 
L 76.501121 159.572506 
L 76.679014 161.2224 
L 76.856907 161.2224 
L 77.0348 162.898906 
L 77.212692 161.2224 
L 77.390585 162.898906 
L 77.568478 162.898906 
L 77.924264 166.225306 
L 78.102157 164.5488 
L 78.28005 166.225306 
L 78.991621 166.225306 
L 79.169514 167.8752 
L 79.347407 166.225306 
L 79.5253 167.8752 
L 79.881086 167.8752 
L 80.058979 169.551706 
L 80.414765 169.551706 
L 80.592658 167.8752 
L 80.948443 167.8752 
L 81.126336 169.551706 
L 82.371587 169.551706 
L 82.549479 171.2016 
L 83.261051 171.2016 
L 83.438944 172.878106 
L 83.616837 171.2016 
L 83.79473 172.878106 
L 84.328408 172.878106 
L 84.506301 171.2016 
L 85.217873 171.2016 
L 85.573659 174.528 
L 86.107337 174.528 
L 86.463123 177.8544 
L 86.641016 177.8544 
L 86.818909 179.530906 
L 86.996802 179.530906 
L 87.174695 181.1808 
L 87.530481 181.1808 
L 87.708374 182.857306 
L 88.064159 182.857306 
L 88.242052 184.5072 
L 88.419945 182.857306 
L 88.597838 182.857306 
L 88.775731 181.1808 
L 88.953624 181.1808 
L 89.131517 179.530906 
L 89.30941 179.530906 
L 89.665196 176.204506 
L 89.843088 176.204506 
L 90.020981 174.528 
L 90.376767 174.528 
L 90.55466 172.878106 
L 91.444125 172.878106 
L 91.622017 171.2016 
L 91.79991 171.2016 
L 91.977803 169.551706 
L 92.155696 169.551706 
L 92.333589 167.8752 
L 92.689375 172.878106 
L 93.045161 176.204506 
L 93.400946 172.878106 
L 93.578839 174.528 
L 93.756732 172.878106 
L 94.112518 172.878106 
L 94.290411 174.528 
L 94.468304 172.878106 
L 94.646197 174.528 
L 94.82409 174.528 
L 95.001983 172.878106 
L 95.357768 176.204506 
L 95.713554 176.204506 
L 95.891447 177.8544 
L 96.425126 177.8544 
L 96.603019 179.530906 
L 96.780912 177.8544 
L 96.958804 177.8544 
L 97.136697 179.530906 
L 97.31459 179.530906 
L 97.492483 181.1808 
L 97.670376 181.1808 
L 97.848269 182.857306 
L 98.026162 181.1808 
L 98.381948 181.1808 
L 98.559841 179.530906 
L 98.737733 179.530906 
L 98.915626 177.8544 
L 99.093519 179.530906 
L 99.271412 177.8544 
L 99.627198 177.8544 
L 99.805091 176.204506 
L 100.160877 176.204506 
L 100.33877 177.8544 
L 100.516663 176.204506 
L 100.694555 176.204506 
L 100.872448 177.8544 
L 101.050341 177.8544 
L 101.228234 179.530906 
L 101.406127 177.8544 
L 102.295592 177.8544 
L 102.473484 179.530906 
L 102.651377 179.530906 
L 102.82927 181.1808 
L 103.007163 181.1808 
L 103.185056 182.857306 
L 103.362949 182.857306 
L 103.718735 186.183706 
L 103.896628 186.183706 
L 104.074521 187.8336 
L 104.608199 187.8336 
L 104.786092 189.510106 
L 105.497664 189.510106 
L 105.675557 187.8336 
L 105.85345 187.8336 
L 106.742914 179.530906 
L 106.920807 179.530906 
L 107.0987 177.8544 
L 107.276593 179.530906 
L 107.810271 174.528 
L 107.988164 174.528 
L 108.166057 172.878106 
L 108.34395 172.878106 
L 108.699736 169.551706 
L 109.055522 169.551706 
L 109.233415 167.8752 
L 109.411308 167.8752 
L 109.5892 169.551706 
L 110.122879 179.530906 
L 110.300772 177.8544 
L 111.36813 177.8544 
L 111.546022 176.204506 
L 111.723915 177.8544 
L 112.435487 177.8544 
L 112.61338 176.204506 
L 112.791273 177.8544 
L 113.147059 177.8544 
L 113.324951 176.204506 
L 113.502844 177.8544 
L 115.459666 177.8544 
L 115.637559 176.204506 
L 115.815452 176.204506 
L 115.993345 177.8544 
L 116.527024 177.8544 
L 116.704917 179.530906 
L 117.060702 179.530906 
L 117.238595 181.1808 
L 117.416488 181.1808 
L 117.594381 182.857306 
L 117.772274 182.857306 
L 117.950167 184.5072 
L 118.661738 184.5072 
L 118.839631 182.857306 
L 119.37331 182.857306 
L 119.729096 186.183706 
L 120.262775 186.183706 
L 120.440667 187.8336 
L 121.152239 187.8336 
L 121.330132 189.510106 
L 121.863811 189.510106 
L 122.041704 191.16 
L 122.219597 191.16 
L 122.575382 187.8336 
L 122.753275 187.8336 
L 123.286954 182.857306 
L 123.464847 182.857306 
L 123.64274 181.1808 
L 123.820633 181.1808 
L 123.998526 179.530906 
L 124.176418 179.530906 
L 124.532204 174.528 
L 124.710097 174.528 
L 125.065883 169.551706 
L 125.421669 169.551706 
L 125.599562 167.8752 
L 126.13324 167.8752 
L 126.311133 166.225306 
L 126.489026 167.8752 
L 127.200598 179.530906 
L 128.445848 179.530906 
L 128.623741 181.1808 
L 128.979527 181.1808 
L 129.15742 182.857306 
L 129.513205 182.857306 
L 129.691098 184.5072 
L 130.046884 184.5072 
L 130.224777 186.183706 
L 130.758456 186.183706 
L 130.936349 187.8336 
L 131.64792 187.8336 
L 132.003706 184.5072 
L 132.181599 184.5072 
L 132.359492 182.857306 
L 132.715278 182.857306 
L 132.893171 181.1808 
L 133.071064 181.1808 
L 133.248956 182.857306 
L 133.782635 182.857306 
L 133.960528 184.5072 
L 134.138421 184.5072 
L 134.316314 186.183706 
L 134.849993 186.183706 
L 135.027885 187.8336 
L 135.205778 186.183706 
L 135.91735 186.183706 
L 136.095243 184.5072 
L 136.273136 184.5072 
L 136.451029 186.183706 
L 136.628922 186.183706 
L 136.806814 187.8336 
L 136.984707 187.8336 
L 137.1626 189.510106 
L 137.518386 189.510106 
L 137.696279 191.16 
L 138.407851 191.16 
L 138.585743 192.836506 
L 139.475208 192.836506 
L 139.653101 194.4864 
L 139.830994 192.836506 
L 140.008887 192.836506 
L 140.18678 191.16 
L 140.364672 191.16 
L 140.542565 187.8336 
L 140.720458 187.8336 
L 140.898351 184.5072 
L 141.076244 184.5072 
L 142.499387 171.2016 
L 142.67728 171.2016 
L 143.033066 167.8752 
L 143.210959 167.8752 
L 143.566745 176.204506 
L 145.167781 206.142106 
L 145.345674 206.142106 
L 145.523567 211.1184 
L 145.70146 211.1184 
L 145.879352 216.121306 
L 146.235138 219.447706 
L 146.590924 211.1184 
L 147.124603 202.815706 
L 147.302496 202.815706 
L 147.480389 201.1392 
L 147.658281 201.1392 
L 148.19196 196.162906 
L 148.369853 196.162906 
L 148.725639 192.836506 
L 148.903532 192.836506 
L 149.792996 184.5072 
L 152.639283 184.5072 
L 152.817176 186.183706 
L 153.172961 186.183706 
L 153.350854 187.8336 
L 153.528747 187.8336 
L 153.70664 189.510106 
L 154.773998 189.510106 
L 154.95189 187.8336 
L 155.129783 187.8336 
L 155.307676 186.183706 
L 155.663462 186.183706 
L 156.197141 181.1808 
L 156.552927 181.1808 
L 156.730819 179.530906 
L 156.908712 184.5072 
L 157.086605 186.183706 
L 157.264498 186.183706 
L 157.798177 177.8544 
L 157.97607 177.8544 
L 158.331856 174.528 
L 158.865534 174.528 
L 159.22132 171.2016 
L 159.399213 171.2016 
L 159.577106 169.551706 
L 159.932892 169.551706 
L 160.110785 167.8752 
L 160.288677 167.8752 
L 160.46657 166.225306 
L 160.822356 166.225306 
L 161.000249 164.5488 
L 161.356035 164.5488 
L 161.533928 162.898906 
L 161.711821 162.898906 
L 161.889714 161.2224 
L 162.245499 161.2224 
L 162.423392 159.572506 
L 162.601285 159.572506 
L 162.779178 157.896 
L 163.134964 157.896 
L 163.312857 156.246106 
L 163.846535 156.246106 
L 164.024428 154.5696 
L 164.202321 156.246106 
L 164.380214 154.5696 
L 165.269679 154.5696 
L 165.447572 152.919706 
L 165.625465 154.5696 
L 165.803357 152.919706 
L 166.159143 156.246106 
L 166.514929 161.2224 
L 166.692822 159.572506 
L 168.827537 159.572506 
L 169.00543 161.2224 
L 169.717001 161.2224 
L 169.894894 159.572506 
L 170.072787 161.2224 
L 170.25068 161.2224 
L 170.428573 162.898906 
L 170.606466 161.2224 
L 170.784359 161.2224 
L 170.962252 162.898906 
L 171.140144 161.2224 
L 172.029609 161.2224 
L 172.207502 159.572506 
L 173.630645 159.572506 
L 173.808538 161.2224 
L 173.986431 159.572506 
L 174.164324 159.572506 
L 174.342217 161.2224 
L 174.52011 161.2224 
L 174.698002 159.572506 
L 174.875895 159.572506 
L 175.053788 157.896 
L 175.231681 157.896 
L 175.409574 156.246106 
L 175.76536 156.246106 
L 175.943253 154.5696 
L 176.121146 156.246106 
L 176.299039 154.5696 
L 177.01061 154.5696 
L 177.188503 152.919706 
L 178.255861 152.919706 
L 178.433753 151.2432 
L 178.611646 151.2432 
L 178.789539 152.919706 
L 178.967432 151.2432 
L 180.924254 151.2432 
L 181.102147 152.919706 
L 181.28004 152.919706 
L 181.457933 154.5696 
L 181.635826 154.5696 
L 181.813719 156.246106 
L 182.347397 156.246106 
L 182.52529 157.896 
L 182.881076 157.896 
L 183.592648 171.2016 
L 183.77054 167.8752 
L 183.948433 169.551706 
L 184.126326 167.8752 
L 184.660005 167.8752 
L 184.837898 169.551706 
L 185.015791 169.551706 
L 185.193684 167.8752 
L 185.371577 169.551706 
L 186.083148 169.551706 
L 186.261041 167.8752 
L 186.438934 169.551706 
L 187.150506 169.551706 
L 187.328399 167.8752 
L 187.506291 169.551706 
L 187.684184 169.551706 
L 187.862077 171.2016 
L 188.03997 171.2016 
L 188.217863 169.551706 
L 188.395756 171.2016 
L 189.107328 171.2016 
L 189.28522 172.878106 
L 189.818899 172.878106 
L 189.996792 171.2016 
L 190.352578 171.2016 
L 190.530471 172.878106 
L 190.886257 169.551706 
L 191.419935 169.551706 
L 191.597828 167.8752 
L 191.953614 167.8752 
L 192.131507 164.5488 
L 192.3094 164.5488 
L 192.487293 162.898906 
L 194.977793 162.898906 
L 195.155686 161.2224 
L 195.333579 162.898906 
L 195.511472 161.2224 
L 195.689365 162.898906 
L 196.045151 159.572506 
L 196.400936 159.572506 
L 196.578829 157.896 
L 196.934615 157.896 
L 197.290401 154.5696 
L 197.468294 154.5696 
L 197.646187 152.919706 
L 198.179866 152.919706 
L 198.357758 151.2432 
L 198.535651 152.919706 
L 198.713544 151.2432 
L 199.603009 151.2432 
L 199.780902 152.919706 
L 199.958795 151.2432 
L 200.670366 164.5488 
L 200.848259 164.5488 
L 201.026152 162.898906 
L 201.204045 162.898906 
L 201.381938 161.2224 
L 202.093509 161.2224 
L 202.271402 159.572506 
L 202.449295 161.2224 
L 202.627188 161.2224 
L 202.805081 159.572506 
L 202.982974 159.572506 
L 203.160867 161.2224 
L 203.33876 159.572506 
L 203.516653 161.2224 
L 203.694545 161.2224 
L 203.872438 159.572506 
L 204.050331 161.2224 
L 204.228224 161.2224 
L 204.406117 159.572506 
L 204.58401 161.2224 
L 204.761903 159.572506 
L 206.362939 159.572506 
L 206.540832 157.896 
L 206.718725 157.896 
L 206.896618 159.572506 
L 207.074511 157.896 
L 207.430296 157.896 
L 207.608189 156.246106 
L 207.786082 157.896 
L 208.141868 157.896 
L 208.319761 156.246106 
L 208.497654 157.896 
L 208.675547 156.246106 
L 208.85344 157.896 
L 209.209225 154.5696 
L 209.387118 154.5696 
L 209.565011 152.919706 
L 209.742904 154.5696 
L 213.122869 154.5696 
L 213.300762 152.919706 
L 213.656548 152.919706 
L 213.834441 151.2432 
L 214.36812 151.2432 
L 214.546012 149.593306 
L 214.723905 151.2432 
L 214.901798 151.2432 
L 215.079691 149.593306 
L 215.257584 151.2432 
L 215.791263 151.2432 
L 215.969156 152.919706 
L 216.324941 152.919706 
L 216.502834 154.5696 
L 216.680727 154.5696 
L 216.85862 156.246106 
L 217.036513 156.246106 
L 217.748085 167.8752 
L 217.925978 169.551706 
L 218.10387 169.551706 
L 218.459656 166.225306 
L 219.171228 166.225306 
L 219.349121 164.5488 
L 220.060692 164.5488 
L 220.238585 162.898906 
L 220.416478 164.5488 
L 220.594371 162.898906 
L 220.772264 164.5488 
L 220.950157 162.898906 
L 221.12805 162.898906 
L 221.305943 164.5488 
L 221.483836 162.898906 
L 222.551193 162.898906 
L 222.729086 164.5488 
L 222.906979 162.898906 
L 223.084872 164.5488 
L 223.262765 162.898906 
L 223.440658 164.5488 
L 223.61855 162.898906 
L 224.330122 162.898906 
L 224.508015 161.2224 
L 224.685908 162.898906 
L 224.863801 161.2224 
L 225.041694 161.2224 
L 225.219587 162.898906 
L 225.397479 161.2224 
L 225.931158 161.2224 
L 226.109051 159.572506 
L 226.464837 159.572506 
L 226.64273 157.896 
L 226.820623 159.572506 
L 226.998516 157.896 
L 227.176408 157.896 
L 227.354301 159.572506 
L 227.710087 159.572506 
L 227.88798 161.2224 
L 230.556374 161.2224 
L 230.734267 162.898906 
L 230.912159 161.2224 
L 231.090052 161.2224 
L 231.445838 164.5488 
L 231.801624 161.2224 
L 231.979517 161.2224 
L 232.868981 152.919706 
L 233.046874 152.919706 
L 233.40266 149.593306 
L 233.580553 149.593306 
L 233.936339 146.266906 
L 234.114232 146.266906 
L 234.64791 154.5696 
L 234.825803 154.5696 
L 235.003696 156.246106 
L 235.715268 156.246106 
L 235.893161 154.5696 
L 237.67209 154.5696 
L 237.849983 156.246106 
L 238.027875 156.246106 
L 238.205768 154.5696 
L 238.383661 156.246106 
L 239.095233 156.246106 
L 239.273126 154.5696 
L 239.451019 154.5696 
L 239.628912 152.919706 
L 241.585733 152.919706 
L 241.941519 149.593306 
L 242.119412 149.593306 
L 242.297305 147.9168 
L 242.475198 147.9168 
L 242.653091 146.266906 
L 243.008877 146.266906 
L 243.364663 141.264 
L 244.787806 141.264 
L 244.965699 139.614106 
L 245.143592 141.264 
L 245.855163 141.264 
L 246.033056 142.940506 
L 246.210949 142.940506 
L 246.388842 141.264 
L 246.744628 144.5904 
L 247.100413 144.5904 
L 247.278306 146.266906 
L 247.456199 146.266906 
L 247.634092 147.9168 
L 248.167771 147.9168 
L 248.345664 142.940506 
L 248.70145 146.266906 
L 248.879342 146.266906 
L 249.413021 151.2432 
L 249.590914 151.2432 
L 249.768807 152.919706 
L 250.124593 152.919706 
L 250.836164 159.572506 
L 251.014057 159.572506 
L 251.19195 161.2224 
L 251.547736 161.2224 
L 251.725629 162.898906 
L 251.903522 161.2224 
L 252.081415 162.898906 
L 252.615093 162.898906 
L 252.792986 164.5488 
L 252.970879 164.5488 
L 253.148772 166.225306 
L 253.504558 166.225306 
L 253.860344 169.551706 
L 254.21613 169.551706 
L 254.394022 171.2016 
L 254.571915 171.2016 
L 254.749808 172.878106 
L 254.927701 172.878106 
L 255.105594 174.528 
L 255.283487 174.528 
L 255.46138 176.204506 
L 255.817166 176.204506 
L 255.995059 177.8544 
L 256.172951 176.204506 
L 256.350844 177.8544 
L 256.528737 177.8544 
L 256.70663 176.204506 
L 257.062416 176.204506 
L 257.240309 174.528 
L 257.418202 174.528 
L 257.773988 171.2016 
L 257.95188 171.2016 
L 258.129773 169.551706 
L 258.485559 169.551706 
L 258.663452 167.8752 
L 259.375024 167.8752 
L 259.730809 164.5488 
L 260.620274 164.5488 
L 260.798167 166.225306 
L 260.97606 164.5488 
L 261.153953 166.225306 
L 261.865524 166.225306 
L 262.043417 164.5488 
L 262.22131 164.5488 
L 262.577096 161.2224 
L 262.932882 161.2224 
L 263.110775 159.572506 
L 263.46656 159.572506 
L 263.644453 157.896 
L 264.889704 157.896 
L 265.067597 159.572506 
L 265.245489 157.896 
L 265.423382 159.572506 
L 265.601275 157.896 
L 265.779168 159.572506 
L 265.957061 157.896 
L 266.134954 159.572506 
L 266.846526 159.572506 
L 267.024418 161.2224 
L 267.202311 171.2016 
L 267.558097 171.2016 
L 267.73599 172.878106 
L 267.913883 171.2016 
L 268.091776 171.2016 
L 268.269669 169.551706 
L 268.447562 171.2016 
L 268.625455 169.551706 
L 269.514919 169.551706 
L 269.692812 171.2016 
L 269.870705 169.551706 
L 270.226491 169.551706 
L 270.404384 167.8752 
L 270.582276 167.8752 
L 270.760169 166.225306 
L 270.938062 166.225306 
L 271.115955 167.8752 
L 271.293848 166.225306 
L 271.471741 167.8752 
L 271.827527 167.8752 
L 272.00542 169.551706 
L 272.183313 167.8752 
L 272.361205 169.551706 
L 272.539098 167.8752 
L 273.606456 167.8752 
L 273.784349 166.225306 
L 273.962242 167.8752 
L 274.140134 166.225306 
L 274.318027 167.8752 
L 275.563278 167.8752 
L 275.741171 169.551706 
L 275.919064 167.8752 
L 276.096956 167.8752 
L 276.274849 164.5488 
L 276.452742 164.5488 
L 276.630635 161.2224 
L 276.808528 161.2224 
L 276.986421 157.896 
L 277.164314 157.896 
L 277.5201 154.5696 
L 277.697993 154.5696 
L 277.875885 152.919706 
L 278.231671 152.919706 
L 278.587457 156.246106 
L 278.943243 161.2224 
L 279.121136 159.572506 
L 279.654814 159.572506 
L 279.832707 157.896 
L 280.0106 159.572506 
L 280.188493 157.896 
L 280.366386 159.572506 
L 280.544279 157.896 
L 280.722172 157.896 
L 280.900065 159.572506 
L 281.077958 157.896 
L 281.255851 159.572506 
L 282.501101 159.572506 
L 282.678994 161.2224 
L 283.212672 161.2224 
L 283.390565 162.898906 
L 283.568458 162.898906 
L 283.746351 164.5488 
L 284.457923 164.5488 
L 284.635816 162.898906 
L 284.991601 162.898906 
L 285.169494 161.2224 
L 285.347387 161.2224 
L 285.52528 159.572506 
L 285.703173 159.572506 
L 285.881066 157.896 
L 286.414745 157.896 
L 286.592638 156.246106 
L 287.126316 156.246106 
L 287.304209 152.919706 
L 287.482102 152.919706 
L 287.659995 151.2432 
L 288.727352 151.2432 
L 288.905245 152.919706 
L 289.083138 151.2432 
L 289.261031 151.2432 
L 289.438924 152.919706 
L 289.616817 151.2432 
L 289.79471 152.919706 
L 290.150496 152.919706 
L 290.328389 151.2432 
L 290.506281 152.919706 
L 290.684174 152.919706 
L 290.862067 151.2432 
L 291.03996 152.919706 
L 291.573639 152.919706 
L 291.751532 154.5696 
L 291.929425 152.919706 
L 292.107318 152.919706 
L 292.28521 154.5696 
L 292.463103 154.5696 
L 292.640996 156.246106 
L 293.530461 156.246106 
L 293.708354 154.5696 
L 293.886247 154.5696 
L 294.064139 152.919706 
L 294.242032 152.919706 
L 294.419925 151.2432 
L 294.775711 151.2432 
L 294.953604 149.593306 
L 295.30939 149.593306 
L 295.487283 151.2432 
L 295.843068 156.246106 
L 298.155676 156.246106 
L 298.333569 157.896 
L 298.511462 156.246106 
L 298.689355 157.896 
L 299.045141 157.896 
L 299.223034 159.572506 
L 299.756712 159.572506 
L 299.934605 161.2224 
L 300.112498 159.572506 
L 300.290391 161.2224 
L 300.646177 161.2224 
L 300.82407 159.572506 
L 301.001963 161.2224 
L 302.602999 161.2224 
L 302.780892 162.898906 
L 302.958785 161.2224 
L 303.136677 161.2224 
L 303.492463 164.5488 
L 303.670356 162.898906 
L 303.848249 164.5488 
L 304.559821 164.5488 
L 304.737714 162.898906 
L 304.915606 162.898906 
L 305.093499 164.5488 
L 305.271392 164.5488 
L 305.627178 167.8752 
L 305.805071 167.8752 
L 305.982964 169.551706 
L 306.160857 169.551706 
L 306.33875 171.2016 
L 306.872428 171.2016 
L 307.050321 172.878106 
L 307.228214 172.878106 
L 307.406107 174.528 
L 307.584 174.528 
L 307.761893 176.204506 
L 307.939786 176.204506 
L 308.117679 177.8544 
L 308.295572 177.8544 
L 308.473465 176.204506 
L 308.651357 176.204506 
L 308.82925 174.528 
L 309.185036 174.528 
L 309.362929 172.878106 
L 309.718715 172.878106 
L 309.896608 171.2016 
L 310.252394 171.2016 
L 310.430286 169.551706 
L 310.608179 169.551706 
L 310.786072 167.8752 
L 310.963965 167.8752 
L 311.141858 166.225306 
L 311.497644 166.225306 
L 311.675537 164.5488 
L 311.85343 164.5488 
L 312.031323 162.898906 
L 312.387108 162.898906 
L 313.09868 169.551706 
L 313.454466 169.551706 
L 313.632359 167.8752 
L 313.810252 167.8752 
L 313.988144 169.551706 
L 314.166037 167.8752 
L 314.34393 169.551706 
L 314.877609 169.551706 
L 315.055502 171.2016 
L 315.411288 171.2016 
L 315.589181 172.878106 
L 316.122859 172.878106 
L 316.300752 174.528 
L 316.478645 174.528 
L 316.656538 176.204506 
L 317.190217 176.204506 
L 317.36811 177.8544 
L 318.257574 177.8544 
L 318.435467 176.204506 
L 318.791253 176.204506 
L 318.969146 174.528 
L 321.459646 174.528 
L 321.637539 172.878106 
L 321.815432 174.528 
L 321.993325 172.878106 
L 322.171218 172.878106 
L 322.349111 174.528 
L 322.527004 174.528 
L 322.704897 176.204506 
L 323.060682 176.204506 
L 323.238575 177.8544 
L 323.594361 177.8544 
L 323.772254 179.530906 
L 324.12804 179.530906 
L 324.305933 181.1808 
L 324.483826 181.1808 
L 324.661719 182.857306 
L 325.017504 182.857306 
L 325.195397 184.5072 
L 325.37329 182.857306 
L 325.729076 182.857306 
L 325.906969 181.1808 
L 326.262755 181.1808 
L 326.440648 176.204506 
L 326.61854 174.528 
L 326.796433 174.528 
L 326.974326 171.2016 
L 327.152219 171.2016 
L 327.330112 169.551706 
L 327.685898 169.551706 
L 327.863791 167.8752 
L 328.041684 167.8752 
L 328.219577 166.225306 
L 328.397469 166.225306 
L 328.575362 164.5488 
L 328.931148 164.5488 
L 329.109041 162.898906 
L 329.286934 164.5488 
L 329.464827 162.898906 
L 330.176399 169.551706 
L 330.354291 167.8752 
L 331.777435 167.8752 
L 331.955328 169.551706 
L 332.666899 169.551706 
L 332.844792 171.2016 
L 333.556364 171.2016 
L 333.734257 172.878106 
L 333.912149 172.878106 
L 334.090042 174.528 
L 334.979507 174.528 
L 335.1574 172.878106 
L 335.335293 174.528 
L 335.513186 172.878106 
L 335.691078 172.878106 
L 335.868971 171.2016 
L 336.224757 171.2016 
L 336.40265 169.551706 
L 336.580543 171.2016 
L 336.758436 169.551706 
L 336.936329 171.2016 
L 337.114222 169.551706 
L 337.292115 171.2016 
L 337.470007 169.551706 
L 337.6479 171.2016 
L 337.825793 169.551706 
L 338.003686 171.2016 
L 338.537365 171.2016 
L 338.715258 169.551706 
L 339.426829 169.551706 
L 339.604722 171.2016 
L 339.782615 171.2016 
L 339.960508 172.878106 
L 340.494187 172.878106 
L 340.67208 174.528 
L 341.027866 174.528 
L 341.205758 176.204506 
L 341.383651 176.204506 
L 341.739437 179.530906 
L 342.273116 179.530906 
L 342.451009 177.8544 
L 342.806795 177.8544 
L 342.984687 176.204506 
L 343.340473 176.204506 
L 343.696259 172.878106 
L 343.874152 174.528 
L 344.052045 171.2016 
L 344.585724 171.2016 
L 344.763616 169.551706 
L 345.475188 169.551706 
L 345.653081 167.8752 
L 345.830974 169.551706 
L 346.008867 167.8752 
L 346.18676 167.8752 
L 346.364653 166.225306 
L 346.542545 166.225306 
L 347.076224 171.2016 
L 347.254117 174.528 
L 347.43201 171.2016 
L 347.609903 172.878106 
L 347.787796 171.2016 
L 347.965689 172.878106 
L 348.143582 171.2016 
L 349.388832 171.2016 
L 349.566725 172.878106 
L 349.744618 171.2016 
L 349.922511 172.878106 
L 350.634082 172.878106 
L 350.811975 174.528 
L 350.989868 172.878106 
L 351.167761 174.528 
L 351.523547 174.528 
L 351.70144 176.204506 
L 351.879333 174.528 
L 352.057225 174.528 
L 352.235118 172.878106 
L 352.413011 172.878106 
L 352.590904 171.2016 
L 352.768797 171.2016 
L 352.94669 169.551706 
L 353.658262 169.551706 
L 353.836154 167.8752 
L 354.014047 169.551706 
L 354.725619 169.551706 
L 354.903512 171.2016 
L 355.792976 171.2016 
L 355.970869 169.551706 
L 356.504548 169.551706 
L 356.682441 171.2016 
L 356.860334 171.2016 
L 357.038227 172.878106 
L 357.394012 172.878106 
L 357.571905 174.528 
L 357.927691 174.528 
L 358.105584 176.204506 
L 358.46137 176.204506 
L 358.639263 177.8544 
L 358.817156 177.8544 
L 358.995049 179.530906 
L 359.70662 179.530906 
L 359.884513 177.8544 
L 360.062406 177.8544 
L 360.240299 176.204506 
L 360.596085 176.204506 
L 360.95187 172.878106 
L 361.129763 172.878106 
L 361.485549 169.551706 
L 361.663442 169.551706 
L 361.841335 167.8752 
L 362.375014 167.8752 
L 362.552907 166.225306 
L 362.7308 167.8752 
L 362.908692 166.225306 
L 363.086585 167.8752 
L 363.264478 166.225306 
L 363.442371 167.8752 
L 363.620264 166.225306 
L 364.331836 172.878106 
L 364.509729 169.551706 
L 365.043407 169.551706 
L 365.2213 167.8752 
L 365.399193 169.551706 
L 365.577086 167.8752 
L 365.754979 169.551706 
L 366.46655 169.551706 
L 366.644443 171.2016 
L 367.178122 171.2016 
L 367.356015 172.878106 
L 367.711801 172.878106 
L 367.889694 174.528 
L 368.245479 174.528 
L 368.423372 176.204506 
L 368.601265 176.204506 
L 368.779158 177.8544 
L 368.957051 177.8544 
L 369.134944 179.530906 
L 369.312837 179.530906 
L 369.49073 181.1808 
L 369.846516 181.1808 
L 370.024408 182.857306 
L 370.202301 182.857306 
L 370.380194 181.1808 
L 370.558087 182.857306 
L 371.091766 182.857306 
L 371.269659 181.1808 
L 371.625445 181.1808 
L 371.803337 179.530906 
L 371.98123 179.530906 
L 372.337016 176.204506 
L 372.692802 176.204506 
L 373.048588 169.551706 
L 373.226481 169.551706 
L 373.404374 167.8752 
L 374.115945 167.8752 
L 374.293838 166.225306 
L 374.471731 167.8752 
L 374.649624 166.225306 
L 374.827517 167.8752 
L 375.00541 166.225306 
L 375.716981 166.225306 
L 375.894874 164.5488 
L 376.072767 166.225306 
L 376.428553 162.898906 
L 376.606446 164.5488 
L 376.784339 164.5488 
L 376.962232 162.898906 
L 378.207482 162.898906 
L 378.385375 164.5488 
L 378.563268 162.898906 
L 378.741161 164.5488 
L 379.096946 164.5488 
L 379.274839 166.225306 
L 379.630625 166.225306 
L 379.808518 167.8752 
L 380.164304 167.8752 
L 380.342197 169.551706 
L 380.52009 177.8544 
L 380.697983 179.530906 
L 381.053768 187.8336 
L 381.231661 189.510106 
L 382.476912 211.1184 
L 382.654804 212.794906 
L 383.544269 227.7504 
L 383.722162 229.426906 
L 383.900055 232.753306 
L 384.077948 232.753306 
L 384.255841 237.7296 
L 384.433733 239.406106 
L 384.789519 244.3824 
L 385.501091 251.0352 
L 385.856877 251.0352 
L 386.03477 252.711706 
L 386.568448 252.711706 
L 386.746341 254.3616 
L 387.102127 254.3616 
L 387.28002 256.038106 
L 387.457913 256.038106 
L 387.635806 257.688 
L 387.813699 267.6672 
L 387.991592 267.6672 
L 388.169484 269.343706 
L 388.347377 269.343706 
L 388.52527 270.9936 
L 388.703163 270.9936 
L 388.881056 272.670106 
L 389.236842 272.670106 
L 389.414735 274.32 
L 389.948413 274.32 
L 390.126306 275.996506 
L 390.304199 275.996506 
L 390.482092 279.322906 
L 390.659985 270.9936 
L 390.837878 270.9936 
L 391.015771 259.364506 
L 391.371557 251.0352 
L 392.616807 217.7712 
L 392.7947 214.4448 
L 392.972593 214.4448 
L 393.328379 204.4656 
L 393.506271 202.815706 
L 393.684164 199.489306 
L 393.862057 199.489306 
L 394.03995 196.162906 
L 394.217843 196.162906 
L 394.929415 189.510106 
L 395.107308 189.510106 
L 395.2852 187.8336 
L 395.463093 187.8336 
L 395.818879 184.5072 
L 396.708344 184.5072 
L 396.886237 182.857306 
L 397.06413 182.857306 
L 397.242022 184.5072 
L 397.419915 184.5072 
L 397.597808 182.857306 
L 398.131487 182.857306 
L 398.487273 179.530906 
L 398.487273 179.530906 
" style="fill:none;stroke:#00a8ff;stroke-linecap:square;stroke-width:3;"/>
   </g>
   <g id="patch_3">
    <path d="M 57.6 307.584 
L 57.6 41.472 
" style="fill:none;stroke:#000000;stroke-linecap:square;stroke-linejoin:miter;stroke-width:0.8;"/>
   </g>
   <g id="patch_4">
    <path d="M 414.72 307.584 
L 414.72 41.472 
" style="fill:none;stroke:#000000;stroke-linecap:square;stroke-linejoin:miter;stroke-width:0.8;"/>
   </g>
   <g id="patch_5">
    <path d="M 57.6 307.584 
L 414.72 307.584 
" style="fill:none;stroke:#000000;stroke-linecap:square;stroke-linejoin:miter;stroke-width:0.8;"/>
   </g>
   <g id="patch_6">
    <path d="M 57.6 41.472 
L 414.72 41.472 
" style="fill:none;stroke:#000000;stroke-linecap:square;stroke-linejoin:miter;stroke-width:0.8;"/>
   </g>
   <g id="text_8">
    <!-- Temperature progress of the past 3 days -->
    <g style="fill:#00a8ff;" transform="translate(60.6033 29.472)scale(0.1728 -0.1728)">
     <defs>
      <path d="M 30.609375 48.390625 
Q 23.390625 48.390625 19.1875 42.75 
Q 14.984375 37.109375 14.984375 27.296875 
Q 14.984375 17.484375 19.15625 11.84375 
Q 23.34375 6.203125 30.609375 6.203125 
Q 37.796875 6.203125 41.984375 11.859375 
Q 46.1875 17.53125 46.1875 27.296875 
Q 46.1875 37.015625 41.984375 42.703125 
Q 37.796875 48.390625 30.609375 48.390625 
z
M 30.609375 56 
Q 42.328125 56 49.015625 48.375 
Q 55.71875 40.765625 55.71875 27.296875 
Q 55.71875 13.875 49.015625 6.21875 
Q 42.328125 -1.421875 30.609375 -1.421875 
Q 18.84375 -1.421875 12.171875 6.21875 
Q 5.515625 13.875 5.515625 27.296875 
Q 5.515625 40.765625 12.171875 48.375 
Q 18.84375 56 30.609375 56 
z
" id="DejaVuSans-111"/>
      <path d="M 45.40625 27.984375 
Q 45.40625 37.75 41.375 43.109375 
Q 37.359375 48.484375 30.078125 48.484375 
Q 22.859375 48.484375 18.828125 43.109375 
Q 14.796875 37.75 14.796875 27.984375 
Q 14.796875 18.265625 18.828125 12.890625 
Q 22.859375 7.515625 30.078125 7.515625 
Q 37.359375 7.515625 41.375 12.890625 
Q 45.40625 18.265625 45.40625 27.984375 
z
M 54.390625 6.78125 
Q 54.390625 -7.171875 48.1875 -13.984375 
Q 42 -20.796875 29.203125 -20.796875 
Q 24.46875 -20.796875 20.265625 -20.09375 
Q 16.0625 -19.390625 12.109375 -17.921875 
L 12.109375 -9.1875 
Q 16.0625 -11.328125 19.921875 -12.34375 
Q 23.78125 -13.375 27.78125 -13.375 
Q 36.625 -13.375 41.015625 -8.765625 
Q 45.40625 -4.15625 45.40625 5.171875 
L 45.40625 9.625 
Q 42.625 4.78125 38.28125 2.390625 
Q 33.9375 0 27.875 0 
Q 17.828125 0 11.671875 7.65625 
Q 5.515625 15.328125 5.515625 27.984375 
Q 5.515625 40.671875 11.671875 48.328125 
Q 17.828125 56 27.875 56 
Q 33.9375 56 38.28125 53.609375 
Q 42.625 51.21875 45.40625 46.390625 
L 45.40625 54.6875 
L 54.390625 54.6875 
z
" id="DejaVuSans-103"/>
      <path d="M 44.28125 53.078125 
L 44.28125 44.578125 
Q 40.484375 46.53125 36.375 47.5 
Q 32.28125 48.484375 27.875 48.484375 
Q 21.1875 48.484375 17.84375 46.4375 
Q 14.5 44.390625 14.5 40.28125 
Q 14.5 37.15625 16.890625 35.375 
Q 19.28125 33.59375 26.515625 31.984375 
L 29.59375 31.296875 
Q 39.15625 29.25 43.1875 25.515625 
Q 47.21875 21.78125 47.21875 15.09375 
Q 47.21875 7.46875 41.1875 3.015625 
Q 35.15625 -1.421875 24.609375 -1.421875 
Q 20.21875 -1.421875 15.453125 -0.5625 
Q 10.6875 0.296875 5.421875 2 
L 5.421875 11.28125 
Q 10.40625 8.6875 15.234375 7.390625 
Q 20.0625 6.109375 24.8125 6.109375 
Q 31.15625 6.109375 34.5625 8.28125 
Q 37.984375 10.453125 37.984375 14.40625 
Q 37.984375 18.0625 35.515625 20.015625 
Q 33.0625 21.96875 24.703125 23.78125 
L 21.578125 24.515625 
Q 13.234375 26.265625 9.515625 29.90625 
Q 5.8125 33.546875 5.8125 39.890625 
Q 5.8125 47.609375 11.28125 51.796875 
Q 16.75 56 26.8125 56 
Q 31.78125 56 36.171875 55.265625 
Q 40.578125 54.546875 44.28125 53.078125 
z
" id="DejaVuSans-115"/>
      <path d="M 37.109375 75.984375 
L 37.109375 68.5 
L 28.515625 68.5 
Q 23.6875 68.5 21.796875 66.546875 
Q 19.921875 64.59375 19.921875 59.515625 
L 19.921875 54.6875 
L 34.71875 54.6875 
L 34.71875 47.703125 
L 19.921875 47.703125 
L 19.921875 0 
L 10.890625 0 
L 10.890625 47.703125 
L 2.296875 47.703125 
L 2.296875 54.6875 
L 10.890625 54.6875 
L 10.890625 58.5 
Q 10.890625 67.625 15.140625 71.796875 
Q 19.390625 75.984375 28.609375 75.984375 
z
" id="DejaVuSans-102"/>
      <path d="M 54.890625 33.015625 
L 54.890625 0 
L 45.90625 0 
L 45.90625 32.71875 
Q 45.90625 40.484375 42.875 44.328125 
Q 39.84375 48.1875 33.796875 48.1875 
Q 26.515625 48.1875 22.3125 43.546875 
Q 18.109375 38.921875 18.109375 30.90625 
L 18.109375 0 
L 9.078125 0 
L 9.078125 75.984375 
L 18.109375 75.984375 
L 18.109375 46.1875 
Q 21.34375 51.125 25.703125 53.5625 
Q 30.078125 56 35.796875 56 
Q 45.21875 56 50.046875 50.171875 
Q 54.890625 44.34375 54.890625 33.015625 
z
" id="DejaVuSans-104"/>
      <path d="M 45.40625 46.390625 
L 45.40625 75.984375 
L 54.390625 75.984375 
L 54.390625 0 
L 45.40625 0 
L 45.40625 8.203125 
Q 42.578125 3.328125 38.25 0.953125 
Q 33.9375 -1.421875 27.875 -1.421875 
Q 17.96875 -1.421875 11.734375 6.484375 
Q 5.515625 14.40625 5.515625 27.296875 
Q 5.515625 40.1875 11.734375 48.09375 
Q 17.96875 56 27.875 56 
Q 33.9375 56 38.25 53.625 
Q 42.578125 51.265625 45.40625 46.390625 
z
M 14.796875 27.296875 
Q 14.796875 17.390625 18.875 11.75 
Q 22.953125 6.109375 30.078125 6.109375 
Q 37.203125 6.109375 41.296875 11.75 
Q 45.40625 17.390625 45.40625 27.296875 
Q 45.40625 37.203125 41.296875 42.84375 
Q 37.203125 48.484375 30.078125 48.484375 
Q 22.953125 48.484375 18.875 42.84375 
Q 14.796875 37.203125 14.796875 27.296875 
z
" id="DejaVuSans-100"/>
      <path d="M 32.171875 -5.078125 
Q 28.375 -14.84375 24.75 -17.8125 
Q 21.140625 -20.796875 15.09375 -20.796875 
L 7.90625 -20.796875 
L 7.90625 -13.28125 
L 13.1875 -13.28125 
Q 16.890625 -13.28125 18.9375 -11.515625 
Q 21 -9.765625 23.484375 -3.21875 
L 25.09375 0.875 
L 2.984375 54.6875 
L 12.5 54.6875 
L 29.59375 11.921875 
L 46.6875 54.6875 
L 56.203125 54.6875 
z
" id="DejaVuSans-121"/>
     </defs>
     <use xlink:href="#DejaVuSans-84"/>
     <use x="44.083984" xlink:href="#DejaVuSans-101"/>
     <use x="105.607422" xlink:href="#DejaVuSans-109"/>
     <use x="203.019531" xlink:href="#DejaVuSans-112"/>
     <use x="266.496094" xlink:href="#DejaVuSans-101"/>
     <use x="328.019531" xlink:href="#DejaVuSans-114"/>
     <use x="369.132812" xlink:href="#DejaVuSans-97"/>
     <use x="430.412109" xlink:href="#DejaVuSans-116"/>
     <use x="469.621094" xlink:href="#DejaVuSans-117"/>
     <use x="533" xlink:href="#DejaVuSans-114"/>
     <use x="571.863281" xlink:href="#DejaVuSans-101"/>
     <use x="633.386719" xlink:href="#DejaVuSans-32"/>
     <use x="665.173828" xlink:href="#DejaVuSans-112"/>
     <use x="728.650391" xlink:href="#DejaVuSans-114"/>
     <use x="767.513672" xlink:href="#DejaVuSans-111"/>
     <use x="828.695312" xlink:href="#DejaVuSans-103"/>
     <use x="892.171875" xlink:href="#DejaVuSans-114"/>
     <use x="931.035156" xlink:href="#DejaVuSans-101"/>
     <use x="992.558594" xlink:href="#DejaVuSans-115"/>
     <use x="1044.658203" xlink:href="#DejaVuSans-115"/>
     <use x="1096.757812" xlink:href="#DejaVuSans-32"/>
     <use x="1128.544922" xlink:href="#DejaVuSans-111"/>
     <use x="1189.726562" xlink:href="#DejaVuSans-102"/>
     <use x="1224.931641" xlink:href="#DejaVuSans-32"/>
     <use x="1256.71875" xlink:href="#DejaVuSans-116"/>
     <use x="1295.927734" xlink:href="#DejaVuSans-104"/>
     <use x="1359.306641" xlink:href="#DejaVuSans-101"/>
     <use x="1420.830078" xlink:href="#DejaVuSans-32"/>
     <use x="1452.617188" xlink:href="#DejaVuSans-112"/>
     <use x="1516.09375" xlink:href="#DejaVuSans-97"/>
     <use x="1577.373047" xlink:href="#DejaVuSans-115"/>
     <use x="1629.472656" xlink:href="#DejaVuSans-116"/>
     <use x="1668.681641" xlink:href="#DejaVuSans-32"/>
     <use x="1700.46875" xlink:href="#DejaVuSans-51"/>
     <use x="1764.091797" xlink:href="#DejaVuSans-32"/>
     <use x="1795.878906" xlink:href="#DejaVuSans-100"/>
     <use x="1859.355469" xlink:href="#DejaVuSans-97"/>
     <use x="1920.634766" xlink:href="#DejaVuSans-121"/>
     <use x="1979.814453" xlink:href="#DejaVuSans-115"/>
    </g>
   </g>
  </g>
 </g>
 <defs>
  <clipPath id="p7b9d641f58">
   <rect height="266.112" width="357.12" x="57.6" y="41.472"/>
  </clipPath>
 </defs>
</svg>
