<?xml version="1.0" encoding="utf-8" standalone="no"?>
<!DOCTYPE svg PUBLIC "-//W3C//DTD SVG 1.1//EN"
  "http://www.w3.org/Graphics/SVG/1.1/DTD/svg11.dtd">
<!-- Created with matplotlib (https://matplotlib.org/) -->
<svg height="266.112pt" version="1.1" viewBox="0 0 357.12 266.112" width="357.12pt" xmlns="http://www.w3.org/2000/svg" xmlns:xlink="http://www.w3.org/1999/xlink">
 <metadata>
  <rdf:RDF xmlns:cc="http://creativecommons.org/ns#" xmlns:dc="http://purl.org/dc/elements/1.1/" xmlns:rdf="http://www.w3.org/1999/02/22-rdf-syntax-ns#">
   <cc:Work>
    <dc:type rdf:resource="http://purl.org/dc/dcmitype/StillImage"/>
    <dc:date>2021-05-31T10:23:06.325886</dc:date>
    <dc:format>image/svg+xml</dc:format>
    <dc:creator>
     <cc:Agent>
      <dc:title>Matplotlib v3.3.3, https://matplotlib.org/</dc:title>
     </cc:Agent>
    </dc:creator>
   </cc:Work>
  </rdf:RDF>
 </metadata>
 <defs>
  <style type="text/css">*{stroke-linecap:butt;stroke-linejoin:round;}</style>
 </defs>
 <g id="figure_1">
  <g id="patch_1">
   <path d="M 0 266.112 
L 357.12 266.112 
L 357.12 0 
L 0 0 
z
" style="fill:none;"/>
  </g>
  <g id="axes_1">
   <g id="matplotlib.axis_1">
    <g id="xtick_1"/>
    <g id="xtick_2"/>
    <g id="xtick_3"/>
    <g id="xtick_4"/>
    <g id="xtick_5"/>
   </g>
   <g id="matplotlib.axis_2">
    <g id="ytick_1"/>
    <g id="ytick_2"/>
    <g id="ytick_3"/>
    <g id="ytick_4"/>
    <g id="ytick_5"/>
    <g id="ytick_6"/>
    <g id="ytick_7"/>
    <g id="ytick_8"/>
    <g id="ytick_9"/>
   </g>
   <g id="line2d_1">
    <path clip-path="url(#p41efc5a28a)" d="M 16.232727 183.525517 
L 18.184558 162.778053 
L 20.136389 144.007883 
L 22.08822 127.231709 
L 24.040051 112.466235 
L 25.991882 99.728164 
L 27.293103 92.3707 
L 28.594323 85.926677 
L 29.895544 80.401043 
L 31.196764 75.798748 
L 32.497985 72.12474 
L 33.799206 69.38397 
L 34.449816 68.365095 
L 35.100426 67.581385 
L 35.751037 67.033458 
L 36.401647 66.721934 
L 37.052257 66.647431 
L 37.702868 66.810568 
L 38.353478 67.211963 
L 39.004088 67.852235 
L 39.654698 68.732002 
L 40.305309 69.851883 
L 41.606529 72.814463 
L 42.90775 76.744922 
L 44.208971 81.648211 
L 45.510191 87.529278 
L 46.811412 94.369687 
L 48.763243 106.010311 
L 55.269346 146.569883 
L 56.570567 153.122086 
L 57.871787 158.568198 
L 59.173008 162.656996 
L 59.823618 164.113896 
L 60.474228 165.137259 
L 61.124839 165.705129 
L 61.775449 165.838871 
L 62.426059 165.572256 
L 63.07667 164.939056 
L 63.72728 163.973045 
L 64.37789 162.707995 
L 65.679111 159.415867 
L 66.980332 155.332855 
L 68.932163 148.316449 
L 72.185214 136.495581 
L 73.486435 132.510863 
L 74.787655 129.356346 
L 75.438266 128.174657 
L 76.088876 127.283082 
L 76.739486 126.663287 
L 77.390097 126.293368 
L 78.040707 126.15142 
L 78.691317 126.21554 
L 79.341927 126.463823 
L 79.992538 126.874365 
L 81.293758 128.094611 
L 82.594979 129.701044 
L 87.149251 135.834859 
L 88.450472 137.010628 
L 89.101082 137.392866 
L 89.751692 137.608802 
L 90.402303 137.637568 
L 91.052913 137.474376 
L 91.703523 137.127115 
L 92.354134 136.60402 
L 93.655354 135.06326 
L 94.956575 132.917967 
L 96.257796 130.234011 
L 97.559016 127.077262 
L 99.510847 121.59974 
L 101.462678 115.428951 
L 104.71573 104.207519 
L 107.968781 92.916453 
L 109.920612 86.976598 
L 111.221833 83.678715 
L 112.523053 81.086397 
L 113.173664 80.101953 
L 113.824274 79.350456 
L 114.474884 78.850755 
L 115.125495 78.621705 
L 115.776105 78.682154 
L 116.426715 79.050956 
L 117.077326 79.746963 
L 117.727936 80.789024 
L 118.378546 82.195993 
L 119.029156 83.986721 
L 119.679767 86.179966 
L 120.980987 91.762603 
L 122.282208 98.759207 
L 123.583429 106.941032 
L 125.53526 120.935669 
L 128.137701 141.608472 
L 132.691973 178.185114 
L 134.643804 192.015199 
L 135.945025 200.085965 
L 137.246245 207.082872 
L 138.547466 212.889353 
L 139.848686 217.388842 
L 140.499297 219.112036 
L 141.149907 220.46477 
L 141.800517 221.432473 
L 142.451128 222.000573 
L 143.101738 222.154499 
L 143.752348 221.879682 
L 144.402959 221.161549 
L 145.053569 219.985531 
L 145.704179 218.337055 
L 146.35479 216.201553 
L 147.0054 213.564451 
L 148.306621 206.72717 
L 149.607841 197.717004 
L 150.909062 186.697027 
L 152.860893 167.470459 
L 158.716385 106.323164 
L 160.017606 95.277171 
L 161.318827 86.252597 
L 161.969437 82.656556 
L 162.620047 79.755726 
L 163.270658 77.613393 
L 163.921268 76.292707 
L 164.571878 75.820181 
L 165.222489 76.136292 
L 165.873099 77.169183 
L 166.523709 78.846995 
L 167.17432 81.097869 
L 168.47554 87.031371 
L 169.776761 94.394823 
L 172.379202 111.112104 
L 174.331033 123.128105 
L 175.632254 129.812345 
L 176.282864 132.540961 
L 176.933474 134.764763 
L 177.584085 136.411893 
L 178.234695 137.410493 
L 178.885305 137.691692 
L 179.535915 137.255357 
L 180.186526 136.170089 
L 180.837136 134.507479 
L 181.487746 132.339116 
L 182.788967 126.771496 
L 184.090188 120.039952 
L 187.99385 98.588992 
L 189.29507 92.928972 
L 189.94568 90.70055 
L 190.596291 88.96864 
L 191.246901 87.804832 
L 191.897511 87.280716 
L 192.548122 87.467884 
L 193.198732 88.437925 
L 193.849342 90.249235 
L 194.499953 92.86819 
L 195.150563 96.221981 
L 196.451784 104.842254 
L 197.753004 115.526419 
L 199.704835 134.145767 
L 204.259107 179.478447 
L 205.560328 190.289655 
L 206.861549 199.079317 
L 207.512159 202.533684 
L 208.162769 205.263849 
L 208.813379 207.224568 
L 209.46399 208.444545 
L 210.1146 208.964712 
L 210.76521 208.826002 
L 211.415821 208.069346 
L 212.066431 206.735676 
L 212.717041 204.865925 
L 213.367652 202.501022 
L 214.668872 196.449495 
L 215.970093 188.90855 
L 217.921924 175.520781 
L 220.524365 155.513707 
L 223.777417 130.709885 
L 225.729248 117.564033 
L 227.030468 109.839196 
L 228.331689 103.096574 
L 229.632909 97.465562 
L 230.93413 93.075556 
L 231.58474 91.386367 
L 232.235351 90.055952 
L 232.885961 89.100487 
L 233.536571 88.536146 
L 234.187182 88.379103 
L 234.837792 88.645534 
L 235.488402 89.351611 
L 236.139013 90.51351 
L 236.789623 92.147406 
L 237.440233 94.269473 
L 238.090844 96.890268 
L 239.392064 103.466916 
L 240.693285 111.444863 
L 242.645116 125.043919 
L 245.898167 148.269759 
L 247.199388 156.429292 
L 248.500608 163.260159 
L 249.151219 166.035159 
L 249.801829 168.307369 
L 250.452439 170.019917 
L 251.10305 171.115927 
L 251.75366 171.538526 
L 252.40427 171.230852 
L 253.054881 170.159993 
L 253.705491 168.366103 
L 254.356101 165.903229 
L 255.006712 162.825418 
L 256.307932 155.041169 
L 257.609153 145.445726 
L 259.560984 128.602381 
L 266.067087 68.788051 
L 267.368308 59.389794 
L 268.669528 51.722455 
L 269.970749 45.795866 
L 270.621359 43.476334 
L 271.271969 41.581168 
L 271.92258 40.106758 
L 272.57319 39.049499 
L 273.2238 38.405783 
L 273.874411 38.172001 
L 274.525021 38.344547 
L 275.175631 38.919813 
L 275.826242 39.894191 
L 276.476852 41.264075 
L 277.127462 43.025856 
L 277.778073 45.175927 
L 279.079293 50.62651 
L 280.380514 57.586963 
L 281.681734 66.028426 
L 282.982955 75.895164 
L 284.934786 92.871184 
L 287.537227 118.102158 
L 292.091499 163.126127 
L 294.04333 180.318123 
L 295.344551 190.380163 
L 296.645772 198.997057 
L 297.946992 205.957452 
L 299.248213 211.303446 
L 300.549433 215.13632 
L 301.200044 216.516988 
L 301.850654 217.557358 
L 302.501264 218.270089 
L 303.151875 218.667842 
L 303.802485 218.763277 
L 304.453095 218.569054 
L 305.103706 218.097834 
L 305.754316 217.362278 
L 306.404926 216.375044 
L 307.706147 213.696189 
L 309.007367 210.162551 
L 310.308588 205.875413 
L 311.609809 200.936019 
L 313.56164 192.49515 
L 315.513471 183.010829 
L 318.115912 169.108167 
L 321.368963 150.416155 
L 328.525677 108.760022 
L 331.128118 95.000024 
L 333.079949 85.660149 
L 335.03178 77.395827 
L 336.333001 72.588449 
L 337.634221 68.416058 
L 338.935442 64.941438 
L 340.236662 62.227375 
L 340.887273 61.175172 
L 340.887273 61.175172 
" style="fill:none;stroke:#00b894;stroke-dasharray:3.7,1.6;stroke-dashoffset:0;"/>
    <defs>
     <path d="M 0 15 
C 3.978047 15 7.793698 13.419505 10.606602 10.606602 
C 13.419505 7.793698 15 3.978047 15 0 
C 15 -3.978047 13.419505 -7.793698 10.606602 -10.606602 
C 7.793698 -13.419505 3.978047 -15 0 -15 
C -3.978047 -15 -7.793698 -13.419505 -10.606602 -10.606602 
C -13.419505 -7.793698 -15 -3.978047 -15 0 
C -15 3.978047 -13.419505 7.793698 -10.606602 10.606602 
C -7.793698 13.419505 -3.978047 15 0 15 
z
" id="me2852f55e5"/>
    </defs>
    <g clip-path="url(#p41efc5a28a)">
     <use style="fill:#55efc4;" x="16.232727" xlink:href="#me2852f55e5" y="183.525517"/>
     <use style="fill:#55efc4;" x="340.887273" xlink:href="#me2852f55e5" y="61.175172"/>
    </g>
   </g>
   <g id="text_1">
    <!-- 25.7 -->
    <g style="fill:#ffffff;" transform="translate(4.232727 187.525517)scale(0.1 -0.1)">
     <defs>
      <path d="M 28.8125 13.8125 
L 60.890625 13.8125 
L 60.890625 0 
L 7.90625 0 
L 7.90625 13.8125 
L 34.515625 37.3125 
Q 38.09375 40.53125 39.796875 43.609375 
Q 41.5 46.6875 41.5 50 
Q 41.5 55.125 38.0625 58.25 
Q 34.625 61.375 28.90625 61.375 
Q 24.515625 61.375 19.28125 59.5 
Q 14.0625 57.625 8.109375 53.90625 
L 8.109375 69.921875 
Q 14.453125 72.015625 20.65625 73.109375 
Q 26.859375 74.21875 32.8125 74.21875 
Q 45.90625 74.21875 53.15625 68.453125 
Q 60.40625 62.703125 60.40625 52.390625 
Q 60.40625 46.4375 57.328125 41.28125 
Q 54.25 36.140625 44.390625 27.484375 
z
" id="DejaVuSans-Bold-50"/>
      <path d="M 10.59375 72.90625 
L 57.328125 72.90625 
L 57.328125 59.078125 
L 25.59375 59.078125 
L 25.59375 47.796875 
Q 27.734375 48.390625 29.90625 48.703125 
Q 32.078125 49.03125 34.421875 49.03125 
Q 47.75 49.03125 55.171875 42.359375 
Q 62.59375 35.6875 62.59375 23.78125 
Q 62.59375 11.96875 54.515625 5.265625 
Q 46.4375 -1.421875 32.078125 -1.421875 
Q 25.875 -1.421875 19.796875 -0.21875 
Q 13.71875 0.984375 7.71875 3.421875 
L 7.71875 18.21875 
Q 13.671875 14.796875 19.015625 13.078125 
Q 24.359375 11.375 29.109375 11.375 
Q 35.9375 11.375 39.859375 14.71875 
Q 43.796875 18.0625 43.796875 23.78125 
Q 43.796875 29.546875 39.859375 32.859375 
Q 35.9375 36.1875 29.109375 36.1875 
Q 25.046875 36.1875 20.453125 35.125 
Q 15.875 34.078125 10.59375 31.890625 
z
" id="DejaVuSans-Bold-53"/>
      <path d="M 10.203125 18.890625 
L 27.78125 18.890625 
L 27.78125 0 
L 10.203125 0 
z
" id="DejaVuSans-Bold-46"/>
      <path d="M 6.6875 72.90625 
L 61.625 72.90625 
L 61.625 62.3125 
L 33.203125 0 
L 14.890625 0 
L 41.796875 59.078125 
L 6.6875 59.078125 
z
" id="DejaVuSans-Bold-55"/>
     </defs>
     <use xlink:href="#DejaVuSans-Bold-50"/>
     <use x="69.580078" xlink:href="#DejaVuSans-Bold-53"/>
     <use x="139.160156" xlink:href="#DejaVuSans-Bold-46"/>
     <use x="177.148438" xlink:href="#DejaVuSans-Bold-55"/>
    </g>
   </g>
   <g id="text_2">
    <!-- 29.7 -->
    <g style="fill:#ffffff;" transform="translate(328.887273 65.175172)scale(0.1 -0.1)">
     <defs>
      <path d="M 10.015625 1.609375 
L 10.015625 15.09375 
Q 14.5 12.984375 18.59375 11.9375 
Q 22.703125 10.890625 26.703125 10.890625 
Q 35.109375 10.890625 39.796875 15.546875 
Q 44.484375 20.21875 45.3125 29.390625 
Q 42 26.953125 38.234375 25.734375 
Q 34.46875 24.515625 30.078125 24.515625 
Q 18.890625 24.515625 12.03125 31.03125 
Q 5.171875 37.546875 5.171875 48.1875 
Q 5.171875 59.96875 12.8125 67.046875 
Q 20.453125 74.125 33.296875 74.125 
Q 47.5625 74.125 55.375 64.5 
Q 63.1875 54.890625 63.1875 37.3125 
Q 63.1875 19.234375 54.046875 8.90625 
Q 44.921875 -1.421875 29 -1.421875 
Q 23.875 -1.421875 19.1875 -0.65625 
Q 14.5 0.09375 10.015625 1.609375 
z
M 33.203125 36.71875 
Q 38.140625 36.71875 40.625 39.90625 
Q 43.109375 43.109375 43.109375 49.515625 
Q 43.109375 55.859375 40.625 59.078125 
Q 38.140625 62.3125 33.203125 62.3125 
Q 28.265625 62.3125 25.78125 59.078125 
Q 23.296875 55.859375 23.296875 49.515625 
Q 23.296875 43.109375 25.78125 39.90625 
Q 28.265625 36.71875 33.203125 36.71875 
z
" id="DejaVuSans-Bold-57"/>
     </defs>
     <use xlink:href="#DejaVuSans-Bold-50"/>
     <use x="69.580078" xlink:href="#DejaVuSans-Bold-57"/>
     <use x="139.160156" xlink:href="#DejaVuSans-Bold-46"/>
     <use x="177.148438" xlink:href="#DejaVuSans-Bold-55"/>
    </g>
   </g>
  </g>
 </g>
 <defs>
  <clipPath id="p41efc5a28a">
   <rect height="266.112" width="357.12" x="0" y="-0"/>
  </clipPath>
 </defs>
</svg>
