<?xml version="1.0" encoding="utf-8" standalone="no"?>
<!DOCTYPE svg PUBLIC "-//W3C//DTD SVG 1.1//EN"
  "http://www.w3.org/Graphics/SVG/1.1/DTD/svg11.dtd">
<!-- Created with matplotlib (https://matplotlib.org/) -->
<svg height="538.353234pt" version="1.1" viewBox="0 0 816.519063 538.353234" width="816.519063pt" xmlns="http://www.w3.org/2000/svg" xmlns:xlink="http://www.w3.org/1999/xlink">
 <metadata>
  <rdf:RDF xmlns:cc="http://creativecommons.org/ns#" xmlns:dc="http://purl.org/dc/elements/1.1/" xmlns:rdf="http://www.w3.org/1999/02/22-rdf-syntax-ns#">
   <cc:Work>
    <dc:type rdf:resource="http://purl.org/dc/dcmitype/StillImage"/>
    <dc:date>2022-03-03T22:11:08.238381</dc:date>
    <dc:format>image/svg+xml</dc:format>
    <dc:creator>
     <cc:Agent>
      <dc:title>Matplotlib v3.3.3, https://matplotlib.org/</dc:title>
     </cc:Agent>
    </dc:creator>
   </cc:Work>
  </rdf:RDF>
 </metadata>
 <defs>
  <style type="text/css">*{stroke-linecap:butt;stroke-linejoin:round;}</style>
 </defs>
 <g id="figure_1">
  <g id="patch_1">
   <path d="M 0 538.353234 
L 816.519063 538.353234 
L 816.519063 0 
L 0 0 
z
" style="fill:none;"/>
  </g>
  <g id="axes_1">
   <g id="patch_2">
    <path d="M 75.0225 451.498359 
L 744.6225 451.498359 
L 744.6225 7.978359 
L 75.0225 7.978359 
z
" style="fill:none;"/>
   </g>
   <g id="matplotlib.axis_1">
    <g id="xtick_1">
     <g id="line2d_1">
      <defs>
       <path d="M 0 0 
L 0 16 
" id="m6fdbcd7e2a" style="stroke:#55efc4;stroke-width:3;"/>
      </defs>
      <g>
       <use style="fill:#55efc4;stroke:#55efc4;stroke-width:3;" x="75.0225" xlink:href="#m6fdbcd7e2a" y="451.498359"/>
      </g>
     </g>
     <g id="text_1">
      <!-- 00:00 -->
      <g style="fill:#55efc4;" transform="translate(44.762812 486.955078)scale(0.21 -0.21)">
       <defs>
        <path d="M 31.78125 66.40625 
Q 24.171875 66.40625 20.328125 58.90625 
Q 16.5 51.421875 16.5 36.375 
Q 16.5 21.390625 20.328125 13.890625 
Q 24.171875 6.390625 31.78125 6.390625 
Q 39.453125 6.390625 43.28125 13.890625 
Q 47.125 21.390625 47.125 36.375 
Q 47.125 51.421875 43.28125 58.90625 
Q 39.453125 66.40625 31.78125 66.40625 
z
M 31.78125 74.21875 
Q 44.046875 74.21875 50.515625 64.515625 
Q 56.984375 54.828125 56.984375 36.375 
Q 56.984375 17.96875 50.515625 8.265625 
Q 44.046875 -1.421875 31.78125 -1.421875 
Q 19.53125 -1.421875 13.0625 8.265625 
Q 6.59375 17.96875 6.59375 36.375 
Q 6.59375 54.828125 13.0625 64.515625 
Q 19.53125 74.21875 31.78125 74.21875 
z
" id="DejaVuSans-48"/>
        <path d="M 11.71875 12.40625 
L 22.015625 12.40625 
L 22.015625 0 
L 11.71875 0 
z
M 11.71875 51.703125 
L 22.015625 51.703125 
L 22.015625 39.3125 
L 11.71875 39.3125 
z
" id="DejaVuSans-58"/>
       </defs>
       <use xlink:href="#DejaVuSans-48"/>
       <use x="63.623047" xlink:href="#DejaVuSans-48"/>
       <use x="127.246094" xlink:href="#DejaVuSans-58"/>
       <use x="160.9375" xlink:href="#DejaVuSans-48"/>
       <use x="224.560547" xlink:href="#DejaVuSans-48"/>
      </g>
      <!-- 02-Mar -->
      <g style="fill:#55efc4;" transform="translate(38.0625 510.470484)scale(0.21 -0.21)">
       <defs>
        <path d="M 19.1875 8.296875 
L 53.609375 8.296875 
L 53.609375 0 
L 7.328125 0 
L 7.328125 8.296875 
Q 12.9375 14.109375 22.625 23.890625 
Q 32.328125 33.6875 34.8125 36.53125 
Q 39.546875 41.84375 41.421875 45.53125 
Q 43.3125 49.21875 43.3125 52.78125 
Q 43.3125 58.59375 39.234375 62.25 
Q 35.15625 65.921875 28.609375 65.921875 
Q 23.96875 65.921875 18.8125 64.3125 
Q 13.671875 62.703125 7.8125 59.421875 
L 7.8125 69.390625 
Q 13.765625 71.78125 18.9375 73 
Q 24.125 74.21875 28.421875 74.21875 
Q 39.75 74.21875 46.484375 68.546875 
Q 53.21875 62.890625 53.21875 53.421875 
Q 53.21875 48.921875 51.53125 44.890625 
Q 49.859375 40.875 45.40625 35.40625 
Q 44.1875 33.984375 37.640625 27.21875 
Q 31.109375 20.453125 19.1875 8.296875 
z
" id="DejaVuSans-50"/>
        <path d="M 4.890625 31.390625 
L 31.203125 31.390625 
L 31.203125 23.390625 
L 4.890625 23.390625 
z
" id="DejaVuSans-45"/>
        <path d="M 9.8125 72.90625 
L 24.515625 72.90625 
L 43.109375 23.296875 
L 61.8125 72.90625 
L 76.515625 72.90625 
L 76.515625 0 
L 66.890625 0 
L 66.890625 64.015625 
L 48.09375 14.015625 
L 38.1875 14.015625 
L 19.390625 64.015625 
L 19.390625 0 
L 9.8125 0 
z
" id="DejaVuSans-77"/>
        <path d="M 34.28125 27.484375 
Q 23.390625 27.484375 19.1875 25 
Q 14.984375 22.515625 14.984375 16.5 
Q 14.984375 11.71875 18.140625 8.90625 
Q 21.296875 6.109375 26.703125 6.109375 
Q 34.1875 6.109375 38.703125 11.40625 
Q 43.21875 16.703125 43.21875 25.484375 
L 43.21875 27.484375 
z
M 52.203125 31.203125 
L 52.203125 0 
L 43.21875 0 
L 43.21875 8.296875 
Q 40.140625 3.328125 35.546875 0.953125 
Q 30.953125 -1.421875 24.3125 -1.421875 
Q 15.921875 -1.421875 10.953125 3.296875 
Q 6 8.015625 6 15.921875 
Q 6 25.140625 12.171875 29.828125 
Q 18.359375 34.515625 30.609375 34.515625 
L 43.21875 34.515625 
L 43.21875 35.40625 
Q 43.21875 41.609375 39.140625 45 
Q 35.0625 48.390625 27.6875 48.390625 
Q 23 48.390625 18.546875 47.265625 
Q 14.109375 46.140625 10.015625 43.890625 
L 10.015625 52.203125 
Q 14.9375 54.109375 19.578125 55.046875 
Q 24.21875 56 28.609375 56 
Q 40.484375 56 46.34375 49.84375 
Q 52.203125 43.703125 52.203125 31.203125 
z
" id="DejaVuSans-97"/>
        <path d="M 41.109375 46.296875 
Q 39.59375 47.171875 37.8125 47.578125 
Q 36.03125 48 33.890625 48 
Q 26.265625 48 22.1875 43.046875 
Q 18.109375 38.09375 18.109375 28.8125 
L 18.109375 0 
L 9.078125 0 
L 9.078125 54.6875 
L 18.109375 54.6875 
L 18.109375 46.1875 
Q 20.953125 51.171875 25.484375 53.578125 
Q 30.03125 56 36.53125 56 
Q 37.453125 56 38.578125 55.875 
Q 39.703125 55.765625 41.0625 55.515625 
z
" id="DejaVuSans-114"/>
       </defs>
       <use xlink:href="#DejaVuSans-48"/>
       <use x="63.623047" xlink:href="#DejaVuSans-50"/>
       <use x="127.246094" xlink:href="#DejaVuSans-45"/>
       <use x="163.330078" xlink:href="#DejaVuSans-77"/>
       <use x="249.609375" xlink:href="#DejaVuSans-97"/>
       <use x="310.888672" xlink:href="#DejaVuSans-114"/>
      </g>
      <!-- 2022 -->
      <g style="fill:#55efc4;" transform="translate(48.3 533.985891)scale(0.21 -0.21)">
       <use xlink:href="#DejaVuSans-50"/>
       <use x="63.623047" xlink:href="#DejaVuSans-48"/>
       <use x="127.246094" xlink:href="#DejaVuSans-50"/>
       <use x="190.869141" xlink:href="#DejaVuSans-50"/>
      </g>
     </g>
    </g>
    <g id="xtick_2">
     <g id="line2d_2">
      <g>
       <use style="fill:#55efc4;stroke:#55efc4;stroke-width:3;" x="422.992186" xlink:href="#m6fdbcd7e2a" y="451.498359"/>
      </g>
     </g>
     <g id="text_2">
      <!-- 00:00 -->
      <g style="fill:#55efc4;" transform="translate(392.732499 486.955078)scale(0.21 -0.21)">
       <use xlink:href="#DejaVuSans-48"/>
       <use x="63.623047" xlink:href="#DejaVuSans-48"/>
       <use x="127.246094" xlink:href="#DejaVuSans-58"/>
       <use x="160.9375" xlink:href="#DejaVuSans-48"/>
       <use x="224.560547" xlink:href="#DejaVuSans-48"/>
      </g>
      <!-- 03-Mar -->
      <g style="fill:#55efc4;" transform="translate(386.032186 510.470484)scale(0.21 -0.21)">
       <defs>
        <path d="M 40.578125 39.3125 
Q 47.65625 37.796875 51.625 33 
Q 55.609375 28.21875 55.609375 21.1875 
Q 55.609375 10.40625 48.1875 4.484375 
Q 40.765625 -1.421875 27.09375 -1.421875 
Q 22.515625 -1.421875 17.65625 -0.515625 
Q 12.796875 0.390625 7.625 2.203125 
L 7.625 11.71875 
Q 11.71875 9.328125 16.59375 8.109375 
Q 21.484375 6.890625 26.8125 6.890625 
Q 36.078125 6.890625 40.9375 10.546875 
Q 45.796875 14.203125 45.796875 21.1875 
Q 45.796875 27.640625 41.28125 31.265625 
Q 36.765625 34.90625 28.71875 34.90625 
L 20.21875 34.90625 
L 20.21875 43.015625 
L 29.109375 43.015625 
Q 36.375 43.015625 40.234375 45.921875 
Q 44.09375 48.828125 44.09375 54.296875 
Q 44.09375 59.90625 40.109375 62.90625 
Q 36.140625 65.921875 28.71875 65.921875 
Q 24.65625 65.921875 20.015625 65.03125 
Q 15.375 64.15625 9.8125 62.3125 
L 9.8125 71.09375 
Q 15.4375 72.65625 20.34375 73.4375 
Q 25.25 74.21875 29.59375 74.21875 
Q 40.828125 74.21875 47.359375 69.109375 
Q 53.90625 64.015625 53.90625 55.328125 
Q 53.90625 49.265625 50.4375 45.09375 
Q 46.96875 40.921875 40.578125 39.3125 
z
" id="DejaVuSans-51"/>
       </defs>
       <use xlink:href="#DejaVuSans-48"/>
       <use x="63.623047" xlink:href="#DejaVuSans-51"/>
       <use x="127.246094" xlink:href="#DejaVuSans-45"/>
       <use x="163.330078" xlink:href="#DejaVuSans-77"/>
       <use x="249.609375" xlink:href="#DejaVuSans-97"/>
       <use x="310.888672" xlink:href="#DejaVuSans-114"/>
      </g>
     </g>
    </g>
    <g id="xtick_3">
     <g id="line2d_3">
      <g>
       <use style="fill:#55efc4;stroke:#55efc4;stroke-width:3;" x="744.6225" xlink:href="#m6fdbcd7e2a" y="451.498359"/>
      </g>
     </g>
    </g>
    <g id="xtick_4">
     <g id="line2d_4">
      <defs>
       <path d="M 0 0 
L 0 10 
" id="m37204707c8" style="stroke:#ffffff;stroke-width:3;"/>
      </defs>
      <g>
       <use style="fill:#ffffff;stroke:#ffffff;stroke-width:3;" x="162.014922" xlink:href="#m37204707c8" y="451.498359"/>
      </g>
     </g>
     <g id="text_3">
      <!-- 06:00 -->
      <g style="fill:#ffffff;" transform="translate(131.755234 480.855078)scale(0.21 -0.21)">
       <defs>
        <path d="M 33.015625 40.375 
Q 26.375 40.375 22.484375 35.828125 
Q 18.609375 31.296875 18.609375 23.390625 
Q 18.609375 15.53125 22.484375 10.953125 
Q 26.375 6.390625 33.015625 6.390625 
Q 39.65625 6.390625 43.53125 10.953125 
Q 47.40625 15.53125 47.40625 23.390625 
Q 47.40625 31.296875 43.53125 35.828125 
Q 39.65625 40.375 33.015625 40.375 
z
M 52.59375 71.296875 
L 52.59375 62.3125 
Q 48.875 64.0625 45.09375 64.984375 
Q 41.3125 65.921875 37.59375 65.921875 
Q 27.828125 65.921875 22.671875 59.328125 
Q 17.53125 52.734375 16.796875 39.40625 
Q 19.671875 43.65625 24.015625 45.921875 
Q 28.375 48.1875 33.59375 48.1875 
Q 44.578125 48.1875 50.953125 41.515625 
Q 57.328125 34.859375 57.328125 23.390625 
Q 57.328125 12.15625 50.6875 5.359375 
Q 44.046875 -1.421875 33.015625 -1.421875 
Q 20.359375 -1.421875 13.671875 8.265625 
Q 6.984375 17.96875 6.984375 36.375 
Q 6.984375 53.65625 15.1875 63.9375 
Q 23.390625 74.21875 37.203125 74.21875 
Q 40.921875 74.21875 44.703125 73.484375 
Q 48.484375 72.75 52.59375 71.296875 
z
" id="DejaVuSans-54"/>
       </defs>
       <use xlink:href="#DejaVuSans-48"/>
       <use x="63.623047" xlink:href="#DejaVuSans-54"/>
       <use x="127.246094" xlink:href="#DejaVuSans-58"/>
       <use x="160.9375" xlink:href="#DejaVuSans-48"/>
       <use x="224.560547" xlink:href="#DejaVuSans-48"/>
      </g>
     </g>
    </g>
    <g id="xtick_5">
     <g id="line2d_5">
      <g>
       <use style="fill:#ffffff;stroke:#ffffff;stroke-width:3;" x="249.007343" xlink:href="#m37204707c8" y="451.498359"/>
      </g>
     </g>
     <g id="text_4">
      <!-- 12:00 -->
      <g style="fill:#ffffff;" transform="translate(218.747656 480.855078)scale(0.21 -0.21)">
       <defs>
        <path d="M 12.40625 8.296875 
L 28.515625 8.296875 
L 28.515625 63.921875 
L 10.984375 60.40625 
L 10.984375 69.390625 
L 28.421875 72.90625 
L 38.28125 72.90625 
L 38.28125 8.296875 
L 54.390625 8.296875 
L 54.390625 0 
L 12.40625 0 
z
" id="DejaVuSans-49"/>
       </defs>
       <use xlink:href="#DejaVuSans-49"/>
       <use x="63.623047" xlink:href="#DejaVuSans-50"/>
       <use x="127.246094" xlink:href="#DejaVuSans-58"/>
       <use x="160.9375" xlink:href="#DejaVuSans-48"/>
       <use x="224.560547" xlink:href="#DejaVuSans-48"/>
      </g>
     </g>
    </g>
    <g id="xtick_6">
     <g id="line2d_6">
      <g>
       <use style="fill:#ffffff;stroke:#ffffff;stroke-width:3;" x="335.999765" xlink:href="#m37204707c8" y="451.498359"/>
      </g>
     </g>
     <g id="text_5">
      <!-- 18:00 -->
      <g style="fill:#ffffff;" transform="translate(305.740077 480.855078)scale(0.21 -0.21)">
       <defs>
        <path d="M 31.78125 34.625 
Q 24.75 34.625 20.71875 30.859375 
Q 16.703125 27.09375 16.703125 20.515625 
Q 16.703125 13.921875 20.71875 10.15625 
Q 24.75 6.390625 31.78125 6.390625 
Q 38.8125 6.390625 42.859375 10.171875 
Q 46.921875 13.96875 46.921875 20.515625 
Q 46.921875 27.09375 42.890625 30.859375 
Q 38.875 34.625 31.78125 34.625 
z
M 21.921875 38.8125 
Q 15.578125 40.375 12.03125 44.71875 
Q 8.5 49.078125 8.5 55.328125 
Q 8.5 64.0625 14.71875 69.140625 
Q 20.953125 74.21875 31.78125 74.21875 
Q 42.671875 74.21875 48.875 69.140625 
Q 55.078125 64.0625 55.078125 55.328125 
Q 55.078125 49.078125 51.53125 44.71875 
Q 48 40.375 41.703125 38.8125 
Q 48.828125 37.15625 52.796875 32.3125 
Q 56.78125 27.484375 56.78125 20.515625 
Q 56.78125 9.90625 50.3125 4.234375 
Q 43.84375 -1.421875 31.78125 -1.421875 
Q 19.734375 -1.421875 13.25 4.234375 
Q 6.78125 9.90625 6.78125 20.515625 
Q 6.78125 27.484375 10.78125 32.3125 
Q 14.796875 37.15625 21.921875 38.8125 
z
M 18.3125 54.390625 
Q 18.3125 48.734375 21.84375 45.5625 
Q 25.390625 42.390625 31.78125 42.390625 
Q 38.140625 42.390625 41.71875 45.5625 
Q 45.3125 48.734375 45.3125 54.390625 
Q 45.3125 60.0625 41.71875 63.234375 
Q 38.140625 66.40625 31.78125 66.40625 
Q 25.390625 66.40625 21.84375 63.234375 
Q 18.3125 60.0625 18.3125 54.390625 
z
" id="DejaVuSans-56"/>
       </defs>
       <use xlink:href="#DejaVuSans-49"/>
       <use x="63.623047" xlink:href="#DejaVuSans-56"/>
       <use x="127.246094" xlink:href="#DejaVuSans-58"/>
       <use x="160.9375" xlink:href="#DejaVuSans-48"/>
       <use x="224.560547" xlink:href="#DejaVuSans-48"/>
      </g>
     </g>
    </g>
    <g id="xtick_7">
     <g id="line2d_7">
      <g>
       <use style="fill:#ffffff;stroke:#ffffff;stroke-width:3;" x="509.984608" xlink:href="#m37204707c8" y="451.498359"/>
      </g>
     </g>
     <g id="text_6">
      <!-- 06:00 -->
      <g style="fill:#ffffff;" transform="translate(479.72492 480.855078)scale(0.21 -0.21)">
       <use xlink:href="#DejaVuSans-48"/>
       <use x="63.623047" xlink:href="#DejaVuSans-54"/>
       <use x="127.246094" xlink:href="#DejaVuSans-58"/>
       <use x="160.9375" xlink:href="#DejaVuSans-48"/>
       <use x="224.560547" xlink:href="#DejaVuSans-48"/>
      </g>
     </g>
    </g>
    <g id="xtick_8">
     <g id="line2d_8">
      <g>
       <use style="fill:#ffffff;stroke:#ffffff;stroke-width:3;" x="596.977029" xlink:href="#m37204707c8" y="451.498359"/>
      </g>
     </g>
     <g id="text_7">
      <!-- 12:00 -->
      <g style="fill:#ffffff;" transform="translate(566.717342 480.855078)scale(0.21 -0.21)">
       <use xlink:href="#DejaVuSans-49"/>
       <use x="63.623047" xlink:href="#DejaVuSans-50"/>
       <use x="127.246094" xlink:href="#DejaVuSans-58"/>
       <use x="160.9375" xlink:href="#DejaVuSans-48"/>
       <use x="224.560547" xlink:href="#DejaVuSans-48"/>
      </g>
     </g>
    </g>
    <g id="xtick_9">
     <g id="line2d_9">
      <g>
       <use style="fill:#ffffff;stroke:#ffffff;stroke-width:3;" x="683.969451" xlink:href="#m37204707c8" y="451.498359"/>
      </g>
     </g>
     <g id="text_8">
      <!-- 18:00 -->
      <g style="fill:#ffffff;" transform="translate(653.709763 480.855078)scale(0.21 -0.21)">
       <use xlink:href="#DejaVuSans-49"/>
       <use x="63.623047" xlink:href="#DejaVuSans-56"/>
       <use x="127.246094" xlink:href="#DejaVuSans-58"/>
       <use x="160.9375" xlink:href="#DejaVuSans-48"/>
       <use x="224.560547" xlink:href="#DejaVuSans-48"/>
      </g>
     </g>
    </g>
   </g>
   <g id="matplotlib.axis_2">
    <g id="ytick_1">
     <g id="line2d_10">
      <defs>
       <path d="M 0 0 
L -10 0 
" id="m706d70840c" style="stroke:#dd7373;stroke-width:3;"/>
      </defs>
      <g>
       <use style="fill:#dd7373;stroke:#dd7373;stroke-width:3;" x="75.0225" xlink:href="#m706d70840c" y="423.778359"/>
      </g>
     </g>
     <g id="text_9">
      <!-- 28 -->
      <g style="fill:#dd7373;" transform="translate(34.8 431.756719)scale(0.21 -0.21)">
       <use xlink:href="#DejaVuSans-50"/>
       <use x="63.623047" xlink:href="#DejaVuSans-56"/>
      </g>
     </g>
    </g>
    <g id="ytick_2">
     <g id="line2d_11">
      <g>
       <use style="fill:#dd7373;stroke:#dd7373;stroke-width:3;" x="75.0225" xlink:href="#m706d70840c" y="368.338359"/>
      </g>
     </g>
     <g id="text_10">
      <!-- 30 -->
      <g style="fill:#dd7373;" transform="translate(34.8 376.316719)scale(0.21 -0.21)">
       <use xlink:href="#DejaVuSans-51"/>
       <use x="63.623047" xlink:href="#DejaVuSans-48"/>
      </g>
     </g>
    </g>
    <g id="ytick_3">
     <g id="line2d_12">
      <g>
       <use style="fill:#dd7373;stroke:#dd7373;stroke-width:3;" x="75.0225" xlink:href="#m706d70840c" y="312.898359"/>
      </g>
     </g>
     <g id="text_11">
      <!-- 32 -->
      <g style="fill:#dd7373;" transform="translate(34.8 320.876719)scale(0.21 -0.21)">
       <use xlink:href="#DejaVuSans-51"/>
       <use x="63.623047" xlink:href="#DejaVuSans-50"/>
      </g>
     </g>
    </g>
    <g id="ytick_4">
     <g id="line2d_13">
      <g>
       <use style="fill:#dd7373;stroke:#dd7373;stroke-width:3;" x="75.0225" xlink:href="#m706d70840c" y="257.458359"/>
      </g>
     </g>
     <g id="text_12">
      <!-- 34 -->
      <g style="fill:#dd7373;" transform="translate(34.8 265.436719)scale(0.21 -0.21)">
       <defs>
        <path d="M 37.796875 64.3125 
L 12.890625 25.390625 
L 37.796875 25.390625 
z
M 35.203125 72.90625 
L 47.609375 72.90625 
L 47.609375 25.390625 
L 58.015625 25.390625 
L 58.015625 17.1875 
L 47.609375 17.1875 
L 47.609375 0 
L 37.796875 0 
L 37.796875 17.1875 
L 4.890625 17.1875 
L 4.890625 26.703125 
z
" id="DejaVuSans-52"/>
       </defs>
       <use xlink:href="#DejaVuSans-51"/>
       <use x="63.623047" xlink:href="#DejaVuSans-52"/>
      </g>
     </g>
    </g>
    <g id="ytick_5">
     <g id="line2d_14">
      <g>
       <use style="fill:#dd7373;stroke:#dd7373;stroke-width:3;" x="75.0225" xlink:href="#m706d70840c" y="202.018359"/>
      </g>
     </g>
     <g id="text_13">
      <!-- 36 -->
      <g style="fill:#dd7373;" transform="translate(34.8 209.996719)scale(0.21 -0.21)">
       <use xlink:href="#DejaVuSans-51"/>
       <use x="63.623047" xlink:href="#DejaVuSans-54"/>
      </g>
     </g>
    </g>
    <g id="ytick_6">
     <g id="line2d_15">
      <g>
       <use style="fill:#dd7373;stroke:#dd7373;stroke-width:3;" x="75.0225" xlink:href="#m706d70840c" y="146.578359"/>
      </g>
     </g>
     <g id="text_14">
      <!-- 38 -->
      <g style="fill:#dd7373;" transform="translate(34.8 154.556719)scale(0.21 -0.21)">
       <use xlink:href="#DejaVuSans-51"/>
       <use x="63.623047" xlink:href="#DejaVuSans-56"/>
      </g>
     </g>
    </g>
    <g id="ytick_7">
     <g id="line2d_16">
      <g>
       <use style="fill:#dd7373;stroke:#dd7373;stroke-width:3;" x="75.0225" xlink:href="#m706d70840c" y="91.138359"/>
      </g>
     </g>
     <g id="text_15">
      <!-- 40 -->
      <g style="fill:#dd7373;" transform="translate(34.8 99.116719)scale(0.21 -0.21)">
       <use xlink:href="#DejaVuSans-52"/>
       <use x="63.623047" xlink:href="#DejaVuSans-48"/>
      </g>
     </g>
    </g>
    <g id="ytick_8">
     <g id="line2d_17">
      <g>
       <use style="fill:#dd7373;stroke:#dd7373;stroke-width:3;" x="75.0225" xlink:href="#m706d70840c" y="35.698359"/>
      </g>
     </g>
     <g id="text_16">
      <!-- 42 -->
      <g style="fill:#dd7373;" transform="translate(34.8 43.676719)scale(0.21 -0.21)">
       <use xlink:href="#DejaVuSans-52"/>
       <use x="63.623047" xlink:href="#DejaVuSans-50"/>
      </g>
     </g>
    </g>
    <g id="text_17">
     <!-- Temperature ($^{o}$C) -->
     <g style="fill:#dd7373;" transform="translate(15.6 317.638359)rotate(-90)scale(0.2 -0.2)">
      <defs>
       <path d="M -0.296875 72.90625 
L 61.375 72.90625 
L 61.375 64.59375 
L 35.5 64.59375 
L 35.5 0 
L 25.59375 0 
L 25.59375 64.59375 
L -0.296875 64.59375 
z
" id="DejaVuSans-84"/>
       <path d="M 56.203125 29.59375 
L 56.203125 25.203125 
L 14.890625 25.203125 
Q 15.484375 15.921875 20.484375 11.0625 
Q 25.484375 6.203125 34.421875 6.203125 
Q 39.59375 6.203125 44.453125 7.46875 
Q 49.3125 8.734375 54.109375 11.28125 
L 54.109375 2.78125 
Q 49.265625 0.734375 44.1875 -0.34375 
Q 39.109375 -1.421875 33.890625 -1.421875 
Q 20.796875 -1.421875 13.15625 6.1875 
Q 5.515625 13.8125 5.515625 26.8125 
Q 5.515625 40.234375 12.765625 48.109375 
Q 20.015625 56 32.328125 56 
Q 43.359375 56 49.78125 48.890625 
Q 56.203125 41.796875 56.203125 29.59375 
z
M 47.21875 32.234375 
Q 47.125 39.59375 43.09375 43.984375 
Q 39.0625 48.390625 32.421875 48.390625 
Q 24.90625 48.390625 20.390625 44.140625 
Q 15.875 39.890625 15.1875 32.171875 
z
" id="DejaVuSans-101"/>
       <path d="M 52 44.1875 
Q 55.375 50.25 60.0625 53.125 
Q 64.75 56 71.09375 56 
Q 79.640625 56 84.28125 50.015625 
Q 88.921875 44.046875 88.921875 33.015625 
L 88.921875 0 
L 79.890625 0 
L 79.890625 32.71875 
Q 79.890625 40.578125 77.09375 44.375 
Q 74.3125 48.1875 68.609375 48.1875 
Q 61.625 48.1875 57.5625 43.546875 
Q 53.515625 38.921875 53.515625 30.90625 
L 53.515625 0 
L 44.484375 0 
L 44.484375 32.71875 
Q 44.484375 40.625 41.703125 44.40625 
Q 38.921875 48.1875 33.109375 48.1875 
Q 26.21875 48.1875 22.15625 43.53125 
Q 18.109375 38.875 18.109375 30.90625 
L 18.109375 0 
L 9.078125 0 
L 9.078125 54.6875 
L 18.109375 54.6875 
L 18.109375 46.1875 
Q 21.1875 51.21875 25.484375 53.609375 
Q 29.78125 56 35.6875 56 
Q 41.65625 56 45.828125 52.96875 
Q 50 49.953125 52 44.1875 
z
" id="DejaVuSans-109"/>
       <path d="M 18.109375 8.203125 
L 18.109375 -20.796875 
L 9.078125 -20.796875 
L 9.078125 54.6875 
L 18.109375 54.6875 
L 18.109375 46.390625 
Q 20.953125 51.265625 25.265625 53.625 
Q 29.59375 56 35.59375 56 
Q 45.5625 56 51.78125 48.09375 
Q 58.015625 40.1875 58.015625 27.296875 
Q 58.015625 14.40625 51.78125 6.484375 
Q 45.5625 -1.421875 35.59375 -1.421875 
Q 29.59375 -1.421875 25.265625 0.953125 
Q 20.953125 3.328125 18.109375 8.203125 
z
M 48.6875 27.296875 
Q 48.6875 37.203125 44.609375 42.84375 
Q 40.53125 48.484375 33.40625 48.484375 
Q 26.265625 48.484375 22.1875 42.84375 
Q 18.109375 37.203125 18.109375 27.296875 
Q 18.109375 17.390625 22.1875 11.75 
Q 26.265625 6.109375 33.40625 6.109375 
Q 40.53125 6.109375 44.609375 11.75 
Q 48.6875 17.390625 48.6875 27.296875 
z
" id="DejaVuSans-112"/>
       <path d="M 18.3125 70.21875 
L 18.3125 54.6875 
L 36.8125 54.6875 
L 36.8125 47.703125 
L 18.3125 47.703125 
L 18.3125 18.015625 
Q 18.3125 11.328125 20.140625 9.421875 
Q 21.96875 7.515625 27.59375 7.515625 
L 36.8125 7.515625 
L 36.8125 0 
L 27.59375 0 
Q 17.1875 0 13.234375 3.875 
Q 9.28125 7.765625 9.28125 18.015625 
L 9.28125 47.703125 
L 2.6875 47.703125 
L 2.6875 54.6875 
L 9.28125 54.6875 
L 9.28125 70.21875 
z
" id="DejaVuSans-116"/>
       <path d="M 8.5 21.578125 
L 8.5 54.6875 
L 17.484375 54.6875 
L 17.484375 21.921875 
Q 17.484375 14.15625 20.5 10.265625 
Q 23.53125 6.390625 29.59375 6.390625 
Q 36.859375 6.390625 41.078125 11.03125 
Q 45.3125 15.671875 45.3125 23.6875 
L 45.3125 54.6875 
L 54.296875 54.6875 
L 54.296875 0 
L 45.3125 0 
L 45.3125 8.40625 
Q 42.046875 3.421875 37.71875 1 
Q 33.40625 -1.421875 27.6875 -1.421875 
Q 18.265625 -1.421875 13.375 4.4375 
Q 8.5 10.296875 8.5 21.578125 
z
M 31.109375 56 
z
" id="DejaVuSans-117"/>
       <path id="DejaVuSans-32"/>
       <path d="M 31 75.875 
Q 24.46875 64.65625 21.28125 53.65625 
Q 18.109375 42.671875 18.109375 31.390625 
Q 18.109375 20.125 21.3125 9.0625 
Q 24.515625 -2 31 -13.1875 
L 23.1875 -13.1875 
Q 15.875 -1.703125 12.234375 9.375 
Q 8.59375 20.453125 8.59375 31.390625 
Q 8.59375 42.28125 12.203125 53.3125 
Q 15.828125 64.359375 23.1875 75.875 
z
" id="DejaVuSans-40"/>
       <path d="M 25.390625 -1.421875 
Q 15.765625 -1.421875 10.171875 4.515625 
Q 4.59375 10.453125 4.59375 20.703125 
Q 4.59375 26.65625 6.515625 32.828125 
Q 8.453125 39.015625 11.53125 43.21875 
Q 16.359375 49.75 22.3125 52.875 
Q 28.265625 56 35.796875 56 
Q 45.125 56 50.859375 50.1875 
Q 56.59375 44.390625 56.59375 35.015625 
Q 56.59375 28.515625 54.6875 22.0625 
Q 52.78125 15.625 49.703125 11.375 
Q 44.921875 4.828125 38.96875 1.703125 
Q 33.015625 -1.421875 25.390625 -1.421875 
z
M 13.921875 21 
Q 13.921875 13.578125 17.015625 9.890625 
Q 20.125 6.203125 26.421875 6.203125 
Q 35.453125 6.203125 41.375 14.078125 
Q 47.3125 21.96875 47.3125 34.078125 
Q 47.3125 41.15625 44.140625 44.765625 
Q 40.96875 48.390625 34.8125 48.390625 
Q 29.734375 48.390625 25.78125 46.015625 
Q 21.828125 43.65625 18.703125 38.8125 
Q 16.40625 35.203125 15.15625 30.5625 
Q 13.921875 25.921875 13.921875 21 
z
" id="DejaVuSans-Oblique-111"/>
       <path d="M 64.40625 67.28125 
L 64.40625 56.890625 
Q 59.421875 61.53125 53.78125 63.8125 
Q 48.140625 66.109375 41.796875 66.109375 
Q 29.296875 66.109375 22.65625 58.46875 
Q 16.015625 50.828125 16.015625 36.375 
Q 16.015625 21.96875 22.65625 14.328125 
Q 29.296875 6.6875 41.796875 6.6875 
Q 48.140625 6.6875 53.78125 8.984375 
Q 59.421875 11.28125 64.40625 15.921875 
L 64.40625 5.609375 
Q 59.234375 2.09375 53.4375 0.328125 
Q 47.65625 -1.421875 41.21875 -1.421875 
Q 24.65625 -1.421875 15.125 8.703125 
Q 5.609375 18.84375 5.609375 36.375 
Q 5.609375 53.953125 15.125 64.078125 
Q 24.65625 74.21875 41.21875 74.21875 
Q 47.75 74.21875 53.53125 72.484375 
Q 59.328125 70.75 64.40625 67.28125 
z
" id="DejaVuSans-67"/>
       <path d="M 8.015625 75.875 
L 15.828125 75.875 
Q 23.140625 64.359375 26.78125 53.3125 
Q 30.421875 42.28125 30.421875 31.390625 
Q 30.421875 20.453125 26.78125 9.375 
Q 23.140625 -1.703125 15.828125 -13.1875 
L 8.015625 -13.1875 
Q 14.5 -2 17.703125 9.0625 
Q 20.90625 20.125 20.90625 31.390625 
Q 20.90625 42.671875 17.703125 53.65625 
Q 14.5 64.65625 8.015625 75.875 
z
" id="DejaVuSans-41"/>
      </defs>
      <use transform="translate(0 0.51875)" xlink:href="#DejaVuSans-84"/>
      <use transform="translate(61.083984 0.51875)" xlink:href="#DejaVuSans-101"/>
      <use transform="translate(122.607422 0.51875)" xlink:href="#DejaVuSans-109"/>
      <use transform="translate(220.019531 0.51875)" xlink:href="#DejaVuSans-112"/>
      <use transform="translate(283.496094 0.51875)" xlink:href="#DejaVuSans-101"/>
      <use transform="translate(345.019531 0.51875)" xlink:href="#DejaVuSans-114"/>
      <use transform="translate(386.132812 0.51875)" xlink:href="#DejaVuSans-97"/>
      <use transform="translate(447.412109 0.51875)" xlink:href="#DejaVuSans-116"/>
      <use transform="translate(486.621094 0.51875)" xlink:href="#DejaVuSans-117"/>
      <use transform="translate(550 0.51875)" xlink:href="#DejaVuSans-114"/>
      <use transform="translate(591.113281 0.51875)" xlink:href="#DejaVuSans-101"/>
      <use transform="translate(652.636719 0.51875)" xlink:href="#DejaVuSans-32"/>
      <use transform="translate(684.423828 0.51875)" xlink:href="#DejaVuSans-40"/>
      <use transform="translate(724.394531 38.8)scale(0.7)" xlink:href="#DejaVuSans-Oblique-111"/>
      <use transform="translate(769.956055 0.51875)" xlink:href="#DejaVuSans-67"/>
      <use transform="translate(839.780273 0.51875)" xlink:href="#DejaVuSans-41"/>
     </g>
    </g>
   </g>
   <g id="line2d_18">
    <path clip-path="url(#p5f00c899af)" d="M 75.0225 368.338359 
L 326.575586 368.446385 
L 332.858372 368.467722 
L 336.966347 368.271727 
L 344.940652 367.763438 
L 347.598754 367.876626 
L 349.773565 368.183648 
L 351.948375 368.725763 
L 357.506224 370.297473 
L 359.197744 370.479824 
L 360.647617 370.40611 
L 361.855845 370.140155 
L 363.064073 369.654059 
L 364.272302 368.915749 
L 365.48053 367.894774 
L 366.930403 366.349234 
L 370.796733 362.000929 
L 372.004961 361.026849 
L 372.971544 360.523134 
L 373.696481 360.346303 
L 374.421417 360.370444 
L 375.146354 360.621411 
L 375.871291 361.125057 
L 376.596228 361.907237 
L 377.321165 362.993804 
L 378.046102 364.410611 
L 379.012684 366.858079 
L 379.979267 369.993843 
L 381.187495 374.737886 
L 385.537116 392.812237 
L 386.503698 395.625288 
L 387.228635 397.135195 
L 387.711926 397.802539 
L 388.195217 398.16512 
L 388.678509 398.194351 
L 389.1618 397.861641 
L 389.645091 397.138404 
L 390.128382 395.996049 
L 390.853319 393.434135 
L 391.578256 389.768396 
L 392.303193 384.902346 
L 393.02813 378.739498 
L 393.994712 368.338359 
L 394.961295 355.329805 
L 396.169523 335.813864 
L 397.619396 308.550445 
L 399.552561 267.674754 
L 405.352056 141.440134 
L 406.80193 115.461903 
L 408.010158 97.326976 
L 408.97674 85.613877 
L 409.943323 76.479802 
L 410.909905 69.708323 
L 411.634842 66.042584 
L 412.359779 63.48067 
L 412.84307 62.338315 
L 413.326361 61.615077 
L 413.809653 61.282368 
L 414.292944 61.311598 
L 414.776235 61.67418 
L 415.259526 62.341523 
L 415.984463 63.851431 
L 416.7094 65.886242 
L 417.675982 69.249074 
L 419.125856 75.221079 
L 422.267249 88.596101 
L 423.475477 92.61864 
L 424.44206 95.066108 
L 425.408642 96.88052 
L 426.133579 97.862752 
L 426.858516 98.549215 
L 427.583453 98.965762 
L 428.30839 99.138248 
L 429.033326 99.092526 
L 429.758263 98.854448 
L 430.724846 98.282479 
L 431.933074 97.244624 
L 433.624593 95.403382 
L 437.007632 91.581945 
L 438.21586 90.56097 
L 439.424088 89.82266 
L 440.632316 89.336564 
L 441.840544 89.070609 
L 443.290418 88.996894 
L 444.740291 89.138581 
L 446.673456 89.566779 
L 450.539786 90.750956 
L 452.714597 91.293071 
L 454.889407 91.600093 
L 457.305863 91.712726 
L 460.447256 91.609185 
L 471.562955 90.985074 
L 478.087386 91.078301 
L 487.26992 91.179056 
L 576.437152 91.138372 
L 744.6225 91.138359 
L 744.6225 91.138359 
" style="fill:none;stroke:#dd7373;stroke-linecap:square;stroke-width:5;"/>
   </g>
  </g>
  <g id="axes_2">
   <g id="matplotlib.axis_3">
    <g id="ytick_9">
     <g id="line2d_19">
      <defs>
       <path d="M 0 0 
L 10 0 
" id="m088ece8417" style="stroke:#63adf2;stroke-width:3;"/>
      </defs>
      <g>
       <use style="fill:#63adf2;stroke:#63adf2;stroke-width:3;" x="744.6225" xlink:href="#m088ece8417" y="451.498359"/>
      </g>
     </g>
     <g id="text_18">
      <!-- 4.0 -->
      <g style="fill:#63adf2;" transform="translate(758.1225 459.476719)scale(0.21 -0.21)">
       <defs>
        <path d="M 10.6875 12.40625 
L 21 12.40625 
L 21 0 
L 10.6875 0 
z
" id="DejaVuSans-46"/>
       </defs>
       <use xlink:href="#DejaVuSans-52"/>
       <use x="63.623047" xlink:href="#DejaVuSans-46"/>
       <use x="95.410156" xlink:href="#DejaVuSans-48"/>
      </g>
     </g>
    </g>
    <g id="ytick_10">
     <g id="line2d_20">
      <g>
       <use style="fill:#63adf2;stroke:#63adf2;stroke-width:3;" x="744.6225" xlink:href="#m088ece8417" y="396.058359"/>
      </g>
     </g>
     <g id="text_19">
      <!-- 4.5 -->
      <g style="fill:#63adf2;" transform="translate(758.1225 404.036719)scale(0.21 -0.21)">
       <defs>
        <path d="M 10.796875 72.90625 
L 49.515625 72.90625 
L 49.515625 64.59375 
L 19.828125 64.59375 
L 19.828125 46.734375 
Q 21.96875 47.46875 24.109375 47.828125 
Q 26.265625 48.1875 28.421875 48.1875 
Q 40.625 48.1875 47.75 41.5 
Q 54.890625 34.8125 54.890625 23.390625 
Q 54.890625 11.625 47.5625 5.09375 
Q 40.234375 -1.421875 26.90625 -1.421875 
Q 22.3125 -1.421875 17.546875 -0.640625 
Q 12.796875 0.140625 7.71875 1.703125 
L 7.71875 11.625 
Q 12.109375 9.234375 16.796875 8.0625 
Q 21.484375 6.890625 26.703125 6.890625 
Q 35.15625 6.890625 40.078125 11.328125 
Q 45.015625 15.765625 45.015625 23.390625 
Q 45.015625 31 40.078125 35.4375 
Q 35.15625 39.890625 26.703125 39.890625 
Q 22.75 39.890625 18.8125 39.015625 
Q 14.890625 38.140625 10.796875 36.28125 
z
" id="DejaVuSans-53"/>
       </defs>
       <use xlink:href="#DejaVuSans-52"/>
       <use x="63.623047" xlink:href="#DejaVuSans-46"/>
       <use x="95.410156" xlink:href="#DejaVuSans-53"/>
      </g>
     </g>
    </g>
    <g id="ytick_11">
     <g id="line2d_21">
      <g>
       <use style="fill:#63adf2;stroke:#63adf2;stroke-width:3;" x="744.6225" xlink:href="#m088ece8417" y="340.618359"/>
      </g>
     </g>
     <g id="text_20">
      <!-- 5.0 -->
      <g style="fill:#63adf2;" transform="translate(758.1225 348.596719)scale(0.21 -0.21)">
       <use xlink:href="#DejaVuSans-53"/>
       <use x="63.623047" xlink:href="#DejaVuSans-46"/>
       <use x="95.410156" xlink:href="#DejaVuSans-48"/>
      </g>
     </g>
    </g>
    <g id="ytick_12">
     <g id="line2d_22">
      <g>
       <use style="fill:#63adf2;stroke:#63adf2;stroke-width:3;" x="744.6225" xlink:href="#m088ece8417" y="285.178359"/>
      </g>
     </g>
     <g id="text_21">
      <!-- 5.5 -->
      <g style="fill:#63adf2;" transform="translate(758.1225 293.156719)scale(0.21 -0.21)">
       <use xlink:href="#DejaVuSans-53"/>
       <use x="63.623047" xlink:href="#DejaVuSans-46"/>
       <use x="95.410156" xlink:href="#DejaVuSans-53"/>
      </g>
     </g>
    </g>
    <g id="ytick_13">
     <g id="line2d_23">
      <g>
       <use style="fill:#63adf2;stroke:#63adf2;stroke-width:3;" x="744.6225" xlink:href="#m088ece8417" y="229.738359"/>
      </g>
     </g>
     <g id="text_22">
      <!-- 6.0 -->
      <g style="fill:#63adf2;" transform="translate(758.1225 237.716719)scale(0.21 -0.21)">
       <use xlink:href="#DejaVuSans-54"/>
       <use x="63.623047" xlink:href="#DejaVuSans-46"/>
       <use x="95.410156" xlink:href="#DejaVuSans-48"/>
      </g>
     </g>
    </g>
    <g id="ytick_14">
     <g id="line2d_24">
      <g>
       <use style="fill:#63adf2;stroke:#63adf2;stroke-width:3;" x="744.6225" xlink:href="#m088ece8417" y="174.298359"/>
      </g>
     </g>
     <g id="text_23">
      <!-- 6.5 -->
      <g style="fill:#63adf2;" transform="translate(758.1225 182.276719)scale(0.21 -0.21)">
       <use xlink:href="#DejaVuSans-54"/>
       <use x="63.623047" xlink:href="#DejaVuSans-46"/>
       <use x="95.410156" xlink:href="#DejaVuSans-53"/>
      </g>
     </g>
    </g>
    <g id="ytick_15">
     <g id="line2d_25">
      <g>
       <use style="fill:#63adf2;stroke:#63adf2;stroke-width:3;" x="744.6225" xlink:href="#m088ece8417" y="118.858359"/>
      </g>
     </g>
     <g id="text_24">
      <!-- 7.0 -->
      <g style="fill:#63adf2;" transform="translate(758.1225 126.836719)scale(0.21 -0.21)">
       <defs>
        <path d="M 8.203125 72.90625 
L 55.078125 72.90625 
L 55.078125 68.703125 
L 28.609375 0 
L 18.3125 0 
L 43.21875 64.59375 
L 8.203125 64.59375 
z
" id="DejaVuSans-55"/>
       </defs>
       <use xlink:href="#DejaVuSans-55"/>
       <use x="63.623047" xlink:href="#DejaVuSans-46"/>
       <use x="95.410156" xlink:href="#DejaVuSans-48"/>
      </g>
     </g>
    </g>
    <g id="ytick_16">
     <g id="line2d_26">
      <g>
       <use style="fill:#63adf2;stroke:#63adf2;stroke-width:3;" x="744.6225" xlink:href="#m088ece8417" y="63.418359"/>
      </g>
     </g>
     <g id="text_25">
      <!-- 7.5 -->
      <g style="fill:#63adf2;" transform="translate(758.1225 71.396719)scale(0.21 -0.21)">
       <use xlink:href="#DejaVuSans-55"/>
       <use x="63.623047" xlink:href="#DejaVuSans-46"/>
       <use x="95.410156" xlink:href="#DejaVuSans-53"/>
      </g>
     </g>
    </g>
    <g id="ytick_17">
     <g id="line2d_27">
      <g>
       <use style="fill:#63adf2;stroke:#63adf2;stroke-width:3;" x="744.6225" xlink:href="#m088ece8417" y="7.978359"/>
      </g>
     </g>
     <g id="text_26">
      <!-- 8.0 -->
      <g style="fill:#63adf2;" transform="translate(758.1225 15.956719)scale(0.21 -0.21)">
       <use xlink:href="#DejaVuSans-56"/>
       <use x="63.623047" xlink:href="#DejaVuSans-46"/>
       <use x="95.410156" xlink:href="#DejaVuSans-48"/>
      </g>
     </g>
    </g>
    <g id="text_27">
     <!-- pH -->
     <g style="fill:#63adf2;" transform="translate(801.322188 215.869609)rotate(-270)scale(0.2 -0.2)">
      <defs>
       <path d="M 9.8125 72.90625 
L 19.671875 72.90625 
L 19.671875 43.015625 
L 55.515625 43.015625 
L 55.515625 72.90625 
L 65.375 72.90625 
L 65.375 0 
L 55.515625 0 
L 55.515625 34.71875 
L 19.671875 34.71875 
L 19.671875 0 
L 9.8125 0 
z
" id="DejaVuSans-72"/>
      </defs>
      <use xlink:href="#DejaVuSans-112"/>
      <use x="63.476562" xlink:href="#DejaVuSans-72"/>
     </g>
    </g>
   </g>
   <g id="line2d_28">
    <path clip-path="url(#p5f00c899af)" d="M 75.0225 229.738359 
L 338.174575 229.638321 
L 345.182298 229.385492 
L 348.323691 229.502616 
L 350.981793 229.811381 
L 359.197744 231.053988 
L 360.889263 230.985897 
L 362.580782 230.683617 
L 364.030656 230.197143 
L 365.48053 229.465838 
L 367.413695 228.171518 
L 370.796733 225.8449 
L 372.246607 225.153227 
L 373.454835 224.851643 
L 374.421417 224.843196 
L 375.388 225.082487 
L 376.354582 225.607166 
L 377.321165 226.454882 
L 378.287747 227.663284 
L 379.25433 229.270023 
L 380.220912 231.30022 
L 381.670786 234.93844 
L 385.053824 243.738926 
L 386.020407 245.701108 
L 386.986989 247.160247 
L 387.711926 247.839954 
L 388.195217 248.062709 
L 388.678509 248.080667 
L 389.1618 247.876264 
L 389.645091 247.431936 
L 390.128382 246.73012 
L 390.853319 245.156184 
L 391.578256 242.904103 
L 392.303193 239.9146 
L 393.02813 236.128396 
L 393.994712 229.738359 
L 394.961295 221.764038 
L 396.169523 209.957176 
L 397.861042 191.140283 
L 401.969018 144.41643 
L 403.177246 133.116309 
L 404.143828 125.673193 
L 405.110411 120.004156 
L 405.835347 117.113492 
L 406.318639 115.911235 
L 406.80193 115.336587 
L 407.043575 115.297401 
L 407.285221 115.430457 
L 407.526867 115.74087 
L 408.010158 116.91422 
L 408.493449 118.858359 
L 409.218386 123.25955 
L 409.943323 129.326711 
L 410.909905 139.730623 
L 412.118133 155.920528 
L 413.568007 179.039855 
L 415.501172 214.023571 
L 420.334084 303.426597 
L 421.783958 325.539015 
L 422.992186 340.618359 
L 423.958768 350.054061 
L 424.925351 357.242724 
L 425.650288 361.284414 
L 426.375225 364.266383 
L 427.100161 366.276161 
L 427.583453 367.119133 
L 428.066744 367.594858 
L 428.550035 367.729271 
L 429.033326 367.548308 
L 429.516618 367.077902 
L 430.241554 365.886324 
L 430.966491 364.189386 
L 431.933074 361.291976 
L 433.382947 356.006962 
L 437.007632 342.120181 
L 437.974214 339.275479 
L 438.940797 337.055186 
L 439.907379 335.409188 
L 440.873962 334.281891 
L 441.598898 333.743372 
L 442.323835 333.441897 
L 443.048772 333.354012 
L 443.773709 333.456264 
L 444.740291 333.847829 
L 445.706874 334.480124 
L 446.915102 335.524325 
L 448.848267 337.525716 
L 451.264723 340.000392 
L 452.472951 340.978183 
L 453.681179 341.697214 
L 454.889407 342.181624 
L 456.339281 342.49418 
L 457.789155 342.561053 
L 459.480674 342.395627 
L 461.655484 341.920602 
L 467.696625 340.398366 
L 470.113081 340.148538 
L 472.771183 340.104144 
L 476.395867 340.286681 
L 483.886881 340.730597 
L 489.203085 340.736446 
L 505.634986 340.595813 
L 530.041194 340.615671 
L 744.6225 340.618359 
L 744.6225 340.618359 
" style="fill:none;stroke:#63adf2;stroke-linecap:square;stroke-width:5;"/>
   </g>
  </g>
 </g>
 <defs>
  <clipPath id="p5f00c899af">
   <rect height="443.52" width="669.6" x="75.0225" y="7.978359"/>
  </clipPath>
 </defs>
</svg>
